{
.appVersion = "1230";
copyright = "Copyright 2019 Google Inc. All Rights Reserved.";
customParameters = (
{
name = openTypeOS2VendorID;
value = GOOG;
},
{
name = glyphOrder;
value = (
.notdef,
NULL,
CR,
space,
candrabindumlym,
anusvaramlym,
visargamlym,
amlym,
aamlym,
imlym,
iimlym,
umlym,
uumlym,
rvocalicmlym,
lvocalicmlym,
emlym,
eemlym,
aimlym,
omlym,
oomlym,
aumlym,
kamlym,
khamlym,
gamlym,
ghamlym,
ngamlym,
camlym,
chamlym,
jamlym,
jhamlym,
nyamlym,
ttamlym,
tthamlym,
ddamlym,
ddhamlym,
nnamlym,
tamlym,
thamlym,
damlym,
dhamlym,
namlym,
nnnamlym,
pamlym,
phamlym,
bamlym,
bhamlym,
mamlym,
yamlym,
ramlym,
rramlym,
lamlym,
llamlym,
lllamlym,
vamlym,
shamlym,
ssamlym,
samlym,
hamlym,
tttamlym,
avagrahamlym,
aavowelsignmlym,
ivowelsignmlym,
iivowelsignmlym,
uvowelsignmlym,
uuvowelsignmlym,
rvocalicvowelsignmlym,
rrvocalicvowelsignmlym,
evowelsignmlym,
eevowelsignmlym,
aivowelsignmlym,
ovowelsignmlym,
oovowelsignmlym,
auvowelsignmlym,
viramamlym,
rephmlym,
uni0D4F,
machillumlym,
yachillumlym,
lllachillumlym,
aulengthmarkmlym,
uni0D58,
uni0D59,
uni0D5A,
uni0D5B,
uni0D5C,
uni0D5D,
uni0D5E,
uni0D5F,
rrvocalicmlym,
llvocalicmlym,
lvocalicvowelsignmlym,
llvocalicvowelsignmlym,
zeromlym,
onemlym,
twomlym,
threemlym,
fourmlym,
fivemlym,
sixmlym,
sevenmlym,
eightmlym,
ninemlym,
tenmlym,
hundredmlym,
thousandmlym,
onequartermlym,
onehalfmlym,
threequartermlym,
uni0D76,
uni0D77,
uni0D78,
datemarkmlym,
nnachillumlym,
nachillumlym,
rrachillumlym,
lachillumlym,
llachillumlym,
kachillumlym,
kaprehalfmlym,
khaprehalfmlym,
gaprehalfmlym,
ghaprehalfmlym,
ngaprehalfmlym,
caprehalfmlym,
chaprehalfmlym,
japrehalfmlym,
jhaprehalfmlym,
nyaprehalfmlym,
ttaprehalfmlym,
tthaprehalfmlym,
ddaprehalfmlym,
ddhaprehalfmlym,
nnaprehalfmlym,
taprehalfmlym,
thaprehalfmlym,
daprehalfmlym,
dhaprehalfmlym,
naprehalfmlym,
paprehalfmlym,
phaprehalfmlym,
baprehalfmlym,
bhaprehalfmlym,
maprehalfmlym,
yaprehalfmlym,
raprehalfmlym,
rraprehalfmlym,
laprehalfmlym,
llaprehalfmlym,
lllaprehalfmlym,

glyphs = (
{
glyphname = .notdef;
lastChange = "2019-06-05 08:30:02 +0000";
layers = (
{
layerId = UUID0;
paths = (
{
closed = 1;
nodes = (
"505 0 LINE",
"505 714 LINE",
"94 714 LINE",
"94 0 LINE"
);
},
{
closed = 1;
nodes = (
"145 663 LINE",
"454 663 LINE",
"454 51 LINE",
"145 51 LINE"
);
}
);
width = 600;
},
{
color = -1;
layerId = "D1B76089-C2CA-459D-9B35-7EF71253C59F";
paths = (
{
closed = 1;
nodes = (
"515 0 LINE",
"515 714 LINE",
"104 714 LINE",
"104 0 LINE"
);
},
{
closed = 1;
nodes = (
"155 663 LINE",
"464 663 LINE",
"464 51 LINE",
"155 51 LINE"
);
}
);
width = 620;
},
{
layerId = "C0B026C4-A727-4B54-9AF4-B5E9F769E1F3";
paths = (
{
closed = 1;
nodes = (
"505 0 LINE",
"505 714 LINE",
"94 714 LINE",
"94 0 LINE"
);
},
{
closed = 1;
nodes = (
"145 663 LINE",
"454 663 LINE",
"454 51 LINE",
"145 51 LINE"
);
}
);
width = 600;
}
);
},
{
glyphname = candrabindumlym;
lastChange = "2019-06-05 08:30:18 +0000";
layers = (
{
layerId = UUID0;
paths = (
{
closed = 1;
nodes = (
"-160 654 OFFCURVE",
"-100 709 OFFCURVE",
"-100 782 CURVE SMOOTH",
"-100 815 OFFCURVE",
"-116 848 OFFCURVE",
"-151 848 CURVE SMOOTH",
"-157 848 OFFCURVE",
"-164 847 OFFCURVE",
"-170 845 CURVE",
"-163 831 OFFCURVE",
"-160 816 OFFCURVE",
"-160 800 CURVE SMOOTH",
"-160 740 OFFCURVE",
"-202 712 OFFCURVE",
"-270 712 CURVE SMOOTH",
"-346 712 OFFCURVE",
"-382 745 OFFCURVE",
"-382 804 CURVE SMOOTH",
"-382 817 OFFCURVE",
"-380 831 OFFCURVE",
"-375 845 CURVE",
"-383 848 OFFCURVE",
"-390 849 OFFCURVE",
"-396 849 CURVE SMOOTH",
"-428 849 OFFCURVE",
"-459 822 OFFCURVE",
"-459 776 CURVE SMOOTH",
"-459 718 OFFCURVE",
"-420 654 OFFCURVE",
"-269 654 CURVE SMOOTH"
);
},
{
closed = 1;
nodes = (
"-246 759 OFFCURVE",
"-224 779 OFFCURVE",
"-224 810 CURVE SMOOTH",
"-224 838 OFFCURVE",
"-246 860 OFFCURVE",
"-275 860 CURVE SMOOTH",
"-304 860 OFFCURVE",
"-325 838 OFFCURVE",
"-325 810 CURVE SMOOTH",
"-325 779 OFFCURVE",
"-304 759 OFFCURVE",
"-275 759 CURVE SMOOTH"
);
}
);
width = 0;
},
{
color = -1;
layerId = "D1B76089-C2CA-459D-9B35-7EF71253C59F";
paths = (
{
closed = 1;
nodes = (
"-179 672 OFFCURVE",
"-139 735 OFFCURVE",
"-139 788 CURVE SMOOTH",
"-139 824 OFFCURVE",
"-152 843 OFFCURVE",
"-167 843 CURVE SMOOTH",
"-170 843 OFFCURVE",
"-173 842 OFFCURVE",
"-176 841 CURVE",
"-169 826 OFFCURVE",
"-166 809 OFFCURVE",
"-166 794 CURVE SMOOTH",
"-166 738 OFFCURVE",
"-202 696 OFFCURVE",
"-279 696 CURVE SMOOTH",
"-357 696 OFFCURVE",
"-394 738 OFFCURVE",
"-394 794 CURVE SMOOTH",
"-394 809 OFFCURVE",
"-391 826 OFFCURVE",
"-384 841 CURVE",
"-387 842 OFFCURVE",
"-390 843 OFFCURVE",
"-393 843 CURVE SMOOTH",
"-408 843 OFFCURVE",
"-421 824 OFFCURVE",
"-421 788 CURVE SMOOTH",
"-421 735 OFFCURVE",
"-381 672 OFFCURVE",
"-279 672 CURVE SMOOTH"
);
},
{
closed = 1;
nodes = (
"-257 782 OFFCURVE",
"-254 796 OFFCURVE",
"-254 813 CURVE SMOOTH",
"-254 829 OFFCURVE",
"-257 844 OFFCURVE",
"-280 844 CURVE SMOOTH",
"-301 844 OFFCURVE",
"-306 829 OFFCURVE",
"-306 813 CURVE SMOOTH",
"-306 796 OFFCURVE",
"-301 782 OFFCURVE",
"-280 782 CURVE SMOOTH"
);
}
);
width = 0;
},
{
layerId = "C0B026C4-A727-4B54-9AF4-B5E9F769E1F3";
paths = (
{
closed = 1;
nodes = (
"-130 648 OFFCURVE",
"-68 702 OFFCURVE",
"-68 778 CURVE SMOOTH",
"-68 810 OFFCURVE",
"-82 856 OFFCURVE",
"-131 856 CURVE SMOOTH",
"-137 856 OFFCURVE",
"-153 854 OFFCURVE",
"-159 851 CURVE",
"-152 837 OFFCURVE",
"-149 813 OFFCURVE",
"-149 797 CURVE SMOOTH",
"-149 741 OFFCURVE",
"-192 721 OFFCURVE",
"-256 721 CURVE SMOOTH",
"-331 721 OFFCURVE",
"-373 741 OFFCURVE",
"-373 801 CURVE SMOOTH",
"-373 818 OFFCURVE",
"-369 838 OFFCURVE",
"-364 852 CURVE",
"-372 855 OFFCURVE",
"-388 858 OFFCURVE",
"-403 858 CURVE SMOOTH",
"-460 858 OFFCURVE",
"-492 818 OFFCURVE",
"-492 771 CURVE SMOOTH",
"-492 712 OFFCURVE",
"-444 648 OFFCURVE",
"-267 648 CURVE SMOOTH"
);
},
{
closed = 1;
nodes = (
"-212 749 OFFCURVE",
"-195 772 OFFCURVE",
"-195 805 CURVE SMOOTH",
"-195 839 OFFCURVE",
"-211 864 OFFCURVE",
"-262 864 CURVE SMOOTH",
"-311 864 OFFCURVE",
"-328 839 OFFCURVE",
"-328 808 CURVE SMOOTH",
"-328 772 OFFCURVE",
"-309 749 OFFCURVE",
"-262 749 CURVE SMOOTH"
);
}
);
width = 0;
}
);
unicode = 0D01;
},
{
glyphname = anusvaramlym;
lastChange = "2019-06-05 08:30:02 +0000";
layers = (
{
layerId = UUID0;
paths = (
{
closed = 1;
nodes = (
"344 9 OFFCURVE",
"429 86 OFFCURVE",
"429 208 CURVE SMOOTH",
"429 333 OFFCURVE",
"340 406 OFFCURVE",
"230 406 CURVE SMOOTH",
"109 406 OFFCURVE",
"35 314 OFFCURVE",
"35 208 CURVE SMOOTH",
"35 102 OFFCURVE",
"107 9 OFFCURVE",
"230 9 CURVE SMOOTH"
);
},
{
closed = 1;
nodes = (
"130 68 OFFCURVE",
"89 136 OFFCURVE",
"89 207 CURVE SMOOTH",
"89 279 OFFCURVE",
"131 347 OFFCURVE",
"217 347 CURVE SMOOTH",
"287 347 OFFCURVE",
"338 307 OFFCURVE",
"338 206 CURVE SMOOTH",
"338 108 OFFCURVE",
"287 68 OFFCURVE",
"217 68 CURVE SMOOTH"
);
}
);
width = 464;
},
{
color = -1;
layerId = "D1B76089-C2CA-459D-9B35-7EF71253C59F";
paths = (
{
closed = 1;
nodes = (
"318 9 OFFCURVE",
"383 87 OFFCURVE",
"383 182 CURVE SMOOTH",
"383 277 OFFCURVE",
"318 355 OFFCURVE",
"213 355 CURVE SMOOTH",
"107 355 OFFCURVE",
"41 277 OFFCURVE",
"41 182 CURVE SMOOTH",
"41 87 OFFCURVE",
"106 9 OFFCURVE",
"211 9 CURVE SMOOTH"
);
},
{
closed = 1;
nodes = (
"123 34 OFFCURVE",
"69 95 OFFCURVE",
"69 182 CURVE SMOOTH",
"69 268 OFFCURVE",
"123 330 OFFCURVE",
"211 330 CURVE SMOOTH",
"300 330 OFFCURVE",
"355 269 OFFCURVE",
"355 182 CURVE SMOOTH",
"355 96 OFFCURVE",
"300 34 OFFCURVE",
"213 34 CURVE SMOOTH"
);
}
);
width = 424;
},
{
layerId = "C0B026C4-A727-4B54-9AF4-B5E9F769E1F3";
paths = (
{
closed = 1;
nodes = (
"416 8 OFFCURVE",
"486 97 OFFCURVE",
"486 211 CURVE SMOOTH",
"486 313 OFFCURVE",
"414 413 OFFCURVE",
"257 413 CURVE SMOOTH",
"114 413 OFFCURVE",
"35 321 OFFCURVE",
"35 211 CURVE SMOOTH",
"35 100 OFFCURVE",
"97 8 OFFCURVE",
"249 8 CURVE SMOOTH"
);
},
{
closed = 1;
nodes = (
"137 85 OFFCURVE",
"112 138 OFFCURVE",
"112 210 CURVE SMOOTH",
"112 280 OFFCURVE",
"146 336 OFFCURVE",
"213 336 CURVE SMOOTH",
"270 336 OFFCURVE",
"308 302 OFFCURVE",
"308 209 CURVE SMOOTH",
"308 139 OFFCURVE",
"289 85 OFFCURVE",
"213 85 CURVE SMOOTH"
);
}
);
width = 521;
}
);
unicode = 0D02;
},
{
glyphname = visargamlym;
lastChange = "2019-06-05 08:30:02 +0000";
layers = (
{
layerId = UUID0;
paths = (
{
closed = 1;
nodes = (
"200 7 OFFCURVE",
"244 47 OFFCURVE",
"244 113 CURVE SMOOTH",
"244 178 OFFCURVE",
"200 219 OFFCURVE",
"136 219 CURVE SMOOTH",
"75 219 OFFCURVE",
"30 180 OFFCURVE",
"30 113 CURVE SMOOTH",
"30 43 OFFCURVE",
"75 7 OFFCURVE",
"133 7 CURVE SMOOTH"
);
},
{
closed = 1;
nodes = (
"94 54 OFFCURVE",
"72 75 OFFCURVE",
"72 113 CURVE SMOOTH",
"72 151 OFFCURVE",
"94 172 OFFCURVE",
"123 172 CURVE SMOOTH",
"148 172 OFFCURVE",
"172 153 OFFCURVE",
"172 113 CURVE SMOOTH",
"172 73 OFFCURVE",
"148 54 OFFCURVE",
"123 54 CURVE SMOOTH"
);
},
{
closed = 1;
nodes = (
"200 313 OFFCURVE",
"244 353 OFFCURVE",
"244 419 CURVE SMOOTH",
"244 484 OFFCURVE",
"200 525 OFFCURVE",
"136 525 CURVE SMOOTH",
"75 525 OFFCURVE",
"30 486 OFFCURVE",
"30 419 CURVE SMOOTH",
"30 349 OFFCURVE",
"75 313 OFFCURVE",
"133 313 CURVE SMOOTH"
);
},
{
closed = 1;
nodes = (
"94 360 OFFCURVE",
"72 381 OFFCURVE",
"72 419 CURVE SMOOTH",
"72 457 OFFCURVE",
"94 478 OFFCURVE",
"123 478 CURVE SMOOTH",
"148 478 OFFCURVE",
"172 459 OFFCURVE",
"172 419 CURVE SMOOTH",
"172 379 OFFCURVE",
"148 360 OFFCURVE",
"123 360 CURVE SMOOTH"
);
}
);
width = 274;
},
{
color = -1;
layerId = "D1B76089-C2CA-459D-9B35-7EF71253C59F";
paths = (
{
closed = 1;
nodes = (
"177 8 OFFCURVE",
"217 42 OFFCURVE",
"217 100 CURVE SMOOTH",
"217 158 OFFCURVE",
"177 192 OFFCURVE",
"126 192 CURVE SMOOTH",
"74 192 OFFCURVE",
"34 158 OFFCURVE",
"34 100 CURVE SMOOTH",
"34 42 OFFCURVE",
"74 8 OFFCURVE",
"125 8 CURVE SMOOTH"
);
},
{
closed = 1;
nodes = (
"94 33 OFFCURVE",
"61 52 OFFCURVE",
"61 100 CURVE SMOOTH",
"61 148 OFFCURVE",
"94 167 OFFCURVE",
"126 167 CURVE SMOOTH",
"157 167 OFFCURVE",
"190 148 OFFCURVE",
"190 100 CURVE SMOOTH",
"190 52 OFFCURVE",
"157 33 OFFCURVE",
"126 33 CURVE SMOOTH"
);
},
{
closed = 1;
nodes = (
"177 326 OFFCURVE",
"217 360 OFFCURVE",
"217 418 CURVE SMOOTH",
"217 476 OFFCURVE",
"177 510 OFFCURVE",
"126 510 CURVE SMOOTH",
"74 510 OFFCURVE",
"34 476 OFFCURVE",
"34 418 CURVE SMOOTH",
"34 360 OFFCURVE",
"74 326 OFFCURVE",
"125 326 CURVE SMOOTH"
);
},
{
closed = 1;
nodes = (
"94 351 OFFCURVE",
"61 370 OFFCURVE",
"61 418 CURVE SMOOTH",
"61 466 OFFCURVE",
"94 485 OFFCURVE",
"126 485 CURVE SMOOTH",
"157 485 OFFCURVE",
"190 466 OFFCURVE",
"190 418 CURVE SMOOTH",
"190 370 OFFCURVE",
"157 351 OFFCURVE",
"126 351 CURVE SMOOTH"
);
}
);
width = 251;
},
{
layerId = "C0B026C4-A727-4B54-9AF4-B5E9F769E1F3";
paths = (
{
closed = 1;
nodes = (
"231 -4 OFFCURVE",
"282 42 OFFCURVE",
"282 117 CURVE SMOOTH",
"282 191 OFFCURVE",
"229 237 OFFCURVE",
"153 237 CURVE SMOOTH",
"74 237 OFFCURVE",
"24 191 OFFCURVE",
"24 117 CURVE SMOOTH",
"24 42 OFFCURVE",
"73 -4 OFFCURVE",
"153 -4 CURVE SMOOTH"
);
},
{
closed = 1;
nodes = (
"102 61 OFFCURVE",
"80 79 OFFCURVE",
"80 117 CURVE SMOOTH",
"80 154 OFFCURVE",
"102 172 OFFCURVE",
"126 172 CURVE SMOOTH",
"152 172 OFFCURVE",
"167 153 OFFCURVE",
"167 117 CURVE SMOOTH",
"167 81 OFFCURVE",
"152 61 OFFCURVE",
"126 61 CURVE SMOOTH"
);
},
{
closed = 1;
nodes = (
"231 298 OFFCURVE",
"282 344 OFFCURVE",
"282 419 CURVE SMOOTH",
"282 493 OFFCURVE",
"229 539 OFFCURVE",
"153 539 CURVE SMOOTH",
"74 539 OFFCURVE",
"24 493 OFFCURVE",
"24 419 CURVE SMOOTH",
"24 344 OFFCURVE",
"73 298 OFFCURVE",
"153 298 CURVE SMOOTH"
);
},
{
closed = 1;
nodes = (
"102 363 OFFCURVE",
"80 381 OFFCURVE",
"80 419 CURVE SMOOTH",
"80 456 OFFCURVE",
"102 474 OFFCURVE",
"126 474 CURVE SMOOTH",
"152 474 OFFCURVE",
"167 455 OFFCURVE",
"167 419 CURVE SMOOTH",
"167 383 OFFCURVE",
"152 363 OFFCURVE",
"126 363 CURVE SMOOTH"
);
}
);
width = 306;
}
);
unicode = 0D03;
},
{
glyphname = amlym;
lastChange = "2019-06-05 08:30:18 +0000";
layers = (
{
layerId = UUID0;
paths = (
{
closed = 1;
nodes = (
"216 -6 OFFCURVE",
"229 0 OFFCURVE",
"238 11 CURVE",
"159 61 OFFCURVE",
"101 136 OFFCURVE",
"101 254 CURVE SMOOTH",
"101 397 OFFCURVE",
"193 500 OFFCURVE",
"338 500 CURVE SMOOTH",
"457 500 OFFCURVE",
"557 460 OFFCURVE",
"557 366 CURVE SMOOTH",
"557 314 OFFCURVE",
"516 281 OFFCURVE",
"440 281 CURVE",
"440 233 LINE",
"504 233 OFFCURVE",
"555 208 OFFCURVE",
"555 136 CURVE SMOOTH",
"555 83 OFFCURVE",
"521 54 OFFCURVE",
"463 54 CURVE SMOOTH",
"384 54 OFFCURVE",
"324 117 OFFCURVE",
"324 235 CURVE SMOOTH",
"324 422 OFFCURVE",
"460 503 OFFCURVE",
"580 503 CURVE SMOOTH",
"712 503 OFFCURVE",
"768 405 OFFCURVE",
"768 294 CURVE SMOOTH",
"768 0 LINE",
"863 0 LINE",
"863 296 LINE SMOOTH",
"863 405 OFFCURVE",
"920 500 OFFCURVE",
"1046 500 CURVE SMOOTH",
"1187 500 OFFCURVE",
"1258 365 OFFCURVE",
"1258 232 CURVE SMOOTH",
"1258 95 OFFCURVE",
"1208 54 OFFCURVE",
"1146 54 CURVE SMOOTH",
"1080 54 OFFCURVE",
"1035 105 OFFCURVE",
"1035 199 CURVE SMOOTH",
"1035 307 OFFCURVE",
"1085 412 OFFCURVE",
"1173 484 CURVE",
"1140 523 LINE",
"1040 439 OFFCURVE",
"977 334 OFFCURVE",
"977 204 CURVE SMOOTH",
"977 80 OFFCURVE",
"1040 -6 OFFCURVE",
"1156 -6 CURVE SMOOTH",
"1284 -6 OFFCURVE",
"1355 106 OFFCURVE",
"1355 234 CURVE SMOOTH",
"1355 420 OFFCURVE",
"1234 560 OFFCURVE",
"1057 560 CURVE SMOOTH",
"940 560 OFFCURVE",
"852 491 OFFCURVE",
"817 401 CURVE",
"854 379 LINE",
"806 496 OFFCURVE",
"719 560 OFFCURVE",
"593 560 CURVE SMOOTH",
"406 560 OFFCURVE",
"266 422 OFFCURVE",
"266 244 CURVE SMOOTH",
"266 113 OFFCURVE",
"323 -6 OFFCURVE",
"481 -6 CURVE SMOOTH",
"584 -6 OFFCURVE",
"650 48 OFFCURVE",
"650 129 CURVE SMOOTH",
"650 200 OFFCURVE",
"594 244 OFFCURVE",
"537 255 CURVE",
"537 259 LINE",
"593 268 OFFCURVE",
"649 299 OFFCURVE",
"649 369 CURVE SMOOTH",
"649 440 OFFCURVE",
"598 489 OFFCURVE",
"533 512 CURVE",
"509 533 LINE",
"457 554 OFFCURVE",
"397 560 OFFCURVE",
"339 560 CURVE SMOOTH",
"169 560 OFFCURVE",
"42 443 OFFCURVE",
"42 256 CURVE SMOOTH",
"42 92 OFFCURVE",
"139 -6 OFFCURVE",
"202 -6 CURVE SMOOTH"
);
}
);
width = 1397;
},
{
color = -1;
layerId = "D1B76089-C2CA-459D-9B35-7EF71253C59F";
paths = (
{
closed = 1;
nodes = (
"192 -6 OFFCURVE",
"197 -4 OFFCURVE",
"202 1 CURVE",
"114 57 OFFCURVE",
"76 159 OFFCURVE",
"76 256 CURVE SMOOTH",
"76 446 OFFCURVE",
"215 524 OFFCURVE",
"334 524 CURVE SMOOTH",
"491 524 OFFCURVE",
"584 465 OFFCURVE",
"584 373 CURVE SMOOTH",
"584 304 OFFCURVE",
"528 269 OFFCURVE",
"440 267 CURVE",
"440 242 LINE",
"512 240 OFFCURVE",
"583 213 OFFCURVE",
"583 125 CURVE SMOOTH",
"583 46 OFFCURVE",
"524 19 OFFCURVE",
"465 19 CURVE SMOOTH",
"380 19 OFFCURVE",
"306 78 OFFCURVE",
"306 236 CURVE SMOOTH",
"306 399 OFFCURVE",
"415 524 OFFCURVE",
"563 524 CURVE SMOOTH",
"687 524 OFFCURVE",
"769 449 OFFCURVE",
"769 290 CURVE SMOOTH",
"769 0 LINE",
"796 0 LINE",
"796 300 LINE SMOOTH",
"796 434 OFFCURVE",
"870 524 OFFCURVE",
"1011 524 CURVE SMOOTH",
"1156 524 OFFCURVE",
"1257 406 OFFCURVE",
"1257 237 CURVE SMOOTH",
"1257 106 OFFCURVE",
"1209 19 OFFCURVE",
"1115 19 CURVE SMOOTH",
"1039 19 OFFCURVE",
"984 92 OFFCURVE",
"984 206 CURVE SMOOTH",
"984 340 OFFCURVE",
"1052 441 OFFCURVE",
"1134 498 CURVE",
"1116 516 LINE",
"1024 453 OFFCURVE",
"956 343 OFFCURVE",
"956 206 CURVE SMOOTH",
"956 88 OFFCURVE",
"1015 -6 OFFCURVE",
"1115 -6 CURVE SMOOTH",
"1226 -6 OFFCURVE",
"1285 90 OFFCURVE",
"1285 237 CURVE SMOOTH",
"1285 421 OFFCURVE",
"1170 549 OFFCURVE",
"1010 549 CURVE SMOOTH",
"884 549 OFFCURVE",
"794 487 OFFCURVE",
"779 355 CURVE",
"786 351 LINE",
"774 482 OFFCURVE",
"689 549 OFFCURVE",
"563 549 CURVE SMOOTH",
"406 549 OFFCURVE",
"278 413 OFFCURVE",
"278 235 CURVE SMOOTH",
"278 71 OFFCURVE",
"357 -6 OFFCURVE",
"465 -6 CURVE SMOOTH",
"554 -6 OFFCURVE",
"611 42 OFFCURVE",
"611 125 CURVE SMOOTH",
"611 213 OFFCURVE",
"553 242 OFFCURVE",
"500 254 CURVE",
"501 255 LINE",
"573 270 OFFCURVE",
"612 304 OFFCURVE",
"612 374 CURVE SMOOTH",
"612 441 OFFCURVE",
"572 494 OFFCURVE",
"488 520 CURVE",
"478 528 LINE",
"439 542 OFFCURVE",
"391 549 OFFCURVE",
"336 549 CURVE SMOOTH",
"202 549 OFFCURVE",
"48 459 OFFCURVE",
"48 256 CURVE SMOOTH",
"48 112 OFFCURVE",
"134 -6 OFFCURVE",
"183 -6 CURVE SMOOTH"
);
}
);
width = 1333;
},
{
layerId = "C0B026C4-A727-4B54-9AF4-B5E9F769E1F3";
paths = (
{
closed = 1;
nodes = (
"226 -9 OFFCURVE",
"239 0 OFFCURVE",
"250 15 CURVE",
"173 69 OFFCURVE",
"116 138 OFFCURVE",
"116 262 CURVE SMOOTH",
"116 405 OFFCURVE",
"200 498 OFFCURVE",
"337 498 CURVE SMOOTH",
"423 498 OFFCURVE",
"506 450 OFFCURVE",
"506 371 CURVE SMOOTH",
"506 320 OFFCURVE",
"477 299 OFFCURVE",
"414 297 CURVE",
"414 229 LINE",
"462 226 OFFCURVE",
"504 198 OFFCURVE",
"504 141 CURVE SMOOTH",
"504 96 OFFCURVE",
"480 73 OFFCURVE",
"438 73 CURVE SMOOTH",
"380 73 OFFCURVE",
"335 116 OFFCURVE",
"335 237 CURVE SMOOTH",
"335 411 OFFCURVE",
"472 503 OFFCURVE",
"612 503 CURVE SMOOTH",
"741 503 OFFCURVE",
"788 435 OFFCURVE",
"788 324 CURVE SMOOTH",
"788 0 LINE",
"1001 0 LINE",
"1001 304 LINE SMOOTH",
"1001 417 OFFCURVE",
"1054 495 OFFCURVE",
"1150 495 CURVE SMOOTH",
"1272 495 OFFCURVE",
"1321 369 OFFCURVE",
"1321 237 CURVE SMOOTH",
"1321 130 OFFCURVE",
"1298 74 OFFCURVE",
"1243 74 CURVE SMOOTH",
"1187 74 OFFCURVE",
"1164 129 OFFCURVE",
"1164 212 CURVE SMOOTH",
"1164 332 OFFCURVE",
"1225 430 OFFCURVE",
"1305 489 CURVE",
"1245 532 LINE",
"1167 463 OFFCURVE",
"1086 368 OFFCURVE",
"1086 213 CURVE SMOOTH",
"1086 78 OFFCURVE",
"1145 -8 OFFCURVE",
"1293 -8 CURVE SMOOTH",
"1442 -8 OFFCURVE",
"1543 82 OFFCURVE",
"1543 246 CURVE SMOOTH",
"1543 438 OFFCURVE",
"1398 575 OFFCURVE",
"1188 575 CURVE SMOOTH",
"1058 575 OFFCURVE",
"964 507 OFFCURVE",
"908 409 CURVE",
"952 429 LINE",
"887 532 OFFCURVE",
"793 575 OFFCURVE",
"650 575 CURVE SMOOTH",
"414 575 OFFCURVE",
"257 422 OFFCURVE",
"257 237 CURVE SMOOTH",
"257 92 OFFCURVE",
"315 -8 OFFCURVE",
"480 -8 CURVE SMOOTH",
"640 -8 OFFCURVE",
"694 62 OFFCURVE",
"694 132 CURVE SMOOTH",
"694 198 OFFCURVE",
"650 244 OFFCURVE",
"584 261 CURVE",
"584 265 LINE",
"646 280 OFFCURVE",
"693 308 OFFCURVE",
"693 374 CURVE SMOOTH",
"693 440 OFFCURVE",
"646 492 OFFCURVE",
"562 521 CURVE",
"533 547 LINE",
"482 565 OFFCURVE",
"422 575 OFFCURVE",
"359 575 CURVE SMOOTH",
"170 575 OFFCURVE",
"38 460 OFFCURVE",
"38 258 CURVE SMOOTH",
"38 96 OFFCURVE",
"131 -9 OFFCURVE",
"201 -9 CURVE SMOOTH"
);
}
);
width = 1580;
}
);
leftMetricsKey = tamlym;
rightMetricsKey = ramlym;
unicode = 0D05;
},
{
glyphname = aamlym;
lastChange = "2019-06-05 08:30:18 +0000";
layers = (
{
layerId = UUID0;
paths = (
{
closed = 1;
nodes = (
"854 379 LINE",
"806 496 OFFCURVE",
"719 560 OFFCURVE",
"593 560 CURVE SMOOTH",
"406 560 OFFCURVE",
"266 422 OFFCURVE",
"266 244 CURVE SMOOTH",
"266 113 OFFCURVE",
"323 -6 OFFCURVE",
"481 -6 CURVE SMOOTH",
"584 -6 OFFCURVE",
"650 48 OFFCURVE",
"650 129 CURVE SMOOTH",
"650 200 OFFCURVE",
"594 244 OFFCURVE",
"537 255 CURVE",
"537 259 LINE",
"593 268 OFFCURVE",
"649 299 OFFCURVE",
"649 369 CURVE SMOOTH",
"649 440 OFFCURVE",
"598 489 OFFCURVE",
"533 512 CURVE",
"509 533 LINE",
"457 554 OFFCURVE",
"397 560 OFFCURVE",
"339 560 CURVE SMOOTH",
"169 560 OFFCURVE",
"42 443 OFFCURVE",
"42 256 CURVE SMOOTH",
"42 92 OFFCURVE",
"139 -6 OFFCURVE",
"202 -6 CURVE SMOOTH",
"216 -6 OFFCURVE",
"229 0 OFFCURVE",
"238 11 CURVE",
"159 61 OFFCURVE",
"101 136 OFFCURVE",
"101 254 CURVE SMOOTH",
"101 397 OFFCURVE",
"193 500 OFFCURVE",
"338 500 CURVE SMOOTH",
"457 500 OFFCURVE",
"557 460 OFFCURVE",
"557 366 CURVE SMOOTH",
"557 314 OFFCURVE",
"516 281 OFFCURVE",
"440 281 CURVE",
"440 233 LINE",
"504 233 OFFCURVE",
"555 208 OFFCURVE",
"555 136 CURVE SMOOTH",
"555 83 OFFCURVE",
"521 54 OFFCURVE",
"463 54 CURVE SMOOTH",
"384 54 OFFCURVE",
"324 117 OFFCURVE",
"324 235 CURVE SMOOTH",
"324 422 OFFCURVE",
"460 503 OFFCURVE",
"580 503 CURVE SMOOTH",
"712 503 OFFCURVE",
"768 405 OFFCURVE",
"768 294 CURVE SMOOTH",
"768 0 LINE",
"853 0 LINE",
"853 296 LINE"
);
},
{
closed = 1;
nodes = (
"1428 -170 OFFCURVE",
"1545 -61 OFFCURVE",
"1545 136 CURVE SMOOTH",
"1545 356 OFFCURVE",
"1406 445 OFFCURVE",
"1258 445 CURVE SMOOTH",
"1080 445 OFFCURVE",
"967 344 OFFCURVE",
"967 184 CURVE SMOOTH",
"967 78 OFFCURVE",
"1029 -6 OFFCURVE",
"1143 -6 CURVE SMOOTH",
"1274 -6 OFFCURVE",
"1343 107 OFFCURVE",
"1343 240 CURVE SMOOTH",
"1343 420 OFFCURVE",
"1226 560 OFFCURVE",
"1050 560 CURVE SMOOTH",
"940 560 OFFCURVE",
"853 491 OFFCURVE",
"817 401 CURVE",
"778 293 LINE",
"778 0 LINE",
"863 0 LINE",
"863 296 LINE SMOOTH",
"863 405 OFFCURVE",
"920 500 OFFCURVE",
"1042 500 CURVE SMOOTH",
"1182 500 OFFCURVE",
"1250 365 OFFCURVE",
"1250 229 CURVE SMOOTH",
"1250 101 OFFCURVE",
"1205 54 OFFCURVE",
"1135 54 CURVE SMOOTH",
"1078 54 OFFCURVE",
"1026 92 OFFCURVE",
"1026 189 CURVE SMOOTH",
"1026 318 OFFCURVE",
"1123 391 OFFCURVE",
"1237 391 CURVE SMOOTH",
"1368 391 OFFCURVE",
"1452 313 OFFCURVE",
"1452 140 CURVE SMOOTH",
"1452 -17 OFFCURVE",
"1368 -110 OFFCURVE",
"1217 -110 CURVE SMOOTH",
"1147 -110 OFFCURVE",
"1101 -95 OFFCURVE",
"1046 -70 CURVE",
"1043 -75 OFFCURVE",
"1041 -87 OFFCURVE",
"1041 -95 CURVE SMOOTH",
"1041 -124 OFFCURVE",
"1085 -170 OFFCURVE",
"1231 -170 CURVE SMOOTH"
);
}
);
width = 1583;
},
{
color = -1;
layerId = "D1B76089-C2CA-459D-9B35-7EF71253C59F";
paths = (
{
closed = 1;
nodes = (
"786 351 LINE",
"774 482 OFFCURVE",
"689 549 OFFCURVE",
"563 549 CURVE SMOOTH",
"406 549 OFFCURVE",
"278 413 OFFCURVE",
"278 235 CURVE SMOOTH",
"278 71 OFFCURVE",
"357 -6 OFFCURVE",
"465 -6 CURVE SMOOTH",
"554 -6 OFFCURVE",
"611 42 OFFCURVE",
"611 125 CURVE SMOOTH",
"611 213 OFFCURVE",
"553 242 OFFCURVE",
"500 254 CURVE",
"501 255 LINE",
"573 270 OFFCURVE",
"612 304 OFFCURVE",
"612 374 CURVE SMOOTH",
"612 441 OFFCURVE",
"572 494 OFFCURVE",
"488 520 CURVE",
"478 528 LINE",
"439 542 OFFCURVE",
"391 549 OFFCURVE",
"336 549 CURVE SMOOTH",
"202 549 OFFCURVE",
"48 459 OFFCURVE",
"48 256 CURVE SMOOTH",
"48 112 OFFCURVE",
"134 -6 OFFCURVE",
"183 -6 CURVE SMOOTH",
"192 -6 OFFCURVE",
"197 -4 OFFCURVE",
"202 1 CURVE",
"114 57 OFFCURVE",
"76 159 OFFCURVE",
"76 256 CURVE SMOOTH",
"76 446 OFFCURVE",
"215 524 OFFCURVE",
"334 524 CURVE SMOOTH",
"491 524 OFFCURVE",
"584 465 OFFCURVE",
"584 373 CURVE SMOOTH",
"584 304 OFFCURVE",
"528 269 OFFCURVE",
"440 267 CURVE",
"440 242 LINE",
"512 240 OFFCURVE",
"583 213 OFFCURVE",
"583 125 CURVE SMOOTH",
"583 46 OFFCURVE",
"524 19 OFFCURVE",
"465 19 CURVE SMOOTH",
"380 19 OFFCURVE",
"306 78 OFFCURVE",
"306 236 CURVE SMOOTH",
"306 399 OFFCURVE",
"415 524 OFFCURVE",
"563 524 CURVE SMOOTH",
"687 524 OFFCURVE",
"769 449 OFFCURVE",
"769 290 CURVE SMOOTH",
"769 0 LINE",
"786 0 LINE",
"786 300 LINE"
);
},
{
closed = 1;
nodes = (
"1339 -161 OFFCURVE",
"1457 -69 OFFCURVE",
"1457 138 CURVE SMOOTH",
"1457 341 OFFCURVE",
"1342 428 OFFCURVE",
"1194 428 CURVE SMOOTH",
"1041 428 OFFCURVE",
"936 326 OFFCURVE",
"936 181 CURVE SMOOTH",
"936 71 OFFCURVE",
"997 -6 OFFCURVE",
"1097 -6 CURVE SMOOTH",
"1210 -6 OFFCURVE",
"1270 83 OFFCURVE",
"1270 237 CURVE SMOOTH",
"1270 420 OFFCURVE",
"1154 549 OFFCURVE",
"1006 549 CURVE SMOOTH",
"884 549 OFFCURVE",
"794 487 OFFCURVE",
"779 354 CURVE",
"779 295 LINE",
"779 0 LINE",
"796 0 LINE",
"796 300 LINE SMOOTH",
"796 434 OFFCURVE",
"870 524 OFFCURVE",
"1007 524 CURVE SMOOTH",
"1144 524 OFFCURVE",
"1242 402 OFFCURVE",
"1242 237 CURVE SMOOTH",
"1242 100 OFFCURVE",
"1194 19 OFFCURVE",
"1097 19 CURVE SMOOTH",
"1014 19 OFFCURVE",
"964 82 OFFCURVE",
"964 181 CURVE SMOOTH",
"964 309 OFFCURVE",
"1052 403 OFFCURVE",
"1195 403 CURVE SMOOTH",
"1330 403 OFFCURVE",
"1429 324 OFFCURVE",
"1429 137 CURVE SMOOTH",
"1429 -49 OFFCURVE",
"1325 -136 OFFCURVE",
"1179 -136 CURVE SMOOTH",
"1102 -136 OFFCURVE",
"1050 -117 OFFCURVE",
"1009 -91 CURVE",
"1007 -95 OFFCURVE",
"1005 -99 OFFCURVE",
"1005 -104 CURVE SMOOTH",
"1005 -126 OFFCURVE",
"1068 -161 OFFCURVE",
"1179 -161 CURVE SMOOTH"
);
}
);
width = 1501;
},
{
layerId = "C0B026C4-A727-4B54-9AF4-B5E9F769E1F3";
paths = (
{
closed = 1;
nodes = (
"952 429 LINE",
"887 532 OFFCURVE",
"793 575 OFFCURVE",
"650 575 CURVE SMOOTH",
"414 575 OFFCURVE",
"257 422 OFFCURVE",
"257 237 CURVE SMOOTH",
"257 92 OFFCURVE",
"315 -8 OFFCURVE",
"480 -8 CURVE SMOOTH",
"640 -8 OFFCURVE",
"694 62 OFFCURVE",
"694 132 CURVE SMOOTH",
"694 198 OFFCURVE",
"650 244 OFFCURVE",
"584 261 CURVE",
"584 265 LINE",
"646 280 OFFCURVE",
"693 308 OFFCURVE",
"693 374 CURVE SMOOTH",
"693 440 OFFCURVE",
"646 492 OFFCURVE",
"562 521 CURVE",
"533 547 LINE",
"482 565 OFFCURVE",
"422 575 OFFCURVE",
"359 575 CURVE SMOOTH",
"170 575 OFFCURVE",
"38 460 OFFCURVE",
"38 258 CURVE SMOOTH",
"38 96 OFFCURVE",
"131 -9 OFFCURVE",
"201 -9 CURVE SMOOTH",
"226 -9 OFFCURVE",
"239 0 OFFCURVE",
"250 15 CURVE",
"173 69 OFFCURVE",
"116 138 OFFCURVE",
"116 262 CURVE SMOOTH",
"116 405 OFFCURVE",
"200 498 OFFCURVE",
"337 498 CURVE SMOOTH",
"423 498 OFFCURVE",
"506 450 OFFCURVE",
"506 371 CURVE SMOOTH",
"506 320 OFFCURVE",
"477 299 OFFCURVE",
"414 297 CURVE",
"414 229 LINE",
"462 226 OFFCURVE",
"504 198 OFFCURVE",
"504 141 CURVE SMOOTH",
"504 96 OFFCURVE",
"480 73 OFFCURVE",
"438 73 CURVE SMOOTH",
"380 73 OFFCURVE",
"335 116 OFFCURVE",
"335 237 CURVE SMOOTH",
"335 411 OFFCURVE",
"472 503 OFFCURVE",
"612 503 CURVE SMOOTH",
"741 503 OFFCURVE",
"788 435 OFFCURVE",
"788 324 CURVE SMOOTH",
"788 0 LINE",
"991 0 LINE",
"991 304 LINE"
);
},
{
closed = 1;
nodes = (
"1672 -177 OFFCURVE",
"1795 -51 OFFCURVE",
"1795 141 CURVE SMOOTH",
"1795 362 OFFCURVE",
"1614 457 OFFCURVE",
"1415 457 CURVE SMOOTH",
"1196 457 OFFCURVE",
"1074 345 OFFCURVE",
"1074 190 CURVE SMOOTH",
"1074 74 OFFCURVE",
"1138 -8 OFFCURVE",
"1270 -8 CURVE SMOOTH",
"1429 -8 OFFCURVE",
"1507 77 OFFCURVE",
"1507 238 CURVE SMOOTH",
"1507 440 OFFCURVE",
"1371 575 OFFCURVE",
"1183 575 CURVE SMOOTH",
"1059 575 OFFCURVE",
"966 507 OFFCURVE",
"908 409 CURVE",
"807 294 LINE",
"807 0 LINE",
"1001 0 LINE",
"1001 303 LINE SMOOTH",
"1001 417 OFFCURVE",
"1054 495 OFFCURVE",
"1145 495 CURVE SMOOTH",
"1257 495 OFFCURVE",
"1300 369 OFFCURVE",
"1300 237 CURVE SMOOTH",
"1300 123 OFFCURVE",
"1281 74 OFFCURVE",
"1223 74 CURVE SMOOTH",
"1181 74 OFFCURVE",
"1152 109 OFFCURVE",
"1152 195 CURVE SMOOTH",
"1152 328 OFFCURVE",
"1257 389 OFFCURVE",
"1366 389 CURVE SMOOTH",
"1522 389 OFFCURVE",
"1590 321 OFFCURVE",
"1590 149 CURVE SMOOTH",
"1590 -8 OFFCURVE",
"1510 -97 OFFCURVE",
"1390 -97 CURVE SMOOTH",
"1314 -97 OFFCURVE",
"1272 -82 OFFCURVE",
"1218 -54 CURVE",
"1212 -64 OFFCURVE",
"1208 -76 OFFCURVE",
"1208 -89 CURVE SMOOTH",
"1208 -138 OFFCURVE",
"1286 -177 OFFCURVE",
"1426 -177 CURVE SMOOTH"
);
}
);
width = 1829;
}
);
leftMetricsKey = namlym;
unicode = 0D06;
},
{
glyphname = imlym;
lastChange = "2019-06-05 08:30:18 +0000";
layers = (
{
layerId = UUID0;
paths = (
{
closed = 1;
nodes = (
"951 -197 LINE",
"951 -121 LINE",
"221 -121 LINE SMOOTH",
"147 -121 OFFCURVE",
"124 -95 OFFCURVE",
"124 -61 CURVE SMOOTH",
"124 -24 OFFCURVE",
"145 0 OFFCURVE",
"219 0 CURVE",
"626 0 LINE SMOOTH",
"841 0 OFFCURVE",
"962 95 OFFCURVE",
"962 305 CURVE SMOOTH",
"962 450 OFFCURVE",
"871 560 OFFCURVE",
"731 560 CURVE SMOOTH",
"652 560 OFFCURVE",
"587 528 OFFCURVE",
"540 435 CURVE",
"555 445 LINE",
"512 509 OFFCURVE",
"440 560 OFFCURVE",
"324 560 CURVE SMOOTH",
"161 560 OFFCURVE",
"44 457 OFFCURVE",
"44 302 CURVE SMOOTH",
"44 169 OFFCURVE",
"127 108 OFFCURVE",
"213 108 CURVE SMOOTH",
"316 108 OFFCURVE",
"380 161 OFFCURVE",
"380 255 CURVE SMOOTH",
"380 333 OFFCURVE",
"330 401 OFFCURVE",
"229 401 CURVE SMOOTH",
"169 401 OFFCURVE",
"115 361 OFFCURVE",
"82 307 CURVE",
"91 243 LINE",
"122 312 OFFCURVE",
"163 343 OFFCURVE",
"210 343 CURVE SMOOTH",
"259 343 OFFCURVE",
"291 304 OFFCURVE",
"291 254 CURVE SMOOTH",
"291 201 OFFCURVE",
"261 166 OFFCURVE",
"205 166 CURVE SMOOTH",
"159 166 OFFCURVE",
"96 205 OFFCURVE",
"96 304 CURVE SMOOTH",
"96 417 OFFCURVE",
"172 500 OFFCURVE",
"315 500 CURVE SMOOTH",
"411 500 OFFCURVE",
"491 445 OFFCURVE",
"491 316 CURVE SMOOTH",
"491 120 LINE",
"586 120 LINE",
"586 355 LINE SMOOTH",
"586 438 OFFCURVE",
"637 500 OFFCURVE",
"716 500 CURVE SMOOTH",
"805 500 OFFCURVE",
"862 425 OFFCURVE",
"862 305 CURVE SMOOTH",
"862 117 OFFCURVE",
"763 54 OFFCURVE",
"594 54 CURVE SMOOTH",
"212 54 LINE SMOOTH",
"115 54 OFFCURVE",
"51 14 OFFCURVE",
"51 -69 CURVE SMOOTH",
"51 -149 OFFCURVE",
"109 -197 OFFCURVE",
"230 -197 CURVE SMOOTH"
);
}
);
width = 1006;
},
{
color = -1;
layerId = "D1B76089-C2CA-459D-9B35-7EF71253C59F";
paths = (
{
closed = 1;
nodes = (
"852 -170 LINE",
"852 -145 LINE",
"195 -145 LINE SMOOTH",
"100 -145 OFFCURVE",
"81 -110 OFFCURVE",
"81 -72 CURVE SMOOTH",
"81 -29 OFFCURVE",
"108 0 OFFCURVE",
"194 0 CURVE SMOOTH",
"535 0 LINE SMOOTH",
"783 0 OFFCURVE",
"862 118 OFFCURVE",
"862 300 CURVE SMOOTH",
"862 435 OFFCURVE",
"805 549 OFFCURVE",
"664 549 CURVE SMOOTH",
"579 549 OFFCURVE",
"511 498 OFFCURVE",
"495 403 CURVE",
"503 389 LINE",
"485 467 OFFCURVE",
"429 549 OFFCURVE",
"303 549 CURVE SMOOTH",
"168 549 OFFCURVE",
"50 453 OFFCURVE",
"50 295 CURVE SMOOTH",
"50 164 OFFCURVE",
"128 102 OFFCURVE",
"216 102 CURVE SMOOTH",
"303 102 OFFCURVE",
"359 164 OFFCURVE",
"359 246 CURVE SMOOTH",
"359 335 OFFCURVE",
"292 381 OFFCURVE",
"226 381 CURVE SMOOTH",
"148 381 OFFCURVE",
"98 329 OFFCURVE",
"64 274 CURVE",
"69 242 LINE",
"108 305 OFFCURVE",
"150 356 OFFCURVE",
"224 356 CURVE SMOOTH",
"285 356 OFFCURVE",
"331 310 OFFCURVE",
"331 240 CURVE SMOOTH",
"331 180 OFFCURVE",
"289 127 OFFCURVE",
"216 127 CURVE SMOOTH",
"132 127 OFFCURVE",
"77 189 OFFCURVE",
"77 294 CURVE SMOOTH",
"77 451 OFFCURVE",
"193 524 OFFCURVE",
"306 524 CURVE SMOOTH",
"414 524 OFFCURVE",
"485 448 OFFCURVE",
"485 328 CURVE SMOOTH",
"485 114 LINE",
"512 114 LINE",
"512 357 LINE SMOOTH",
"512 457 OFFCURVE",
"574 524 OFFCURVE",
"664 524 CURVE SMOOTH",
"781 524 OFFCURVE",
"834 428 OFFCURVE",
"834 300 CURVE SMOOTH",
"834 137 OFFCURVE",
"772 25 OFFCURVE",
"530 25 CURVE SMOOTH",
"193 25 LINE SMOOTH",
"101 25 OFFCURVE",
"53 -8 OFFCURVE",
"53 -71 CURVE SMOOTH",
"53 -131 OFFCURVE",
"92 -170 OFFCURVE",
"193 -170 CURVE SMOOTH"
);
}
);
width = 912;
},
{
layerId = "C0B026C4-A727-4B54-9AF4-B5E9F769E1F3";
paths = (
{
closed = 1;
nodes = (
"1096 -201 LINE",
"1096 -93 LINE",
"232 -93 LINE SMOOTH",
"177 -93 OFFCURVE",
"150 -79 OFFCURVE",
"150 -47 CURVE SMOOTH",
"150 -8 OFFCURVE",
"185 0 OFFCURVE",
"229 0 CURVE SMOOTH",
"717 0 LINE SMOOTH",
"964 0 OFFCURVE",
"1107 62 OFFCURVE",
"1107 307 CURVE SMOOTH",
"1107 475 OFFCURVE",
"995 575 OFFCURVE",
"847 575 CURVE SMOOTH",
"710 575 OFFCURVE",
"616 481 OFFCURVE",
"581 382 CURVE",
"679 392 LINE",
"611 520 OFFCURVE",
"513 575 OFFCURVE",
"363 575 CURVE SMOOTH",
"194 575 OFFCURVE",
"40 472 OFFCURVE",
"40 314 CURVE SMOOTH",
"40 181 OFFCURVE",
"119 103 OFFCURVE",
"239 103 CURVE SMOOTH",
"369 103 OFFCURVE",
"427 169 OFFCURVE",
"427 259 CURVE SMOOTH",
"427 346 OFFCURVE",
"364 413 OFFCURVE",
"265 413 CURVE SMOOTH",
"196 413 OFFCURVE",
"143 381 OFFCURVE",
"106 334 CURVE",
"106 263 LINE",
"137 309 OFFCURVE",
"170 339 OFFCURVE",
"212 339 CURVE SMOOTH",
"261 339 OFFCURVE",
"273 293 OFFCURVE",
"273 256 CURVE SMOOTH",
"273 202 OFFCURVE",
"253 179 OFFCURVE",
"209 179 CURVE SMOOTH",
"154 179 OFFCURVE",
"113 226 OFFCURVE",
"113 309 CURVE SMOOTH",
"113 406 OFFCURVE",
"198 493 OFFCURVE",
"329 493 CURVE SMOOTH",
"410 493 OFFCURVE",
"487 453 OFFCURVE",
"487 316 CURVE SMOOTH",
"487 115 LINE",
"700 115 LINE",
"700 380 LINE SMOOTH",
"700 447 OFFCURVE",
"734 493 OFFCURVE",
"785 493 CURVE SMOOTH",
"861 493 OFFCURVE",
"887 397 OFFCURVE",
"887 313 CURVE SMOOTH",
"887 145 OFFCURVE",
"834 73 OFFCURVE",
"669 73 CURVE SMOOTH",
"225 73 LINE SMOOTH",
"118 73 OFFCURVE",
"49 28 OFFCURVE",
"49 -63 CURVE SMOOTH",
"49 -165 OFFCURVE",
"124 -201 OFFCURVE",
"247 -201 CURVE SMOOTH"
);
}
);
width = 1147;
}
);
unicode = 0D07;
},
{
glyphname = umlym;
lastChange = "2019-06-05 08:30:18 +0000";
layers = (
{
layerId = UUID0;
paths = (
{
closed = 1;
nodes = (
"618 -197 LINE",
"618 -121 LINE",
"222 -121 LINE SMOOTH",
"148 -121 OFFCURVE",
"125 -95 OFFCURVE",
"125 -61 CURVE SMOOTH",
"125 -24 OFFCURVE",
"146 0 OFFCURVE",
"220 0 CURVE SMOOTH",
"303 0 LINE SMOOTH",
"507 0 OFFCURVE",
"629 95 OFFCURVE",
"629 288 CURVE SMOOTH",
"629 444 OFFCURVE",
"513 560 OFFCURVE",
"327 560 CURVE SMOOTH",
"161 560 OFFCURVE",
"44 457 OFFCURVE",
"44 302 CURVE SMOOTH",
"44 169 OFFCURVE",
"127 108 OFFCURVE",
"213 108 CURVE SMOOTH",
"316 108 OFFCURVE",
"380 161 OFFCURVE",
"380 255 CURVE SMOOTH",
"380 333 OFFCURVE",
"330 401 OFFCURVE",
"229 401 CURVE SMOOTH",
"169 401 OFFCURVE",
"115 361 OFFCURVE",
"82 307 CURVE",
"91 243 LINE",
"122 312 OFFCURVE",
"163 343 OFFCURVE",
"210 343 CURVE SMOOTH",
"259 343 OFFCURVE",
"291 304 OFFCURVE",
"291 254 CURVE SMOOTH",
"291 201 OFFCURVE",
"261 166 OFFCURVE",
"205 166 CURVE SMOOTH",
"159 166 OFFCURVE",
"96 205 OFFCURVE",
"96 304 CURVE SMOOTH",
"96 417 OFFCURVE",
"172 500 OFFCURVE",
"315 500 CURVE SMOOTH",
"442 500 OFFCURVE",
"529 421 OFFCURVE",
"529 284 CURVE SMOOTH",
"529 117 OFFCURVE",
"430 54 OFFCURVE",
"276 54 CURVE SMOOTH",
"213 54 LINE SMOOTH",
"116 54 OFFCURVE",
"52 14 OFFCURVE",
"52 -69 CURVE SMOOTH",
"52 -149 OFFCURVE",
"110 -197 OFFCURVE",
"231 -197 CURVE SMOOTH"
);
}
);
width = 671;
},
{
color = -1;
layerId = "D1B76089-C2CA-459D-9B35-7EF71253C59F";
paths = (
{
closed = 1;
nodes = (
"556 -170 LINE",
"556 -145 LINE",
"195 -145 LINE SMOOTH",
"100 -145 OFFCURVE",
"81 -110 OFFCURVE",
"81 -72 CURVE SMOOTH",
"81 -29 OFFCURVE",
"108 0 OFFCURVE",
"194 0 CURVE SMOOTH",
"251 0 LINE SMOOTH",
"488 0 OFFCURVE",
"566 118 OFFCURVE",
"566 280 CURVE SMOOTH",
"566 440 OFFCURVE",
"478 549 OFFCURVE",
"312 549 CURVE SMOOTH",
"164 549 OFFCURVE",
"50 453 OFFCURVE",
"50 295 CURVE SMOOTH",
"50 164 OFFCURVE",
"128 102 OFFCURVE",
"216 102 CURVE SMOOTH",
"303 102 OFFCURVE",
"359 164 OFFCURVE",
"359 246 CURVE SMOOTH",
"359 334 OFFCURVE",
"292 381 OFFCURVE",
"226 381 CURVE SMOOTH",
"148 381 OFFCURVE",
"98 329 OFFCURVE",
"64 274 CURVE",
"69 242 LINE",
"108 305 OFFCURVE",
"150 356 OFFCURVE",
"224 356 CURVE SMOOTH",
"285 356 OFFCURVE",
"331 310 OFFCURVE",
"331 240 CURVE SMOOTH",
"331 181 OFFCURVE",
"289 127 OFFCURVE",
"216 127 CURVE SMOOTH",
"132 127 OFFCURVE",
"77 189 OFFCURVE",
"77 294 CURVE SMOOTH",
"77 451 OFFCURVE",
"191 524 OFFCURVE",
"312 524 CURVE SMOOTH",
"458 524 OFFCURVE",
"538 429 OFFCURVE",
"538 280 CURVE SMOOTH",
"538 137 OFFCURVE",
"476 25 OFFCURVE",
"248 25 CURVE SMOOTH",
"193 25 LINE SMOOTH",
"101 25 OFFCURVE",
"53 -8 OFFCURVE",
"53 -71 CURVE SMOOTH",
"53 -131 OFFCURVE",
"92 -170 OFFCURVE",
"193 -170 CURVE SMOOTH"
);
}
);
width = 614;
},
{
layerId = "C0B026C4-A727-4B54-9AF4-B5E9F769E1F3";
paths = (
{
closed = 1;
nodes = (
"720 -201 LINE",
"720 -93 LINE",
"232 -93 LINE SMOOTH",
"177 -93 OFFCURVE",
"150 -79 OFFCURVE",
"150 -47 CURVE SMOOTH",
"150 -8 OFFCURVE",
"185 0 OFFCURVE",
"229 0 CURVE SMOOTH",
"340 0 LINE SMOOTH",
"586 0 OFFCURVE",
"731 81 OFFCURVE",
"731 294 CURVE SMOOTH",
"731 468 OFFCURVE",
"595 575 OFFCURVE",
"382 575 CURVE SMOOTH",
"186 575 OFFCURVE",
"40 472 OFFCURVE",
"40 314 CURVE SMOOTH",
"40 181 OFFCURVE",
"119 103 OFFCURVE",
"239 103 CURVE SMOOTH",
"369 103 OFFCURVE",
"427 169 OFFCURVE",
"427 259 CURVE SMOOTH",
"427 346 OFFCURVE",
"364 413 OFFCURVE",
"265 413 CURVE SMOOTH",
"196 413 OFFCURVE",
"143 381 OFFCURVE",
"106 334 CURVE",
"106 263 LINE",
"137 309 OFFCURVE",
"170 339 OFFCURVE",
"212 339 CURVE SMOOTH",
"261 339 OFFCURVE",
"273 293 OFFCURVE",
"273 256 CURVE SMOOTH",
"273 202 OFFCURVE",
"253 179 OFFCURVE",
"209 179 CURVE SMOOTH",
"154 179 OFFCURVE",
"113 226 OFFCURVE",
"113 309 CURVE SMOOTH",
"113 406 OFFCURVE",
"195 493 OFFCURVE",
"331 493 CURVE SMOOTH",
"434 493 OFFCURVE",
"509 427 OFFCURVE",
"509 289 CURVE SMOOTH",
"509 138 OFFCURVE",
"432 73 OFFCURVE",
"292 73 CURVE SMOOTH",
"225 73 LINE SMOOTH",
"118 73 OFFCURVE",
"49 28 OFFCURVE",
"49 -63 CURVE SMOOTH",
"49 -165 OFFCURVE",
"124 -201 OFFCURVE",
"247 -201 CURVE SMOOTH"
);
}
);
width = 769;
}
);
leftMetricsKey = imlym;
unicode = 0D09;
},
{
glyphname = rvocalicmlym;
lastChange = "2019-06-05 08:30:18 +0000";
layers = (
{
layerId = UUID0;
paths = (
{
closed = 1;
nodes = (
"590 89 OFFCURVE",
"768 150 OFFCURVE",
"768 363 CURVE SMOOTH",
"768 504 OFFCURVE",
"680 560 OFFCURVE",
"594 560 CURVE SMOOTH",
"513 560 OFFCURVE",
"436 507 OFFCURVE",
"436 413 CURVE SMOOTH",
"436 335 OFFCURVE",
"489 268 OFFCURVE",
"583 268 CURVE SMOOTH",
"652 268 OFFCURVE",
"704 301 OFFCURVE",
"730 342 CURVE",
"724 409 LINE",
"699 355 OFFCURVE",
"664 324 OFFCURVE",
"606 324 CURVE SMOOTH",
"552 324 OFFCURVE",
"522 365 OFFCURVE",
"522 414 CURVE SMOOTH",
"522 464 OFFCURVE",
"550 504 OFFCURVE",
"604 504 CURVE SMOOTH",
"656 504 OFFCURVE",
"714 466 OFFCURVE",
"714 358 CURVE SMOOTH",
"714 211 OFFCURVE",
"592 136 OFFCURVE",
"400 136 CURVE SMOOTH",
"216 136 OFFCURVE",
"86 210 OFFCURVE",
"86 355 CURVE SMOOTH",
"86 467 OFFCURVE",
"148 504 OFFCURVE",
"196 504 CURVE SMOOTH",
"250 504 OFFCURVE",
"279 464 OFFCURVE",
"279 414 CURVE SMOOTH",
"279 365 OFFCURVE",
"250 324 OFFCURVE",
"195 324 CURVE SMOOTH",
"135 324 OFFCURVE",
"101 360 OFFCURVE",
"72 418 CURVE",
"62 351 LINE",
"88 305 OFFCURVE",
"141 268 OFFCURVE",
"217 268 CURVE SMOOTH",
"311 268 OFFCURVE",
"365 335 OFFCURVE",
"365 413 CURVE SMOOTH",
"365 507 OFFCURVE",
"291 560 OFFCURVE",
"211 560 CURVE SMOOTH",
"119 560 OFFCURVE",
"32 496 OFFCURVE",
"32 362 CURVE SMOOTH",
"32 144 OFFCURVE",
"226 89 OFFCURVE",
"402 89 CURVE SMOOTH"
);
},
{
closed = 1;
nodes = (
"640 -207 OFFCURVE",
"729 -139 OFFCURVE",
"729 -36 CURVE SMOOTH",
"729 60 OFFCURVE",
"640 126 OFFCURVE",
"396 126 CURVE SMOOTH",
"150 126 OFFCURVE",
"64 58 OFFCURVE",
"64 -36 CURVE SMOOTH",
"64 -139 OFFCURVE",
"160 -207 OFFCURVE",
"396 -207 CURVE SMOOTH"
);
},
{
closed = 1;
nodes = (
"209 -153 OFFCURVE",
"153 -107 OFFCURVE",
"153 -37 CURVE SMOOTH",
"153 39 OFFCURVE",
"213 84 OFFCURVE",
"396 84 CURVE SMOOTH",
"591 84 OFFCURVE",
"640 36 OFFCURVE",
"640 -37 CURVE SMOOTH",
"640 -107 OFFCURVE",
"582 -153 OFFCURVE",
"396 -153 CURVE SMOOTH"
);
}
);
width = 800;
},
{
color = -1;
layerId = "D1B76089-C2CA-459D-9B35-7EF71253C59F";
paths = (
{
closed = 1;
nodes = (
"593 105 OFFCURVE",
"713 177 OFFCURVE",
"713 353 CURVE SMOOTH",
"713 492 OFFCURVE",
"635 549 OFFCURVE",
"559 549 CURVE SMOOTH",
"479 549 OFFCURVE",
"425 491 OFFCURVE",
"425 412 CURVE SMOOTH",
"425 332 OFFCURVE",
"479 282 OFFCURVE",
"555 282 CURVE SMOOTH",
"608 282 OFFCURVE",
"663 301 OFFCURVE",
"697 368 CURVE",
"693 400 LINE",
"664 340 OFFCURVE",
"618 307 OFFCURVE",
"556 307 CURVE SMOOTH",
"494 307 OFFCURVE",
"453 346 OFFCURVE",
"453 412 CURVE SMOOTH",
"453 470 OFFCURVE",
"487 524 OFFCURVE",
"559 524 CURVE SMOOTH",
"630 524 OFFCURVE",
"687 470 OFFCURVE",
"687 353 CURVE SMOOTH",
"687 182 OFFCURVE",
"555 125 OFFCURVE",
"374 125 CURVE SMOOTH",
"196 125 OFFCURVE",
"64 184 OFFCURVE",
"64 353 CURVE SMOOTH",
"64 468 OFFCURVE",
"121 524 OFFCURVE",
"192 524 CURVE SMOOTH",
"264 524 OFFCURVE",
"298 470 OFFCURVE",
"298 412 CURVE SMOOTH",
"298 346 OFFCURVE",
"257 307 OFFCURVE",
"195 307 CURVE SMOOTH",
"133 307 OFFCURVE",
"87 340 OFFCURVE",
"58 400 CURVE",
"54 368 LINE",
"86 303 OFFCURVE",
"143 282 OFFCURVE",
"196 282 CURVE SMOOTH",
"272 282 OFFCURVE",
"326 332 OFFCURVE",
"326 412 CURVE SMOOTH",
"326 491 OFFCURVE",
"272 549 OFFCURVE",
"192 549 CURVE SMOOTH",
"116 549 OFFCURVE",
"38 490 OFFCURVE",
"38 353 CURVE SMOOTH",
"38 182 OFFCURVE",
"158 105 OFFCURVE",
"374 105 CURVE SMOOTH"
);
},
{
closed = 1;
nodes = (
"611 -186 OFFCURVE",
"681 -124 OFFCURVE",
"681 -30 CURVE SMOOTH",
"681 69 OFFCURVE",
"599 120 OFFCURVE",
"372 120 CURVE SMOOTH",
"149 120 OFFCURVE",
"67 69 OFFCURVE",
"67 -30 CURVE SMOOTH",
"67 -124 OFFCURVE",
"137 -186 OFFCURVE",
"375 -186 CURVE SMOOTH"
);
},
{
closed = 1;
nodes = (
"171 -161 OFFCURVE",
"95 -117 OFFCURVE",
"95 -30 CURVE SMOOTH",
"95 63 OFFCURVE",
"190 101 OFFCURVE",
"373 101 CURVE SMOOTH",
"558 101 OFFCURVE",
"653 63 OFFCURVE",
"653 -30 CURVE SMOOTH",
"653 -117 OFFCURVE",
"577 -161 OFFCURVE",
"375 -161 CURVE SMOOTH"
);
}
);
width = 751;
},
{
layerId = "C0B026C4-A727-4B54-9AF4-B5E9F769E1F3";
paths = (
{
closed = 1;
nodes = (
"633 84 OFFCURVE",
"840 134 OFFCURVE",
"840 368 CURVE SMOOTH",
"840 504 OFFCURVE",
"747 575 OFFCURVE",
"636 575 CURVE SMOOTH",
"534 575 OFFCURVE",
"457 518 OFFCURVE",
"457 412 CURVE SMOOTH",
"457 329 OFFCURVE",
"503 262 OFFCURVE",
"628 262 CURVE SMOOTH",
"727 262 OFFCURVE",
"764 305 OFFCURVE",
"800 348 CURVE",
"785 425 LINE",
"757 371 OFFCURVE",
"722 339 OFFCURVE",
"674 339 CURVE SMOOTH",
"635 339 OFFCURVE",
"611 364 OFFCURVE",
"611 418 CURVE SMOOTH",
"611 465 OFFCURVE",
"632 499 OFFCURVE",
"672 499 CURVE SMOOTH",
"712 499 OFFCURVE",
"764 466 OFFCURVE",
"764 358 CURVE SMOOTH",
"764 212 OFFCURVE",
"614 146 OFFCURVE",
"438 146 CURVE SMOOTH",
"223 146 OFFCURVE",
"106 212 OFFCURVE",
"106 360 CURVE SMOOTH",
"106 466 OFFCURVE",
"158 499 OFFCURVE",
"198 499 CURVE SMOOTH",
"238 499 OFFCURVE",
"259 465 OFFCURVE",
"259 418 CURVE SMOOTH",
"259 364 OFFCURVE",
"235 339 OFFCURVE",
"196 339 CURVE SMOOTH",
"148 339 OFFCURVE",
"113 371 OFFCURVE",
"85 425 CURVE",
"70 348 LINE",
"106 305 OFFCURVE",
"143 262 OFFCURVE",
"242 262 CURVE SMOOTH",
"367 262 OFFCURVE",
"413 335 OFFCURVE",
"413 412 CURVE SMOOTH",
"413 518 OFFCURVE",
"336 575 OFFCURVE",
"234 575 CURVE SMOOTH",
"123 575 OFFCURVE",
"30 504 OFFCURVE",
"30 362 CURVE SMOOTH",
"30 134 OFFCURVE",
"227 84 OFFCURVE",
"417 84 CURVE SMOOTH"
);
},
{
closed = 1;
nodes = (
"710 -214 OFFCURVE",
"804 -141 OFFCURVE",
"804 -31 CURVE SMOOTH",
"804 69 OFFCURVE",
"716 137 OFFCURVE",
"426 137 CURVE SMOOTH",
"148 137 OFFCURVE",
"60 68 OFFCURVE",
"60 -31 CURVE SMOOTH",
"60 -141 OFFCURVE",
"154 -214 OFFCURVE",
"433 -214 CURVE SMOOTH"
);
},
{
closed = 1;
nodes = (
"276 -142 OFFCURVE",
"219 -101 OFFCURVE",
"219 -31 CURVE SMOOTH",
"219 38 OFFCURVE",
"284 76 OFFCURVE",
"433 76 CURVE SMOOTH",
"581 76 OFFCURVE",
"646 38 OFFCURVE",
"646 -31 CURVE SMOOTH",
"646 -101 OFFCURVE",
"589 -142 OFFCURVE",
"433 -142 CURVE SMOOTH"
);
}
);
width = 870;
}
);
rightMetricsKey = "=|rvocalicmlym";
unicode = 0D0B;
},
{
glyphname = lvocalicmlym;
lastChange = "2019-06-05 08:30:18 +0000";
layers = (
{
layerId = UUID0;
paths = (
{
closed = 1;
nodes = (
"359 -6 OFFCURVE",
"422 64 OFFCURVE",
"422 159 CURVE SMOOTH",
"422 252 OFFCURVE",
"356 322 OFFCURVE",
"259 322 CURVE SMOOTH",
"185 322 OFFCURVE",
"127 276 OFFCURVE",
"90 213 CURVE",
"99 152 LINE",
"128 209 OFFCURVE",
"175 261 OFFCURVE",
"235 261 CURVE SMOOTH",
"288 261 OFFCURVE",
"331 225 OFFCURVE",
"331 159 CURVE SMOOTH",
"331 100 OFFCURVE",
"298 54 OFFCURVE",
"234 54 CURVE SMOOTH",
"173 54 OFFCURVE",
"97 116 OFFCURVE",
"97 250 CURVE SMOOTH",
"97 417 OFFCURVE",
"213 500 OFFCURVE",
"329 500 CURVE SMOOTH",
"445 500 OFFCURVE",
"524 428 OFFCURVE",
"524 292 CURVE SMOOTH",
"524 0 LINE",
"609 0 LINE",
"609 361 LINE",
"593 423 LINE",
"538 523 OFFCURVE",
"437 560 OFFCURVE",
"341 560 CURVE SMOOTH",
"190 560 OFFCURVE",
"42 457 OFFCURVE",
"42 251 CURVE SMOOTH",
"42 123 OFFCURVE",
"111 -6 OFFCURVE",
"252 -6 CURVE SMOOTH"
);
},
{
closed = 1;
nodes = (
"534 0 LINE",
"619 0 LINE",
"619 296 LINE SMOOTH",
"619 405 OFFCURVE",
"676 500 OFFCURVE",
"802 500 CURVE SMOOTH",
"943 500 OFFCURVE",
"1014 365 OFFCURVE",
"1014 232 CURVE SMOOTH",
"1014 95 OFFCURVE",
"964 54 OFFCURVE",
"902 54 CURVE SMOOTH",
"836 54 OFFCURVE",
"791 105 OFFCURVE",
"791 199 CURVE SMOOTH",
"791 307 OFFCURVE",
"841 412 OFFCURVE",
"929 484 CURVE",
"896 523 LINE",
"796 439 OFFCURVE",
"733 334 OFFCURVE",
"733 204 CURVE SMOOTH",
"733 80 OFFCURVE",
"796 -6 OFFCURVE",
"912 -6 CURVE SMOOTH",
"1040 -6 OFFCURVE",
"1111 106 OFFCURVE",
"1111 234 CURVE SMOOTH",
"1111 420 OFFCURVE",
"990 560 OFFCURVE",
"813 560 CURVE SMOOTH",
"696 560 OFFCURVE",
"608 491 OFFCURVE",
"573 401 CURVE",
"534 294 LINE"
);
}
);
width = 1153;
},
{
color = -1;
layerId = "D1B76089-C2CA-459D-9B35-7EF71253C59F";
paths = (
{
closed = 1;
nodes = (
"329 -6 OFFCURVE",
"388 60 OFFCURVE",
"388 143 CURVE SMOOTH",
"388 235 OFFCURVE",
"329 295 OFFCURVE",
"247 295 CURVE SMOOTH",
"161 295 OFFCURVE",
"105 237 OFFCURVE",
"72 182 CURVE",
"81 154 LINE",
"124 227 OFFCURVE",
"177 270 OFFCURVE",
"245 270 CURVE SMOOTH",
"308 270 OFFCURVE",
"360 227 OFFCURVE",
"360 143 CURVE SMOOTH",
"360 65 OFFCURVE",
"301 19 OFFCURVE",
"237 19 CURVE SMOOTH",
"128 19 OFFCURVE",
"75 129 OFFCURVE",
"75 261 CURVE SMOOTH",
"75 416 OFFCURVE",
"184 524 OFFCURVE",
"318 524 CURVE SMOOTH",
"447 524 OFFCURVE",
"522 448 OFFCURVE",
"522 320 CURVE SMOOTH",
"522 0 LINE",
"539 0 LINE",
"539 354 LINE",
"540 384 LINE",
"517 481 OFFCURVE",
"448 549 OFFCURVE",
"318 549 CURVE",
"169 549 OFFCURVE",
"48 431 OFFCURVE",
"48 261 CURVE SMOOTH",
"48 100 OFFCURVE",
"119 -6 OFFCURVE",
"237 -6 CURVE SMOOTH"
);
},
{
closed = 1;
nodes = (
"532 0 LINE",
"549 0 LINE",
"549 300 LINE SMOOTH",
"549 434 OFFCURVE",
"623 524 OFFCURVE",
"764 524 CURVE SMOOTH",
"909 524 OFFCURVE",
"1010 406 OFFCURVE",
"1010 237 CURVE SMOOTH",
"1010 106 OFFCURVE",
"962 19 OFFCURVE",
"868 19 CURVE SMOOTH",
"792 19 OFFCURVE",
"737 92 OFFCURVE",
"737 206 CURVE SMOOTH",
"737 340 OFFCURVE",
"805 441 OFFCURVE",
"887 498 CURVE",
"869 516 LINE",
"777 453 OFFCURVE",
"709 343 OFFCURVE",
"709 206 CURVE SMOOTH",
"709 88 OFFCURVE",
"768 -6 OFFCURVE",
"868 -6 CURVE SMOOTH",
"979 -6 OFFCURVE",
"1038 90 OFFCURVE",
"1038 237 CURVE SMOOTH",
"1038 421 OFFCURVE",
"923 549 OFFCURVE",
"763 549 CURVE SMOOTH",
"637 549 OFFCURVE",
"547 487 OFFCURVE",
"532 355 CURVE",
"532 290 LINE"
);
}
);
width = 1086;
},
{
layerId = "C0B026C4-A727-4B54-9AF4-B5E9F769E1F3";
paths = (
{
closed = 1;
nodes = (
"389 -8 OFFCURVE",
"447 62 OFFCURVE",
"447 163 CURVE SMOOTH",
"447 250 OFFCURVE",
"395 330 OFFCURVE",
"270 330 CURVE SMOOTH",
"175 330 OFFCURVE",
"116 273 OFFCURVE",
"79 215 CURVE",
"94 148 LINE",
"123 205 OFFCURVE",
"165 253 OFFCURVE",
"220 253 CURVE SMOOTH",
"268 253 OFFCURVE",
"288 216 OFFCURVE",
"288 160 CURVE SMOOTH",
"288 97 OFFCURVE",
"266 69 OFFCURVE",
"218 69 CURVE SMOOTH",
"176 69 OFFCURVE",
"112 115 OFFCURVE",
"112 248 CURVE SMOOTH",
"112 410 OFFCURVE",
"228 494 OFFCURVE",
"349 494 CURVE SMOOTH",
"452 494 OFFCURVE",
"507 432 OFFCURVE",
"507 307 CURVE SMOOTH",
"507 0 LINE",
"710 0 LINE",
"710 373 LINE",
"677 434 LINE",
"605 535 OFFCURVE",
"518 575 OFFCURVE",
"382 575 CURVE SMOOTH",
"194 575 OFFCURVE",
"38 459 OFFCURVE",
"38 254 CURVE SMOOTH",
"38 104 OFFCURVE",
"110 -8 OFFCURVE",
"250 -8 CURVE SMOOTH"
);
},
{
closed = 1;
nodes = (
"517 0 LINE",
"720 0 LINE",
"720 304 LINE SMOOTH",
"720 417 OFFCURVE",
"773 498 OFFCURVE",
"869 498 CURVE SMOOTH",
"991 498 OFFCURVE",
"1040 369 OFFCURVE",
"1040 237 CURVE SMOOTH",
"1040 130 OFFCURVE",
"1017 74 OFFCURVE",
"962 74 CURVE SMOOTH",
"906 74 OFFCURVE",
"883 129 OFFCURVE",
"883 212 CURVE SMOOTH",
"883 332 OFFCURVE",
"944 430 OFFCURVE",
"1024 489 CURVE",
"964 532 LINE",
"886 463 OFFCURVE",
"805 368 OFFCURVE",
"805 213 CURVE SMOOTH",
"805 79 OFFCURVE",
"864 -8 OFFCURVE",
"1012 -8 CURVE SMOOTH",
"1161 -8 OFFCURVE",
"1262 82 OFFCURVE",
"1262 246 CURVE SMOOTH",
"1262 438 OFFCURVE",
"1117 575 OFFCURVE",
"907 575 CURVE SMOOTH",
"777 575 OFFCURVE",
"684 510 OFFCURVE",
"622 408 CURVE",
"517 324 LINE"
);
}
);
width = 1299;
}
);
leftMetricsKey = nnamlym;
rightMetricsKey = ramlym;
unicode = 0D0C;
},
{
glyphname = emlym;
lastChange = "2019-06-05 08:30:18 +0000";
layers = (
{
layerId = UUID0;
paths = (
{
closed = 1;
nodes = (
"165 -6 OFFCURVE",
"172 0 OFFCURVE",
"180 14 CURVE",
"137 42 OFFCURVE",
"91 91 OFFCURVE",
"91 167 CURVE SMOOTH",
"91 239 OFFCURVE",
"137 299 OFFCURVE",
"216 299 CURVE SMOOTH",
"287 299 OFFCURVE",
"333 245 OFFCURVE",
"333 177 CURVE SMOOTH",
"333 90 OFFCURVE",
"283 41 OFFCURVE",
"255 17 CURVE",
"265 0 LINE",
"851 0 LINE",
"851 54 LINE",
"367 54 LINE",
"406 88 OFFCURVE",
"424 137 OFFCURVE",
"424 182 CURVE SMOOTH",
"424 292 OFFCURVE",
"334 359 OFFCURVE",
"228 359 CURVE SMOOTH",
"118 359 OFFCURVE",
"34 283 OFFCURVE",
"34 167 CURVE SMOOTH",
"34 68 OFFCURVE",
"98 -6 OFFCURVE",
"148 -6 CURVE SMOOTH"
);
},
{
closed = 1;
nodes = (
"1157 -230 OFFCURVE",
"1261 -81 OFFCURVE",
"1261 139 CURVE SMOOTH",
"1261 351 OFFCURVE",
"1163 560 OFFCURVE",
"894 560 CURVE SMOOTH",
"713 560 OFFCURVE",
"539 410 OFFCURVE",
"539 122 CURVE SMOOTH",
"539 -58 OFFCURVE",
"610 -228 OFFCURVE",
"781 -228 CURVE SMOOTH",
"872 -228 OFFCURVE",
"923 -182 OFFCURVE",
"923 -81 CURVE SMOOTH",
"923 418 LINE",
"828 418 LINE",
"828 -87 LINE SMOOTH",
"828 -141 OFFCURVE",
"810 -162 OFFCURVE",
"770 -162 CURVE SMOOTH",
"652 -162 OFFCURVE",
"599 -46 OFFCURVE",
"599 119 CURVE SMOOTH",
"599 369 OFFCURVE",
"739 498 OFFCURVE",
"894 498 CURVE SMOOTH",
"1073 498 OFFCURVE",
"1163 329 OFFCURVE",
"1163 141 CURVE SMOOTH",
"1163 -15 OFFCURVE",
"1114 -145 OFFCURVE",
"1016 -223 CURVE",
"1027 -227 OFFCURVE",
"1039 -230 OFFCURVE",
"1051 -230 CURVE SMOOTH"
);
}
);
width = 1305;
},
{
color = -1;
layerId = "D1B76089-C2CA-459D-9B35-7EF71253C59F";
paths = (
{
closed = 1;
nodes = (
"159 -4 OFFCURVE",
"163 0 OFFCURVE",
"166 6 CURVE",
"116 34 OFFCURVE",
"68 76 OFFCURVE",
"68 164 CURVE SMOOTH",
"68 241 OFFCURVE",
"128 301 OFFCURVE",
"208 301 CURVE SMOOTH",
"289 301 OFFCURVE",
"339 241 OFFCURVE",
"339 167 CURVE SMOOTH",
"339 90 OFFCURVE",
"296 45 OFFCURVE",
"257 12 CURVE",
"264 0 LINE",
"821 0 LINE",
"821 25 LINE",
"304 25 LINE",
"339 56 OFFCURVE",
"367 104 OFFCURVE",
"367 167 CURVE SMOOTH",
"367 268 OFFCURVE",
"292 326 OFFCURVE",
"208 326 CURVE SMOOTH",
"125 326 OFFCURVE",
"40 268 OFFCURVE",
"40 164 CURVE SMOOTH",
"40 52 OFFCURVE",
"121 -4 OFFCURVE",
"148 -4 CURVE SMOOTH"
);
},
{
closed = 1;
nodes = (
"1033 -230 OFFCURVE",
"1153 -118 OFFCURVE",
"1153 139 CURVE SMOOTH",
"1153 397 OFFCURVE",
"1031 549 OFFCURVE",
"843 549 CURVE SMOOTH",
"657 549 OFFCURVE",
"511 409 OFFCURVE",
"511 131 CURVE SMOOTH",
"511 -83 OFFCURVE",
"585 -228 OFFCURVE",
"716 -228 CURVE SMOOTH",
"806 -228 OFFCURVE",
"838 -170 OFFCURVE",
"838 -83 CURVE SMOOTH",
"838 418 LINE",
"811 418 LINE",
"811 -84 LINE SMOOTH",
"811 -151 OFFCURVE",
"789 -203 OFFCURVE",
"716 -203 CURVE SMOOTH",
"611 -203 OFFCURVE",
"539 -81 OFFCURVE",
"539 131 CURVE SMOOTH",
"539 399 OFFCURVE",
"680 524 OFFCURVE",
"843 524 CURVE SMOOTH",
"1005 524 OFFCURVE",
"1124 388 OFFCURVE",
"1124 139 CURVE SMOOTH",
"1124 -22 OFFCURVE",
"1072 -157 OFFCURVE",
"980 -225 CURVE",
"985 -228 OFFCURVE",
"992 -230 OFFCURVE",
"999 -230 CURVE SMOOTH"
);
}
);
width = 1203;
},
{
layerId = "C0B026C4-A727-4B54-9AF4-B5E9F769E1F3";
paths = (
{
closed = 1;
nodes = (
"169 -6 OFFCURVE",
"175 0 OFFCURVE",
"183 16 CURVE",
"140 44 OFFCURVE",
"105 91 OFFCURVE",
"105 167 CURVE SMOOTH",
"105 239 OFFCURVE",
"146 288 OFFCURVE",
"206 288 CURVE SMOOTH",
"264 288 OFFCURVE",
"298 247 OFFCURVE",
"298 173 CURVE SMOOTH",
"298 99 OFFCURVE",
"276 57 OFFCURVE",
"243 17 CURVE",
"253 0 LINE",
"890 0 LINE",
"890 73 LINE",
"452 73 LINE",
"480 101 OFFCURVE",
"492 143 OFFCURVE",
"492 185 CURVE SMOOTH",
"492 285 OFFCURVE",
"400 364 OFFCURVE",
"255 364 CURVE SMOOTH",
"106 364 OFFCURVE",
"28 280 OFFCURVE",
"28 167 CURVE SMOOTH",
"28 68 OFFCURVE",
"90 -6 OFFCURVE",
"144 -6 CURVE SMOOTH"
);
},
{
closed = 1;
nodes = (
"1298 -230 OFFCURVE",
"1419 -99 OFFCURVE",
"1419 150 CURVE SMOOTH",
"1419 348 OFFCURVE",
"1315 575 OFFCURVE",
"998 575 CURVE SMOOTH",
"755 575 OFFCURVE",
"589 418 OFFCURVE",
"589 122 CURVE SMOOTH",
"589 -88 OFFCURVE",
"658 -228 OFFCURVE",
"840 -228 CURVE SMOOTH",
"955 -228 OFFCURVE",
"1039 -177 OFFCURVE",
"1039 -54 CURVE SMOOTH",
"1039 404 LINE",
"824 404 LINE",
"824 -84 LINE SMOOTH",
"824 -124 OFFCURVE",
"820 -143 OFFCURVE",
"785 -143 CURVE SMOOTH",
"714 -143 OFFCURVE",
"667 -53 OFFCURVE",
"667 119 CURVE SMOOTH",
"667 347 OFFCURVE",
"772 494 OFFCURVE",
"952 494 CURVE SMOOTH",
"1137 494 OFFCURVE",
"1204 325 OFFCURVE",
"1204 141 CURVE SMOOTH",
"1204 -15 OFFCURVE",
"1174 -136 OFFCURVE",
"1076 -214 CURVE",
"1087 -222 OFFCURVE",
"1103 -230 OFFCURVE",
"1137 -230 CURVE SMOOTH"
);
}
);
width = 1455;
}
);
leftMetricsKey = pamlym;
unicode = 0D0E;
},
{
glyphname = eemlym;
lastChange = "2019-06-05 08:30:18 +0000";
layers = (
{
layerId = UUID0;
paths = (
{
closed = 1;
nodes = (
"872 -228 OFFCURVE",
"923 -182 OFFCURVE",
"923 -81 CURVE SMOOTH",
"923 418 LINE",
"828 418 LINE",
"828 -87 LINE SMOOTH",
"828 -141 OFFCURVE",
"810 -162 OFFCURVE",
"770 -162 CURVE SMOOTH",
"652 -162 OFFCURVE",
"599 -43 OFFCURVE",
"599 119 CURVE SMOOTH",
"599 377 OFFCURVE",
"754 498 OFFCURVE",
"934 498 CURVE SMOOTH",
"1076 498 OFFCURVE",
"1147 426 OFFCURVE",
"1147 322 CURVE SMOOTH",
"1147 236 OFFCURVE",
"1092 178 OFFCURVE",
"1022 178 CURVE",
"1022 127 LINE",
"1125 125 OFFCURVE",
"1176 57 OFFCURVE",
"1176 -30 CURVE SMOOTH",
"1176 -115 OFFCURVE",
"1141 -168 OFFCURVE",
"1061 -168 CURVE SMOOTH",
"1033 -168 OFFCURVE",
"1012 -164 OFFCURVE",
"997 -159 CURVE",
"996 -164 OFFCURVE",
"996 -169 OFFCURVE",
"996 -173 CURVE SMOOTH",
"996 -205 OFFCURVE",
"1033 -228 OFFCURVE",
"1104 -228 CURVE SMOOTH",
"1192 -228 OFFCURVE",
"1274 -162 OFFCURVE",
"1274 -34 CURVE SMOOTH",
"1274 70 OFFCURVE",
"1206 136 OFFCURVE",
"1112 156 CURVE",
"1112 159 LINE",
"1188 184 OFFCURVE",
"1245 240 OFFCURVE",
"1245 335 CURVE SMOOTH",
"1245 484 OFFCURVE",
"1109 560 OFFCURVE",
"947 560 CURVE SMOOTH",
"713 560 OFFCURVE",
"539 411 OFFCURVE",
"539 122 CURVE SMOOTH",
"539 -58 OFFCURVE",
"610 -228 OFFCURVE",
"781 -228 CURVE SMOOTH"
);
},
{
closed = 1;
nodes = (
"165 -6 OFFCURVE",
"172 0 OFFCURVE",
"180 14 CURVE",
"137 42 OFFCURVE",
"91 91 OFFCURVE",
"91 167 CURVE SMOOTH",
"91 239 OFFCURVE",
"137 299 OFFCURVE",
"216 299 CURVE SMOOTH",
"287 299 OFFCURVE",
"333 245 OFFCURVE",
"333 177 CURVE SMOOTH",
"333 90 OFFCURVE",
"283 41 OFFCURVE",
"255 17 CURVE",
"265 0 LINE",
"851 0 LINE",
"851 54 LINE",
"367 54 LINE",
"406 88 OFFCURVE",
"424 137 OFFCURVE",
"424 182 CURVE SMOOTH",
"424 292 OFFCURVE",
"334 359 OFFCURVE",
"228 359 CURVE SMOOTH",
"118 359 OFFCURVE",
"34 283 OFFCURVE",
"34 167 CURVE SMOOTH",
"34 68 OFFCURVE",
"98 -6 OFFCURVE",
"148 -6 CURVE SMOOTH"
);
}
);
width = 1293;
},
{
color = -1;
layerId = "D1B76089-C2CA-459D-9B35-7EF71253C59F";
paths = (
{
closed = 1;
nodes = (
"806 -228 OFFCURVE",
"838 -170 OFFCURVE",
"838 -83 CURVE SMOOTH",
"838 418 LINE",
"811 418 LINE",
"811 -84 LINE SMOOTH",
"811 -150 OFFCURVE",
"789 -203 OFFCURVE",
"716 -203 CURVE SMOOTH",
"610 -203 OFFCURVE",
"539 -80 OFFCURVE",
"539 131 CURVE SMOOTH",
"539 399 OFFCURVE",
"690 524 OFFCURVE",
"886 524 CURVE SMOOTH",
"1034 524 OFFCURVE",
"1113 444 OFFCURVE",
"1113 329 CURVE SMOOTH",
"1113 226 OFFCURVE",
"1052 162 OFFCURVE",
"954 162 CURVE",
"954 137 LINE",
"1073 137 OFFCURVE",
"1142 63 OFFCURVE",
"1142 -48 CURVE SMOOTH",
"1142 -167 OFFCURVE",
"1081 -203 OFFCURVE",
"1007 -203 CURVE SMOOTH",
"972 -203 OFFCURVE",
"950 -197 OFFCURVE",
"927 -186 CURVE",
"925 -189 OFFCURVE",
"925 -193 OFFCURVE",
"925 -195 CURVE SMOOTH",
"925 -206 OFFCURVE",
"944 -228 OFFCURVE",
"1007 -228 CURVE SMOOTH",
"1104 -228 OFFCURVE",
"1170 -177 OFFCURVE",
"1170 -48 CURVE SMOOTH",
"1170 65 OFFCURVE",
"1110 132 OFFCURVE",
"1014 149 CURVE",
"1014 151 LINE",
"1089 170 OFFCURVE",
"1141 223 OFFCURVE",
"1141 329 CURVE SMOOTH",
"1141 461 OFFCURVE",
"1049 549 OFFCURVE",
"886 549 CURVE SMOOTH",
"667 549 OFFCURVE",
"511 409 OFFCURVE",
"511 131 CURVE SMOOTH",
"511 -83 OFFCURVE",
"585 -228 OFFCURVE",
"716 -228 CURVE SMOOTH"
);
},
{
closed = 1;
nodes = (
"159 -4 OFFCURVE",
"163 0 OFFCURVE",
"166 6 CURVE",
"116 34 OFFCURVE",
"68 76 OFFCURVE",
"68 164 CURVE SMOOTH",
"68 241 OFFCURVE",
"128 301 OFFCURVE",
"208 301 CURVE SMOOTH",
"289 301 OFFCURVE",
"339 241 OFFCURVE",
"339 167 CURVE SMOOTH",
"339 90 OFFCURVE",
"296 45 OFFCURVE",
"257 12 CURVE",
"264 0 LINE",
"826 0 LINE",
"826 25 LINE",
"304 25 LINE",
"339 56 OFFCURVE",
"367 104 OFFCURVE",
"367 167 CURVE SMOOTH",
"367 268 OFFCURVE",
"292 326 OFFCURVE",
"208 326 CURVE SMOOTH",
"125 326 OFFCURVE",
"40 268 OFFCURVE",
"40 164 CURVE SMOOTH",
"40 52 OFFCURVE",
"121 -4 OFFCURVE",
"148 -4 CURVE SMOOTH"
);
}
);
width = 1195;
},
{
layerId = "C0B026C4-A727-4B54-9AF4-B5E9F769E1F3";
paths = (
{
closed = 1;
nodes = (
"955 -228 OFFCURVE",
"1039 -177 OFFCURVE",
"1039 -54 CURVE SMOOTH",
"1039 404 LINE",
"824 404 LINE",
"824 -84 LINE SMOOTH",
"824 -124 OFFCURVE",
"820 -143 OFFCURVE",
"785 -143 CURVE SMOOTH",
"714 -143 OFFCURVE",
"667 -53 OFFCURVE",
"667 119 CURVE SMOOTH",
"667 336 OFFCURVE",
"780 491 OFFCURVE",
"993 491 CURVE SMOOTH",
"1126 491 OFFCURVE",
"1191 421 OFFCURVE",
"1191 328 CURVE SMOOTH",
"1191 254 OFFCURVE",
"1155 201 OFFCURVE",
"1085 193 CURVE",
"1085 121 LINE",
"1170 115 OFFCURVE",
"1220 62 OFFCURVE",
"1220 -20 CURVE SMOOTH",
"1220 -107 OFFCURVE",
"1180 -142 OFFCURVE",
"1120 -142 CURVE SMOOTH",
"1099 -142 OFFCURVE",
"1078 -139 OFFCURVE",
"1065 -134 CURVE",
"1064 -141 OFFCURVE",
"1064 -147 OFFCURVE",
"1064 -151 CURVE SMOOTH",
"1064 -204 OFFCURVE",
"1126 -228 OFFCURVE",
"1210 -228 CURVE SMOOTH",
"1348 -228 OFFCURVE",
"1430 -159 OFFCURVE",
"1430 -35 CURVE SMOOTH",
"1430 68 OFFCURVE",
"1365 132 OFFCURVE",
"1263 162 CURVE",
"1263 166 LINE",
"1338 193 OFFCURVE",
"1398 249 OFFCURVE",
"1398 348 CURVE SMOOTH",
"1398 500 OFFCURVE",
"1248 575 OFFCURVE",
"1050 575 CURVE SMOOTH",
"783 575 OFFCURVE",
"589 431 OFFCURVE",
"589 122 CURVE SMOOTH",
"589 -88 OFFCURVE",
"658 -228 OFFCURVE",
"840 -228 CURVE SMOOTH"
);
},
{
closed = 1;
nodes = (
"169 -6 OFFCURVE",
"175 0 OFFCURVE",
"183 16 CURVE",
"140 44 OFFCURVE",
"105 91 OFFCURVE",
"105 167 CURVE SMOOTH",
"105 239 OFFCURVE",
"146 288 OFFCURVE",
"206 288 CURVE SMOOTH",
"264 288 OFFCURVE",
"298 247 OFFCURVE",
"298 173 CURVE SMOOTH",
"298 99 OFFCURVE",
"276 57 OFFCURVE",
"243 17 CURVE",
"253 0 LINE",
"890 0 LINE",
"890 73 LINE",
"452 73 LINE",
"480 101 OFFCURVE",
"492 143 OFFCURVE",
"492 185 CURVE SMOOTH",
"492 285 OFFCURVE",
"400 364 OFFCURVE",
"255 364 CURVE SMOOTH",
"106 364 OFFCURVE",
"28 280 OFFCURVE",
"28 167 CURVE SMOOTH",
"28 68 OFFCURVE",
"90 -6 OFFCURVE",
"144 -6 CURVE SMOOTH"
);
}
);
width = 1447;
}
);
leftMetricsKey = pamlym;
unicode = 0D0F;
},
{
glyphname = omlym;
lastChange = "2019-06-05 08:30:18 +0000";
layers = (
{
layerId = UUID0;
paths = (
{
closed = 1;
nodes = (
"355 -6 OFFCURVE",
"418 64 OFFCURVE",
"418 159 CURVE SMOOTH",
"418 252 OFFCURVE",
"352 322 OFFCURVE",
"255 322 CURVE SMOOTH",
"181 322 OFFCURVE",
"123 276 OFFCURVE",
"86 213 CURVE",
"95 152 LINE",
"124 209 OFFCURVE",
"171 261 OFFCURVE",
"231 261 CURVE SMOOTH",
"284 261 OFFCURVE",
"327 225 OFFCURVE",
"327 159 CURVE SMOOTH",
"327 100 OFFCURVE",
"294 54 OFFCURVE",
"231 54 CURVE SMOOTH",
"165 54 OFFCURVE",
"95 111 OFFCURVE",
"95 236 CURVE SMOOTH",
"95 396 OFFCURVE",
"220 500 OFFCURVE",
"417 500 CURVE SMOOTH",
"534 500 OFFCURVE",
"604 468 OFFCURVE",
"604 397 CURVE SMOOTH",
"604 339 OFFCURVE",
"557 303 OFFCURVE",
"485 303 CURVE SMOOTH",
"473 303 LINE",
"473 253 LINE",
"491 253 LINE SMOOTH",
"569 253 OFFCURVE",
"614 215 OFFCURVE",
"614 148 CURVE SMOOTH",
"614 85 OFFCURVE",
"569 54 OFFCURVE",
"516 54 CURVE SMOOTH",
"493 54 OFFCURVE",
"467 60 OFFCURVE",
"441 71 CURVE",
"439 66 OFFCURVE",
"437 56 OFFCURVE",
"437 51 CURVE SMOOTH",
"437 21 OFFCURVE",
"468 -6 OFFCURVE",
"543 -6 CURVE SMOOTH",
"655 -6 OFFCURVE",
"709 54 OFFCURVE",
"709 134 CURVE SMOOTH",
"709 200 OFFCURVE",
"664 262 OFFCURVE",
"581 276 CURVE",
"581 280 LINE",
"662 297 OFFCURVE",
"698 350 OFFCURVE",
"698 399 CURVE SMOOTH",
"698 500 OFFCURVE",
"612 560 OFFCURVE",
"428 560 CURVE SMOOTH",
"200 560 OFFCURVE",
"40 436 OFFCURVE",
"40 236 CURVE SMOOTH",
"40 118 OFFCURVE",
"102 -6 OFFCURVE",
"249 -6 CURVE SMOOTH"
);
}
);
width = 747;
},
{
color = -1;
layerId = "D1B76089-C2CA-459D-9B35-7EF71253C59F";
paths = (
{
closed = 1;
nodes = (
"327 -6 OFFCURVE",
"386 60 OFFCURVE",
"386 143 CURVE SMOOTH",
"386 235 OFFCURVE",
"327 295 OFFCURVE",
"245 295 CURVE SMOOTH",
"159 295 OFFCURVE",
"103 237 OFFCURVE",
"70 182 CURVE",
"79 154 LINE",
"122 227 OFFCURVE",
"175 270 OFFCURVE",
"243 270 CURVE SMOOTH",
"306 270 OFFCURVE",
"358 227 OFFCURVE",
"358 143 CURVE SMOOTH",
"358 65 OFFCURVE",
"299 19 OFFCURVE",
"234 19 CURVE SMOOTH",
"126 19 OFFCURVE",
"73 124 OFFCURVE",
"73 237 CURVE SMOOTH",
"73 423 OFFCURVE",
"221 524 OFFCURVE",
"409 524 CURVE SMOOTH",
"553 524 OFFCURVE",
"612 481 OFFCURVE",
"612 401 CURVE SMOOTH",
"612 326 OFFCURVE",
"558 288 OFFCURVE",
"466 288 CURVE SMOOTH",
"454 288 LINE",
"454 263 LINE",
"466 263 LINE SMOOTH",
"561 263 OFFCURVE",
"623 219 OFFCURVE",
"623 136 CURVE SMOOTH",
"623 69 OFFCURVE",
"586 19 OFFCURVE",
"505 19 CURVE SMOOTH",
"469 19 OFFCURVE",
"438 27 OFFCURVE",
"410 47 CURVE",
"407 43 OFFCURVE",
"406 39 OFFCURVE",
"406 34 CURVE SMOOTH",
"406 18 OFFCURVE",
"441 -6 OFFCURVE",
"505 -6 CURVE SMOOTH",
"597 -6 OFFCURVE",
"651 50 OFFCURVE",
"651 136 CURVE SMOOTH",
"651 219 OFFCURVE",
"597 262 OFFCURVE",
"532 273 CURVE",
"532 275 LINE",
"609 293 OFFCURVE",
"640 337 OFFCURVE",
"640 402 CURVE SMOOTH",
"640 482 OFFCURVE",
"586 549 OFFCURVE",
"409 549 CURVE SMOOTH",
"205 549 OFFCURVE",
"46 436 OFFCURVE",
"46 237 CURVE SMOOTH",
"46 99 OFFCURVE",
"117 -6 OFFCURVE",
"234 -6 CURVE SMOOTH"
);
}
);
width = 695;
},
{
layerId = "C0B026C4-A727-4B54-9AF4-B5E9F769E1F3";
paths = (
{
closed = 1;
nodes = (
"390 -8 OFFCURVE",
"443 62 OFFCURVE",
"443 160 CURVE SMOOTH",
"443 250 OFFCURVE",
"391 330 OFFCURVE",
"266 330 CURVE SMOOTH",
"171 330 OFFCURVE",
"112 273 OFFCURVE",
"75 215 CURVE",
"90 148 LINE",
"128 208 OFFCURVE",
"164 253 OFFCURVE",
"216 253 CURVE SMOOTH",
"264 253 OFFCURVE",
"284 216 OFFCURVE",
"284 160 CURVE SMOOTH",
"284 97 OFFCURVE",
"262 69 OFFCURVE",
"213 69 CURVE SMOOTH",
"168 69 OFFCURVE",
"110 110 OFFCURVE",
"110 234 CURVE SMOOTH",
"110 393 OFFCURVE",
"227 492 OFFCURVE",
"415 492 CURVE SMOOTH",
"515 492 OFFCURVE",
"574 464 OFFCURVE",
"574 401 CURVE SMOOTH",
"574 346 OFFCURVE",
"531 319 OFFCURVE",
"482 319 CURVE SMOOTH",
"473 319 LINE",
"473 249 LINE",
"480 249 LINE SMOOTH",
"536 249 OFFCURVE",
"579 218 OFFCURVE",
"579 155 CURVE SMOOTH",
"579 103 OFFCURVE",
"552 76 OFFCURVE",
"505 76 CURVE SMOOTH",
"487 76 OFFCURVE",
"471 78 OFFCURVE",
"450 88 CURVE",
"447 83 OFFCURVE",
"446 74 OFFCURVE",
"446 68 CURVE SMOOTH",
"446 41 OFFCURVE",
"469 -8 OFFCURVE",
"598 -8 CURVE SMOOTH",
"731 -8 OFFCURVE",
"798 50 OFFCURVE",
"798 135 CURVE SMOOTH",
"798 206 OFFCURVE",
"763 257 OFFCURVE",
"651 282 CURVE",
"651 286 LINE",
"752 302 OFFCURVE",
"791 350 OFFCURVE",
"791 417 CURVE SMOOTH",
"791 533 OFFCURVE",
"639 575 OFFCURVE",
"476 575 CURVE SMOOTH",
"211 575 OFFCURVE",
"36 465 OFFCURVE",
"36 236 CURVE SMOOTH",
"36 102 OFFCURVE",
"104 -8 OFFCURVE",
"243 -8 CURVE SMOOTH"
);
}
);
width = 828;
}
);
rightMetricsKey = ngamlym;
unicode = 0D12;
},
{
glyphname = kamlym;
lastChange = "2019-06-05 08:30:18 +0000";
layers = (
{
layerId = UUID0;
paths = (
{
closed = 1;
nodes = (
"280 -6 OFFCURVE",
"335 39 OFFCURVE",
"366 126 CURVE",
"324 157 LINE",
"306 85 OFFCURVE",
"270 49 OFFCURVE",
"213 49 CURVE SMOOTH",
"173 49 OFFCURVE",
"128 68 OFFCURVE",
"128 139 CURVE SMOOTH",
"128 226 OFFCURVE",
"197 259 OFFCURVE",
"297 259 CURVE SMOOTH",
"717 259 LINE SMOOTH",
"816 259 OFFCURVE",
"867 226 OFFCURVE",
"867 145 CURVE SMOOTH",
"867 86 OFFCURVE",
"827 51 OFFCURVE",
"768 51 CURVE SMOOTH",
"762 51 OFFCURVE",
"755 51 OFFCURVE",
"748 52 CURVE",
"748 16 OFFCURVE",
"779 -6 OFFCURVE",
"821 -6 CURVE SMOOTH",
"896 -6 OFFCURVE",
"962 47 OFFCURVE",
"962 144 CURVE SMOOTH",
"962 245 OFFCURVE",
"877 310 OFFCURVE",
"729 310 CURVE SMOOTH",
"300 310 LINE SMOOTH",
"132 310 OFFCURVE",
"35 249 OFFCURVE",
"35 141 CURVE SMOOTH",
"35 53 OFFCURVE",
"96 -6 OFFCURVE",
"195 -6 CURVE SMOOTH"
);
},
{
closed = 1;
nodes = (
"660 -6 OFFCURVE",
"723 121 OFFCURVE",
"723 277 CURVE SMOOTH",
"723 433 OFFCURVE",
"660 560 OFFCURVE",
"501 560 CURVE SMOOTH",
"353 560 OFFCURVE",
"287 428 OFFCURVE",
"287 277 CURVE SMOOTH",
"287 125 OFFCURVE",
"353 -6 OFFCURVE",
"501 -6 CURVE SMOOTH"
);
},
{
closed = 1;
nodes = (
"389 54 OFFCURVE",
"344 162 OFFCURVE",
"344 277 CURVE SMOOTH",
"344 392 OFFCURVE",
"389 500 OFFCURVE",
"494 500 CURVE SMOOTH",
"598 500 OFFCURVE",
"627 412 OFFCURVE",
"627 277 CURVE SMOOTH",
"627 142 OFFCURVE",
"598 54 OFFCURVE",
"489 54 CURVE SMOOTH"
);
}
);
width = 997;
},
{
color = -1;
layerId = "D1B76089-C2CA-459D-9B35-7EF71253C59F";
paths = (
{
closed = 1;
nodes = (
"238 -6 OFFCURVE",
"297 31 OFFCURVE",
"328 99 CURVE",
"309 111 LINE",
"277 44 OFFCURVE",
"224 19 OFFCURVE",
"171 19 CURVE SMOOTH",
"121 19 OFFCURVE",
"69 48 OFFCURVE",
"69 127 CURVE SMOOTH",
"69 235 OFFCURVE",
"158 264 OFFCURVE",
"258 264 CURVE SMOOTH",
"660 264 LINE SMOOTH",
"779 264 OFFCURVE",
"840 221 OFFCURVE",
"840 133 CURVE SMOOTH",
"840 55 OFFCURVE",
"785 19 OFFCURVE",
"746 19 CURVE SMOOTH",
"723 19 OFFCURVE",
"703 23 OFFCURVE",
"689 27 CURVE",
"689 3 OFFCURVE",
"712 -6 OFFCURVE",
"746 -6 CURVE SMOOTH",
"807 -6 OFFCURVE",
"868 41 OFFCURVE",
"868 133 CURVE SMOOTH",
"868 235 OFFCURVE",
"795 289 OFFCURVE",
"663 289 CURVE SMOOTH",
"257 289 LINE SMOOTH",
"158 289 OFFCURVE",
"41 256 OFFCURVE",
"41 127 CURVE SMOOTH",
"41 42 OFFCURVE",
"95 -6 OFFCURVE",
"168 -6 CURVE SMOOTH"
);
},
{
closed = 1;
nodes = (
"581 -6 OFFCURVE",
"650 115 OFFCURVE",
"650 271 CURVE SMOOTH",
"650 442 OFFCURVE",
"584 549 OFFCURVE",
"460 549 CURVE SMOOTH",
"342 549 OFFCURVE",
"269 446 OFFCURVE",
"269 271 CURVE SMOOTH",
"269 123 OFFCURVE",
"338 -6 OFFCURVE",
"459 -6 CURVE SMOOTH"
);
},
{
closed = 1;
nodes = (
"352 19 OFFCURVE",
"296 143 OFFCURVE",
"296 271 CURVE SMOOTH",
"296 419 OFFCURVE",
"352 524 OFFCURVE",
"460 524 CURVE SMOOTH",
"571 524 OFFCURVE",
"623 419 OFFCURVE",
"623 271 CURVE SMOOTH",
"623 143 OFFCURVE",
"571 19 OFFCURVE",
"460 19 CURVE SMOOTH"
);
}
);
width = 909;
},
{
layerId = "C0B026C4-A727-4B54-9AF4-B5E9F769E1F3";
paths = (
{
closed = 1;
nodes = (
"314 -8 OFFCURVE",
"377 31 OFFCURVE",
"412 107 CURVE",
"366 172 LINE",
"345 101 OFFCURVE",
"314 69 OFFCURVE",
"269 69 CURVE SMOOTH",
"225 69 OFFCURVE",
"200 95 OFFCURVE",
"200 142 CURVE SMOOTH",
"200 224 OFFCURVE",
"273 254 OFFCURVE",
"355 254 CURVE SMOOTH",
"759 254 LINE SMOOTH",
"858 254 OFFCURVE",
"914 218 OFFCURVE",
"914 150 CURVE SMOOTH",
"914 84 OFFCURVE",
"880 63 OFFCURVE",
"839 63 CURVE SMOOTH",
"833 63 OFFCURVE",
"826 63 OFFCURVE",
"819 64 CURVE",
"819 28 OFFCURVE",
"840 -8 OFFCURVE",
"921 -8 CURVE SMOOTH",
"1036 -8 OFFCURVE",
"1095 51 OFFCURVE",
"1095 148 CURVE SMOOTH",
"1095 249 OFFCURVE",
"999 324 OFFCURVE",
"817 324 CURVE SMOOTH",
"340 324 LINE SMOOTH",
"119 324 OFFCURVE",
"30 247 OFFCURVE",
"30 145 CURVE SMOOTH",
"30 51 OFFCURVE",
"87 -8 OFFCURVE",
"222 -8 CURVE SMOOTH"
);
},
{
closed = 1;
nodes = (
"747 -8 OFFCURVE",
"823 117 OFFCURVE",
"823 284 CURVE SMOOTH",
"823 447 OFFCURVE",
"742 575 OFFCURVE",
"560 575 CURVE SMOOTH",
"370 575 OFFCURVE",
"314 424 OFFCURVE",
"314 279 CURVE SMOOTH",
"314 130 OFFCURVE",
"366 -8 OFFCURVE",
"560 -8 CURVE SMOOTH"
);
},
{
closed = 1;
nodes = (
"435 74 OFFCURVE",
"391 143 OFFCURVE",
"391 285 CURVE SMOOTH",
"391 399 OFFCURVE",
"423 493 OFFCURVE",
"504 493 CURVE SMOOTH",
"575 493 OFFCURVE",
"604 418 OFFCURVE",
"604 280 CURVE SMOOTH",
"604 146 OFFCURVE",
"575 74 OFFCURVE",
"504 74 CURVE SMOOTH"
);
}
);
width = 1125;
}
);
unicode = 0D15;
},
{
glyphname = khamlym;
lastChange = "2019-06-05 08:30:18 +0000";
layers = (
{
layerId = UUID0;
paths = (
{
closed = 1;
nodes = (
"359 -6 OFFCURVE",
"422 64 OFFCURVE",
"422 159 CURVE SMOOTH",
"422 252 OFFCURVE",
"356 322 OFFCURVE",
"259 322 CURVE SMOOTH",
"185 322 OFFCURVE",
"127 276 OFFCURVE",
"90 213 CURVE",
"99 152 LINE",
"128 209 OFFCURVE",
"175 261 OFFCURVE",
"235 261 CURVE SMOOTH",
"288 261 OFFCURVE",
"331 225 OFFCURVE",
"331 159 CURVE SMOOTH",
"331 100 OFFCURVE",
"298 54 OFFCURVE",
"234 54 CURVE SMOOTH",
"173 54 OFFCURVE",
"97 116 OFFCURVE",
"97 250 CURVE SMOOTH",
"97 417 OFFCURVE",
"213 496 OFFCURVE",
"339 496 CURVE SMOOTH",
"491 496 OFFCURVE",
"554 398 OFFCURVE",
"554 269 CURVE SMOOTH",
"554 169 OFFCURVE",
"517 84 OFFCURVE",
"440 26 CURVE",
"453 0 LINE",
"919 0 LINE",
"919 554 LINE",
"824 554 LINE",
"824 54 LINE",
"485 54 LINE",
"528 23 LINE",
"621 90 OFFCURVE",
"652 181 OFFCURVE",
"652 286 CURVE SMOOTH",
"652 428 OFFCURVE",
"550 560 OFFCURVE",
"355 560 CURVE SMOOTH",
"191 560 OFFCURVE",
"42 456 OFFCURVE",
"42 251 CURVE SMOOTH",
"42 123 OFFCURVE",
"111 -6 OFFCURVE",
"252 -6 CURVE SMOOTH"
);
}
);
width = 991;
},
{
color = -1;
layerId = "D1B76089-C2CA-459D-9B35-7EF71253C59F";
paths = (
{
closed = 1;
nodes = (
"329 -6 OFFCURVE",
"388 60 OFFCURVE",
"388 143 CURVE SMOOTH",
"388 235 OFFCURVE",
"329 295 OFFCURVE",
"247 295 CURVE SMOOTH",
"161 295 OFFCURVE",
"105 237 OFFCURVE",
"72 182 CURVE",
"81 154 LINE",
"124 227 OFFCURVE",
"177 270 OFFCURVE",
"245 270 CURVE SMOOTH",
"308 270 OFFCURVE",
"360 227 OFFCURVE",
"360 143 CURVE SMOOTH",
"360 65 OFFCURVE",
"301 19 OFFCURVE",
"237 19 CURVE SMOOTH",
"128 19 OFFCURVE",
"75 129 OFFCURVE",
"75 253 CURVE SMOOTH",
"75 416 OFFCURVE",
"174 524 OFFCURVE",
"322 524 CURVE SMOOTH",
"459 524 OFFCURVE",
"564 427 OFFCURVE",
"564 265 CURVE SMOOTH",
"564 173 OFFCURVE",
"528 97 OFFCURVE",
"449 18 CURVE",
"458 0 LINE",
"811 0 LINE",
"811 543 LINE",
"784 543 LINE",
"784 25 LINE",
"480 25 LINE",
"483 20 LINE",
"546 80 OFFCURVE",
"592 169 OFFCURVE",
"592 265 CURVE SMOOTH",
"592 443 OFFCURVE",
"476 549 OFFCURVE",
"322 549 CURVE",
"163 549 OFFCURVE",
"48 431 OFFCURVE",
"48 255 CURVE SMOOTH",
"48 100 OFFCURVE",
"119 -6 OFFCURVE",
"237 -6 CURVE SMOOTH"
);
}
);
width = 889;
},
{
guideLines = (
{
position = "{237, 69}";
}
);
layerId = "C0B026C4-A727-4B54-9AF4-B5E9F769E1F3";
paths = (
{
closed = 1;
nodes = (
"389 -8 OFFCURVE",
"447 62 OFFCURVE",
"447 166 CURVE SMOOTH",
"447 250 OFFCURVE",
"395 330 OFFCURVE",
"270 330 CURVE SMOOTH",
"174 330 OFFCURVE",
"116 273 OFFCURVE",
"79 215 CURVE",
"94 148 LINE",
"123 205 OFFCURVE",
"165 253 OFFCURVE",
"220 253 CURVE SMOOTH",
"268 253 OFFCURVE",
"288 216 OFFCURVE",
"288 160 CURVE SMOOTH",
"288 97 OFFCURVE",
"266 69 OFFCURVE",
"217 69 CURVE SMOOTH",
"176 69 OFFCURVE",
"112 115 OFFCURVE",
"112 248 CURVE SMOOTH",
"112 410 OFFCURVE",
"227 494 OFFCURVE",
"346 494 CURVE SMOOTH",
"476 494 OFFCURVE",
"527 394 OFFCURVE",
"527 276 CURVE SMOOTH",
"527 182 OFFCURVE",
"504 100 OFFCURVE",
"440 26 CURVE",
"453 0 LINE",
"1087 0 LINE",
"1087 567 LINE",
"872 567 LINE",
"872 73 LINE",
"588 73 LINE",
"644 52 LINE",
"698 93 OFFCURVE",
"746 166 OFFCURVE",
"746 289 CURVE SMOOTH",
"746 444 OFFCURVE",
"628 575 OFFCURVE",
"395 575 CURVE SMOOTH",
"197 575 OFFCURVE",
"38 459 OFFCURVE",
"38 255 CURVE SMOOTH",
"38 104 OFFCURVE",
"110 -8 OFFCURVE",
"250 -8 CURVE SMOOTH"
);
}
);
width = 1149;
}
);
leftMetricsKey = nnamlym;
rightMetricsKey = pamlym;
unicode = 0D16;
},
{
glyphname = gamlym;
lastChange = "2019-06-05 08:30:18 +0000";
layers = (
{
layerId = UUID0;
paths = (
{
closed = 1;
nodes = (
"400 -6 OFFCURVE",
"473 80 OFFCURVE",
"473 240 CURVE SMOOTH",
"473 329 LINE SMOOTH",
"473 459 OFFCURVE",
"520 499 OFFCURVE",
"599 499 CURVE SMOOTH",
"696 499 OFFCURVE",
"746 415 OFFCURVE",
"746 283 CURVE SMOOTH",
"746 145 OFFCURVE",
"687 70 OFFCURVE",
"608 11 CURVE",
"618 -1 OFFCURVE",
"631 -6 OFFCURVE",
"645 -6 CURVE SMOOTH",
"705 -6 OFFCURVE",
"805 106 OFFCURVE",
"805 279 CURVE SMOOTH",
"805 459 OFFCURVE",
"722 560 OFFCURVE",
"586 560 CURVE SMOOTH",
"452 560 OFFCURVE",
"374 474 OFFCURVE",
"374 314 CURVE SMOOTH",
"374 225 LINE SMOOTH",
"374 94 OFFCURVE",
"327 55 OFFCURVE",
"248 55 CURVE SMOOTH",
"148 55 OFFCURVE",
"101 139 OFFCURVE",
"101 271 CURVE SMOOTH",
"101 409 OFFCURVE",
"160 484 OFFCURVE",
"239 543 CURVE",
"229 555 OFFCURVE",
"216 560 OFFCURVE",
"202 560 CURVE SMOOTH",
"142 560 OFFCURVE",
"42 448 OFFCURVE",
"42 275 CURVE SMOOTH",
"42 95 OFFCURVE",
"125 -6 OFFCURVE",
"256 -6 CURVE SMOOTH"
);
}
);
width = 847;
},
{
color = -1;
layerId = "D1B76089-C2CA-459D-9B35-7EF71253C59F";
paths = (
{
closed = 1;
nodes = (
"357 -6 OFFCURVE",
"420 64 OFFCURVE",
"420 208 CURVE SMOOTH",
"420 328 LINE SMOOTH",
"420 455 OFFCURVE",
"462 524 OFFCURVE",
"566 524 CURVE SMOOTH",
"662 524 OFFCURVE",
"736 454 OFFCURVE",
"736 283 CURVE SMOOTH",
"736 145 OFFCURVE",
"674 47 OFFCURVE",
"600 1 CURVE",
"605 -4 OFFCURVE",
"610 -6 OFFCURVE",
"618 -6 CURVE SMOOTH",
"659 -6 OFFCURVE",
"764 99 OFFCURVE",
"764 283 CURVE SMOOTH",
"764 471 OFFCURVE",
"679 549 OFFCURVE",
"567 549 CURVE SMOOTH",
"457 549 OFFCURVE",
"392 479 OFFCURVE",
"392 336 CURVE SMOOTH",
"392 214 LINE SMOOTH",
"392 88 OFFCURVE",
"350 19 OFFCURVE",
"246 19 CURVE SMOOTH",
"150 19 OFFCURVE",
"76 89 OFFCURVE",
"76 260 CURVE SMOOTH",
"76 398 OFFCURVE",
"138 496 OFFCURVE",
"212 542 CURVE",
"207 547 OFFCURVE",
"202 549 OFFCURVE",
"194 549 CURVE SMOOTH",
"153 549 OFFCURVE",
"48 444 OFFCURVE",
"48 260 CURVE SMOOTH",
"48 72 OFFCURVE",
"133 -6 OFFCURVE",
"245 -6 CURVE SMOOTH"
);
}
);
width = 812;
},
{
layerId = "C0B026C4-A727-4B54-9AF4-B5E9F769E1F3";
paths = (
{
closed = 1;
nodes = (
"445 -8 OFFCURVE",
"549 70 OFFCURVE",
"549 262 CURVE SMOOTH",
"549 368 LINE SMOOTH",
"549 458 OFFCURVE",
"584 493 OFFCURVE",
"640 493 CURVE SMOOTH",
"710 493 OFFCURVE",
"761 422 OFFCURVE",
"761 287 CURVE SMOOTH",
"761 159 OFFCURVE",
"715 90 OFFCURVE",
"635 17 CURVE",
"645 4 OFFCURVE",
"655 -8 OFFCURVE",
"682 -8 CURVE SMOOTH",
"745 -8 OFFCURVE",
"839 118 OFFCURVE",
"839 286 CURVE SMOOTH",
"839 476 OFFCURVE",
"749 575 OFFCURVE",
"588 575 CURVE SMOOTH",
"432 575 OFFCURVE",
"328 497 OFFCURVE",
"328 299 CURVE SMOOTH",
"328 199 LINE SMOOTH",
"328 109 OFFCURVE",
"293 74 OFFCURVE",
"237 74 CURVE SMOOTH",
"167 74 OFFCURVE",
"116 145 OFFCURVE",
"116 279 CURVE SMOOTH",
"116 408 OFFCURVE",
"162 477 OFFCURVE",
"242 550 CURVE",
"232 563 OFFCURVE",
"222 575 OFFCURVE",
"193 575 CURVE SMOOTH",
"132 575 OFFCURVE",
"38 449 OFFCURVE",
"38 281 CURVE SMOOTH",
"38 92 OFFCURVE",
"127 -8 OFFCURVE",
"289 -8 CURVE SMOOTH"
);
}
);
width = 877;
}
);
leftMetricsKey = namlym;
rightMetricsKey = namlym;
unicode = 0D17;
},
{
glyphname = ghamlym;
lastChange = "2019-06-05 08:30:18 +0000";
layers = (
{
layerId = UUID0;
paths = (
{
closed = 1;
nodes = (
"1221 0 LINE",
"1221 554 LINE",
"1126 554 LINE",
"1126 54 LINE",
"626 54 LINE",
"626 340 LINE SMOOTH",
"626 456 OFFCURVE",
"685 500 OFFCURVE",
"767 500 CURVE SMOOTH",
"861 500 OFFCURVE",
"900 438 OFFCURVE",
"900 338 CURVE SMOOTH",
"900 274 LINE",
"591 274 LINE",
"591 221 LINE",
"959 221 LINE",
"959 328 LINE SMOOTH",
"959 487 OFFCURVE",
"880 560 OFFCURVE",
"751 560 CURVE SMOOTH",
"638 560 OFFCURVE",
"532 493 OFFCURVE",
"532 328 CURVE SMOOTH",
"532 0 LINE"
);
},
{
closed = 1;
nodes = (
"160 215 OFFCURVE",
"170 224 OFFCURVE",
"175 235 CURVE",
"132 263 OFFCURVE",
"91 313 OFFCURVE",
"91 379 CURVE SMOOTH",
"91 448 OFFCURVE",
"137 500 OFFCURVE",
"210 500 CURVE SMOOTH",
"282 500 OFFCURVE",
"320 441 OFFCURVE",
"320 388 CURVE SMOOTH",
"320 328 OFFCURVE",
"300 279 OFFCURVE",
"251 238 CURVE",
"261 221 LINE",
"573 221 LINE",
"573 274 LINE",
"334 274 LINE",
"346 260 LINE",
"394 298 OFFCURVE",
"411 348 OFFCURVE",
"411 393 CURVE SMOOTH",
"411 483 OFFCURVE",
"338 560 OFFCURVE",
"224 560 CURVE SMOOTH",
"96 560 OFFCURVE",
"34 470 OFFCURVE",
"34 379 CURVE SMOOTH",
"34 279 OFFCURVE",
"102 215 OFFCURVE",
"143 215 CURVE SMOOTH"
);
}
);
width = 1293;
},
{
color = -1;
layerId = "D1B76089-C2CA-459D-9B35-7EF71253C59F";
paths = (
{
closed = 1;
nodes = (
"1106 0 LINE",
"1106 543 LINE",
"1079 543 LINE",
"1079 25 LINE",
"524 25 LINE",
"524 323 LINE SMOOTH",
"524 453 OFFCURVE",
"586 524 OFFCURVE",
"698 524 CURVE SMOOTH",
"807 524 OFFCURVE",
"866 453 OFFCURVE",
"866 324 CURVE SMOOTH",
"866 261 LINE",
"508 261 LINE",
"508 236 LINE",
"893 236 LINE",
"893 324 LINE SMOOTH",
"893 475 OFFCURVE",
"817 549 OFFCURVE",
"698 549 CURVE SMOOTH",
"575 549 OFFCURVE",
"497 474 OFFCURVE",
"497 324 CURVE SMOOTH",
"497 0 LINE"
);
},
{
closed = 1;
nodes = (
"151 233 OFFCURVE",
"157 238 OFFCURVE",
"160 244 CURVE",
"113 270 OFFCURVE",
"68 314 OFFCURVE",
"68 394 CURVE SMOOTH",
"68 461 OFFCURVE",
"118 524 OFFCURVE",
"202 524 CURVE SMOOTH",
"284 524 OFFCURVE",
"329 461 OFFCURVE",
"329 397 CURVE SMOOTH",
"329 329 OFFCURVE",
"296 283 OFFCURVE",
"253 248 CURVE",
"260 236 LINE",
"504 236 LINE",
"504 261 LINE",
"282 261 LINE",
"294 256 LINE",
"332 291 OFFCURVE",
"357 336 OFFCURVE",
"357 397 CURVE SMOOTH",
"357 488 OFFCURVE",
"288 549 OFFCURVE",
"202 549 CURVE SMOOTH",
"113 549 OFFCURVE",
"40 488 OFFCURVE",
"40 394 CURVE SMOOTH",
"40 297 OFFCURVE",
"110 233 OFFCURVE",
"143 233 CURVE SMOOTH"
);
}
);
width = 1184;
},
{
layerId = "C0B026C4-A727-4B54-9AF4-B5E9F769E1F3";
paths = (
{
closed = 1;
nodes = (
"1391 0 LINE",
"1391 567 LINE",
"1176 567 LINE",
"1176 73 LINE",
"778 73 LINE",
"778 343 LINE SMOOTH",
"778 464 OFFCURVE",
"817 496 OFFCURVE",
"876 496 CURVE SMOOTH",
"954 496 OFFCURVE",
"991 438 OFFCURVE",
"991 340 CURVE SMOOTH",
"991 290 LINE",
"689 290 LINE",
"689 218 LINE",
"1069 218 LINE",
"1069 347 LINE SMOOTH",
"1069 483 OFFCURVE",
"993 575 OFFCURVE",
"831 575 CURVE SMOOTH",
"698 575 OFFCURVE",
"567 502 OFFCURVE",
"567 333 CURVE SMOOTH",
"567 0 LINE"
);
},
{
closed = 1;
nodes = (
"169 209 OFFCURVE",
"175 215 OFFCURVE",
"183 231 CURVE",
"140 259 OFFCURVE",
"105 306 OFFCURVE",
"105 382 CURVE SMOOTH",
"105 450 OFFCURVE",
"146 499 OFFCURVE",
"206 499 CURVE SMOOTH",
"264 499 OFFCURVE",
"298 458 OFFCURVE",
"298 388 CURVE SMOOTH",
"298 310 OFFCURVE",
"276 271 OFFCURVE",
"243 234 CURVE",
"253 217 LINE",
"621 217 LINE",
"621 290 LINE",
"417 290 LINE",
"437 277 LINE",
"465 303 OFFCURVE",
"489 344 OFFCURVE",
"489 400 CURVE SMOOTH",
"489 496 OFFCURVE",
"400 575 OFFCURVE",
"255 575 CURVE SMOOTH",
"106 575 OFFCURVE",
"28 491 OFFCURVE",
"28 382 CURVE SMOOTH",
"28 284 OFFCURVE",
"90 209 OFFCURVE",
"144 209 CURVE SMOOTH"
);
}
);
width = 1453;
}
);
leftMetricsKey = pamlym;
rightMetricsKey = pamlym;
unicode = 0D18;
},
{
glyphname = ngamlym;
lastChange = "2019-06-05 08:30:18 +0000";
layers = (
{
layerId = UUID0;
paths = (
{
closed = 1;
nodes = (
"359 -6 OFFCURVE",
"422 64 OFFCURVE",
"422 159 CURVE SMOOTH",
"422 252 OFFCURVE",
"356 322 OFFCURVE",
"259 322 CURVE SMOOTH",
"185 322 OFFCURVE",
"127 276 OFFCURVE",
"90 213 CURVE",
"99 152 LINE",
"128 209 OFFCURVE",
"175 261 OFFCURVE",
"235 261 CURVE SMOOTH",
"288 261 OFFCURVE",
"331 225 OFFCURVE",
"331 159 CURVE SMOOTH",
"331 100 OFFCURVE",
"298 54 OFFCURVE",
"234 54 CURVE SMOOTH",
"173 54 OFFCURVE",
"97 116 OFFCURVE",
"97 250 CURVE SMOOTH",
"97 417 OFFCURVE",
"213 500 OFFCURVE",
"329 500 CURVE SMOOTH",
"445 500 OFFCURVE",
"524 428 OFFCURVE",
"524 292 CURVE SMOOTH",
"524 0 LINE",
"609 0 LINE",
"609 361 LINE",
"593 423 LINE",
"538 523 OFFCURVE",
"437 560 OFFCURVE",
"341 560 CURVE SMOOTH",
"190 560 OFFCURVE",
"42 457 OFFCURVE",
"42 251 CURVE SMOOTH",
"42 123 OFFCURVE",
"111 -6 OFFCURVE",
"252 -6 CURVE SMOOTH"
);
},
{
closed = 1;
nodes = (
"700 560 OFFCURVE",
"614 489 OFFCURVE",
"577 399 CURVE",
"534 294 LINE",
"534 0 LINE",
"619 0 LINE",
"619 290 LINE SMOOTH",
"619 438 OFFCURVE",
"713 500 OFFCURVE",
"814 500 CURVE SMOOTH",
"889 500 OFFCURVE",
"941 463 OFFCURVE",
"941 397 CURVE SMOOTH",
"941 339 OFFCURVE",
"894 303 OFFCURVE",
"822 303 CURVE SMOOTH",
"791 303 LINE",
"791 253 LINE",
"828 253 LINE SMOOTH",
"906 253 OFFCURVE",
"951 215 OFFCURVE",
"951 148 CURVE SMOOTH",
"951 85 OFFCURVE",
"906 54 OFFCURVE",
"853 54 CURVE SMOOTH",
"815 54 OFFCURVE",
"781 63 OFFCURVE",
"751 79 CURVE",
"749 74 OFFCURVE",
"747 64 OFFCURVE",
"747 59 CURVE SMOOTH",
"747 29 OFFCURVE",
"796 -6 OFFCURVE",
"880 -6 CURVE SMOOTH",
"992 -6 OFFCURVE",
"1046 54 OFFCURVE",
"1046 134 CURVE SMOOTH",
"1046 200 OFFCURVE",
"1001 262 OFFCURVE",
"918 276 CURVE",
"918 280 LINE",
"999 297 OFFCURVE",
"1035 350 OFFCURVE",
"1035 402 CURVE SMOOTH",
"1035 498 OFFCURVE",
"953 560 OFFCURVE",
"828 560 CURVE SMOOTH"
);
}
);
width = 1084;
},
{
color = -1;
layerId = "D1B76089-C2CA-459D-9B35-7EF71253C59F";
paths = (
{
closed = 1;
nodes = (
"329 -6 OFFCURVE",
"388 60 OFFCURVE",
"388 143 CURVE SMOOTH",
"388 235 OFFCURVE",
"329 295 OFFCURVE",
"247 295 CURVE SMOOTH",
"161 295 OFFCURVE",
"105 237 OFFCURVE",
"72 182 CURVE",
"81 154 LINE",
"124 227 OFFCURVE",
"177 270 OFFCURVE",
"245 270 CURVE SMOOTH",
"308 270 OFFCURVE",
"360 227 OFFCURVE",
"360 143 CURVE SMOOTH",
"360 65 OFFCURVE",
"301 19 OFFCURVE",
"237 19 CURVE SMOOTH",
"128 19 OFFCURVE",
"75 129 OFFCURVE",
"75 261 CURVE SMOOTH",
"75 416 OFFCURVE",
"184 524 OFFCURVE",
"318 524 CURVE SMOOTH",
"447 524 OFFCURVE",
"522 448 OFFCURVE",
"522 320 CURVE SMOOTH",
"522 0 LINE",
"539 0 LINE",
"539 354 LINE",
"540 384 LINE",
"517 481 OFFCURVE",
"448 549 OFFCURVE",
"318 549 CURVE SMOOTH",
"169 549 OFFCURVE",
"48 431 OFFCURVE",
"48 261 CURVE SMOOTH",
"48 100 OFFCURVE",
"119 -6 OFFCURVE",
"237 -6 CURVE SMOOTH"
);
},
{
closed = 1;
nodes = (
"663 549 OFFCURVE",
"556 488 OFFCURVE",
"531 351 CURVE",
"532 290 LINE",
"532 0 LINE",
"549 0 LINE",
"549 286 LINE SMOOTH",
"549 462 OFFCURVE",
"672 524 OFFCURVE",
"774 524 CURVE SMOOTH",
"869 524 OFFCURVE",
"930 481 OFFCURVE",
"930 403 CURVE SMOOTH",
"930 326 OFFCURVE",
"876 288 OFFCURVE",
"784 288 CURVE SMOOTH",
"752 288 LINE",
"752 263 LINE",
"784 263 LINE SMOOTH",
"879 263 OFFCURVE",
"941 219 OFFCURVE",
"941 136 CURVE SMOOTH",
"941 69 OFFCURVE",
"904 19 OFFCURVE",
"820 19 CURVE SMOOTH",
"776 19 OFFCURVE",
"734 32 OFFCURVE",
"705 55 CURVE",
"702 51 OFFCURVE",
"701 47 OFFCURVE",
"701 42 CURVE SMOOTH",
"701 25 OFFCURVE",
"743 -6 OFFCURVE",
"820 -6 CURVE SMOOTH",
"915 -6 OFFCURVE",
"969 50 OFFCURVE",
"969 136 CURVE SMOOTH",
"969 219 OFFCURVE",
"915 262 OFFCURVE",
"850 273 CURVE",
"850 275 LINE",
"927 293 OFFCURVE",
"958 337 OFFCURVE",
"958 406 CURVE SMOOTH",
"958 482 OFFCURVE",
"903 549 OFFCURVE",
"773 549 CURVE SMOOTH"
);
}
);
width = 1013;
},
{
layerId = "C0B026C4-A727-4B54-9AF4-B5E9F769E1F3";
paths = (
{
closed = 1;
nodes = (
"389 -8 OFFCURVE",
"447 62 OFFCURVE",
"447 163 CURVE SMOOTH",
"447 250 OFFCURVE",
"395 330 OFFCURVE",
"270 330 CURVE SMOOTH",
"175 330 OFFCURVE",
"116 273 OFFCURVE",
"79 215 CURVE",
"94 148 LINE",
"123 205 OFFCURVE",
"165 253 OFFCURVE",
"220 253 CURVE SMOOTH",
"268 253 OFFCURVE",
"288 216 OFFCURVE",
"288 160 CURVE SMOOTH",
"288 97 OFFCURVE",
"266 69 OFFCURVE",
"218 69 CURVE SMOOTH",
"176 69 OFFCURVE",
"112 115 OFFCURVE",
"112 248 CURVE SMOOTH",
"112 410 OFFCURVE",
"228 494 OFFCURVE",
"349 494 CURVE SMOOTH",
"452 494 OFFCURVE",
"507 432 OFFCURVE",
"507 307 CURVE SMOOTH",
"507 0 LINE",
"710 0 LINE",
"710 373 LINE",
"677 434 LINE",
"605 535 OFFCURVE",
"518 575 OFFCURVE",
"382 575 CURVE SMOOTH",
"194 575 OFFCURVE",
"38 459 OFFCURVE",
"38 254 CURVE SMOOTH",
"38 104 OFFCURVE",
"110 -8 OFFCURVE",
"250 -8 CURVE SMOOTH"
);
},
{
closed = 1;
nodes = (
"746 575 OFFCURVE",
"643 470 OFFCURVE",
"607 334 CURVE",
"517 324 LINE",
"517 0 LINE",
"720 0 LINE",
"720 318 LINE SMOOTH",
"720 420 OFFCURVE",
"782 492 OFFCURVE",
"870 492 CURVE SMOOTH",
"923 492 OFFCURVE",
"967 467 OFFCURVE",
"967 402 CURVE SMOOTH",
"967 346 OFFCURVE",
"929 319 OFFCURVE",
"864 319 CURVE SMOOTH",
"851 319 LINE",
"851 249 LINE",
"861 249 LINE SMOOTH",
"933 249 OFFCURVE",
"972 218 OFFCURVE",
"972 155 CURVE SMOOTH",
"972 102 OFFCURVE",
"945 76 OFFCURVE",
"898 76 CURVE SMOOTH",
"872 76 OFFCURVE",
"847 83 OFFCURVE",
"819 100 CURVE",
"816 95 OFFCURVE",
"813 87 OFFCURVE",
"813 74 CURVE SMOOTH",
"813 40 OFFCURVE",
"849 -8 OFFCURVE",
"989 -8 CURVE SMOOTH",
"1124 -8 OFFCURVE",
"1191 52 OFFCURVE",
"1191 135 CURVE SMOOTH",
"1191 208 OFFCURVE",
"1156 257 OFFCURVE",
"1044 282 CURVE",
"1044 286 LINE",
"1145 302 OFFCURVE",
"1184 348 OFFCURVE",
"1184 417 CURVE SMOOTH",
"1184 510 OFFCURVE",
"1095 575 OFFCURVE",
"934 575 CURVE SMOOTH"
);
}
);
width = 1221;
}
);
leftMetricsKey = nnamlym;
unicode = 0D19;
},
{
glyphname = camlym;
lastChange = "2019-06-05 08:30:18 +0000";
layers = (
{
layerId = UUID0;
paths = (
{
closed = 1;
nodes = (
"862 0 LINE",
"862 554 LINE",
"767 554 LINE",
"767 54 LINE",
"17 54 LINE",
"17 0 LINE"
);
},
{
closed = 1;
nodes = (
"439 20 LINE",
"491 65 OFFCURVE",
"531 114 OFFCURVE",
"531 203 CURVE SMOOTH",
"531 316 OFFCURVE",
"448 376 OFFCURVE",
"340 376 CURVE SMOOTH",
"219 376 OFFCURVE",
"154 289 OFFCURVE",
"154 217 CURVE SMOOTH",
"154 169 OFFCURVE",
"169 137 OFFCURVE",
"205 137 CURVE SMOOTH",
"210 137 OFFCURVE",
"218 138 OFFCURVE",
"222 140 CURVE",
"215 160 OFFCURVE",
"212 179 OFFCURVE",
"212 197 CURVE SMOOTH",
"212 261 OFFCURVE",
"247 316 OFFCURVE",
"329 316 CURVE SMOOTH",
"394 316 OFFCURVE",
"440 271 OFFCURVE",
"440 199 CURVE SMOOTH",
"440 118 OFFCURVE",
"404 66 OFFCURVE",
"370 39 CURVE",
"390 22 LINE"
);
}
);
width = 934;
},
{
color = -1;
layerId = "D1B76089-C2CA-459D-9B35-7EF71253C59F";
paths = (
{
closed = 1;
nodes = (
"806 0 LINE",
"806 543 LINE",
"778 543 LINE",
"778 25 LINE",
"17 25 LINE",
"17 0 LINE"
);
},
{
closed = 1;
nodes = (
"390 13 LINE",
"427 45 OFFCURVE",
"481 98 OFFCURVE",
"481 190 CURVE SMOOTH",
"481 282 OFFCURVE",
"417 345 OFFCURVE",
"330 345 CURVE SMOOTH",
"226 345 OFFCURVE",
"169 275 OFFCURVE",
"169 202 CURVE SMOOTH",
"169 169 OFFCURVE",
"179 139 OFFCURVE",
"198 139 CURVE SMOOTH",
"202 139 OFFCURVE",
"205 140 OFFCURVE",
"207 142 CURVE",
"199 161 OFFCURVE",
"197 180 OFFCURVE",
"197 202 CURVE SMOOTH",
"197 270 OFFCURVE",
"247 320 OFFCURVE",
"329 320 CURVE SMOOTH",
"408 320 OFFCURVE",
"453 262 OFFCURVE",
"453 190 CURVE SMOOTH",
"453 105 OFFCURVE",
"405 56 OFFCURVE",
"366 22 CURVE",
"371 13 LINE"
);
}
);
width = 884;
},
{
layerId = "C0B026C4-A727-4B54-9AF4-B5E9F769E1F3";
paths = (
{
closed = 1;
nodes = (
"977 0 LINE",
"977 567 LINE",
"762 567 LINE",
"762 73 LINE",
"17 73 LINE",
"17 0 LINE"
);
},
{
closed = 1;
nodes = (
"488 41 LINE",
"539 79 OFFCURVE",
"574 119 OFFCURVE",
"574 205 CURVE SMOOTH",
"574 305 OFFCURVE",
"486 379 OFFCURVE",
"344 379 CURVE SMOOTH",
"186 379 OFFCURVE",
"121 295 OFFCURVE",
"121 223 CURVE SMOOTH",
"121 175 OFFCURVE",
"141 141 OFFCURVE",
"191 141 CURVE SMOOTH",
"196 141 OFFCURVE",
"204 142 OFFCURVE",
"208 144 CURVE",
"201 164 OFFCURVE",
"198 185 OFFCURVE",
"198 203 CURVE SMOOTH",
"198 258 OFFCURVE",
"232 303 OFFCURVE",
"292 303 CURVE SMOOTH",
"345 303 OFFCURVE",
"380 266 OFFCURVE",
"380 201 CURVE SMOOTH",
"380 144 OFFCURVE",
"364 100 OFFCURVE",
"332 63 CURVE",
"360 43 LINE"
);
}
);
width = 1039;
}
);
rightMetricsKey = pamlym;
unicode = 0D1A;
},
{
glyphname = chamlym;
lastChange = "2019-06-05 08:30:18 +0000";
layers = (
{
layerId = UUID0;
paths = (
{
closed = 1;
nodes = (
"1199 -6 OFFCURVE",
"1270 106 OFFCURVE",
"1270 234 CURVE SMOOTH",
"1270 420 OFFCURVE",
"1153 560 OFFCURVE",
"964 560 CURVE SMOOTH",
"808 560 OFFCURVE",
"669 450 OFFCURVE",
"669 256 CURVE SMOOTH",
"669 172 OFFCURVE",
"699 99 OFFCURVE",
"740 54 CURVE",
"17 54 LINE",
"17 0 LINE",
"803 0 LINE",
"827 38 LINE",
"770 88 OFFCURVE",
"728 160 OFFCURVE",
"728 254 CURVE SMOOTH",
"728 402 OFFCURVE",
"821 498 OFFCURVE",
"955 498 CURVE SMOOTH",
"1102 498 OFFCURVE",
"1173 364 OFFCURVE",
"1173 232 CURVE SMOOTH",
"1173 95 OFFCURVE",
"1123 54 OFFCURVE",
"1061 54 CURVE SMOOTH",
"995 54 OFFCURVE",
"950 106 OFFCURVE",
"950 199 CURVE SMOOTH",
"950 307 OFFCURVE",
"1000 412 OFFCURVE",
"1088 484 CURVE",
"1055 523 LINE",
"955 439 OFFCURVE",
"892 334 OFFCURVE",
"892 204 CURVE SMOOTH",
"892 80 OFFCURVE",
"955 -6 OFFCURVE",
"1071 -6 CURVE SMOOTH"
);
},
{
closed = 1;
nodes = (
"437 20 LINE",
"489 65 OFFCURVE",
"529 114 OFFCURVE",
"529 203 CURVE SMOOTH",
"529 316 OFFCURVE",
"446 376 OFFCURVE",
"338 376 CURVE SMOOTH",
"217 376 OFFCURVE",
"152 289 OFFCURVE",
"152 217 CURVE SMOOTH",
"152 169 OFFCURVE",
"167 137 OFFCURVE",
"203 137 CURVE SMOOTH",
"208 137 OFFCURVE",
"216 138 OFFCURVE",
"220 140 CURVE",
"213 160 OFFCURVE",
"210 179 OFFCURVE",
"210 197 CURVE SMOOTH",
"210 261 OFFCURVE",
"245 316 OFFCURVE",
"327 316 CURVE SMOOTH",
"392 316 OFFCURVE",
"438 271 OFFCURVE",
"438 199 CURVE SMOOTH",
"438 118 OFFCURVE",
"402 66 OFFCURVE",
"368 39 CURVE",
"388 22 LINE"
);
}
);
width = 1312;
},
{
color = -1;
layerId = "D1B76089-C2CA-459D-9B35-7EF71253C59F";
paths = (
{
closed = 1;
nodes = (
"1132 -6 OFFCURVE",
"1191 90 OFFCURVE",
"1191 237 CURVE SMOOTH",
"1191 421 OFFCURVE",
"1077 549 OFFCURVE",
"918 549 CURVE SMOOTH",
"763 549 OFFCURVE",
"641 433 OFFCURVE",
"641 256 CURVE SMOOTH",
"641 151 OFFCURVE",
"686 66 OFFCURVE",
"729 25 CURVE",
"17 25 LINE",
"17 0 LINE",
"759 0 LINE",
"769 19 LINE",
"709 70 OFFCURVE",
"669 154 OFFCURVE",
"669 256 CURVE SMOOTH",
"669 398 OFFCURVE",
"762 524 OFFCURVE",
"918 524 CURVE SMOOTH",
"1062 524 OFFCURVE",
"1163 406 OFFCURVE",
"1163 237 CURVE SMOOTH",
"1163 106 OFFCURVE",
"1115 19 OFFCURVE",
"1021 19 CURVE SMOOTH",
"945 19 OFFCURVE",
"890 92 OFFCURVE",
"890 206 CURVE SMOOTH",
"890 340 OFFCURVE",
"958 441 OFFCURVE",
"1040 498 CURVE",
"1022 516 LINE",
"930 453 OFFCURVE",
"862 343 OFFCURVE",
"862 206 CURVE SMOOTH",
"862 88 OFFCURVE",
"921 -6 OFFCURVE",
"1021 -6 CURVE SMOOTH"
);
},
{
closed = 1;
nodes = (
"390 13 LINE",
"427 45 OFFCURVE",
"481 98 OFFCURVE",
"481 190 CURVE SMOOTH",
"481 282 OFFCURVE",
"417 345 OFFCURVE",
"330 345 CURVE SMOOTH",
"226 345 OFFCURVE",
"169 275 OFFCURVE",
"169 202 CURVE SMOOTH",
"169 169 OFFCURVE",
"179 139 OFFCURVE",
"198 139 CURVE SMOOTH",
"202 139 OFFCURVE",
"205 140 OFFCURVE",
"207 142 CURVE",
"199 161 OFFCURVE",
"197 180 OFFCURVE",
"197 202 CURVE SMOOTH",
"197 270 OFFCURVE",
"247 320 OFFCURVE",
"329 320 CURVE SMOOTH",
"408 320 OFFCURVE",
"453 262 OFFCURVE",
"453 190 CURVE SMOOTH",
"453 105 OFFCURVE",
"405 56 OFFCURVE",
"366 22 CURVE",
"371 13 LINE"
);
}
);
width = 1239;
},
{
layerId = "C0B026C4-A727-4B54-9AF4-B5E9F769E1F3";
paths = (
{
closed = 1;
nodes = (
"1235 -8 OFFCURVE",
"1336 82 OFFCURVE",
"1336 246 CURVE SMOOTH",
"1336 438 OFFCURVE",
"1191 575 OFFCURVE",
"981 575 CURVE SMOOTH",
"795 575 OFFCURVE",
"661 455 OFFCURVE",
"661 263 CURVE SMOOTH",
"661 167 OFFCURVE",
"688 115 OFFCURVE",
"713 73 CURVE",
"17 73 LINE",
"17 0 LINE",
"798 0 LINE",
"822 57 LINE",
"772 104 OFFCURVE",
"739 167 OFFCURVE",
"739 264 CURVE SMOOTH",
"739 409 OFFCURVE",
"826 494 OFFCURVE",
"938 494 CURVE SMOOTH",
"1060 494 OFFCURVE",
"1114 369 OFFCURVE",
"1114 237 CURVE SMOOTH",
"1114 130 OFFCURVE",
"1091 74 OFFCURVE",
"1036 74 CURVE SMOOTH",
"980 74 OFFCURVE",
"957 131 OFFCURVE",
"957 214 CURVE SMOOTH",
"957 333 OFFCURVE",
"1018 430 OFFCURVE",
"1098 489 CURVE",
"1038 532 LINE",
"960 463 OFFCURVE",
"879 368 OFFCURVE",
"879 217 CURVE SMOOTH",
"879 83 OFFCURVE",
"938 -8 OFFCURVE",
"1086 -8 CURVE SMOOTH"
);
},
{
closed = 1;
nodes = (
"488 41 LINE",
"539 79 OFFCURVE",
"574 119 OFFCURVE",
"574 205 CURVE SMOOTH",
"574 305 OFFCURVE",
"486 379 OFFCURVE",
"344 379 CURVE SMOOTH",
"186 379 OFFCURVE",
"121 295 OFFCURVE",
"121 223 CURVE SMOOTH",
"121 175 OFFCURVE",
"141 141 OFFCURVE",
"191 141 CURVE SMOOTH",
"196 141 OFFCURVE",
"204 142 OFFCURVE",
"208 144 CURVE",
"201 164 OFFCURVE",
"198 185 OFFCURVE",
"198 203 CURVE SMOOTH",
"198 258 OFFCURVE",
"232 303 OFFCURVE",
"292 303 CURVE SMOOTH",
"345 303 OFFCURVE",
"380 266 OFFCURVE",
"380 201 CURVE SMOOTH",
"380 144 OFFCURVE",
"364 100 OFFCURVE",
"332 63 CURVE",
"360 43 LINE"
);
}
);
width = 1373;
}
);
leftMetricsKey = camlym;
rightMetricsKey = ramlym;
unicode = 0D1B;
},
{
glyphname = jamlym;
lastChange = "2019-06-05 08:30:18 +0000";
layers = (
{
layerId = UUID0;
paths = (
{
closed = 1;
nodes = (
"367 -6 OFFCURVE",
"524 56 OFFCURVE",
"641 117 CURVE",
"659 128 LINE",
"698 150 OFFCURVE",
"735 164 OFFCURVE",
"764 164 CURVE SMOOTH",
"810 164 OFFCURVE",
"831 138 OFFCURVE",
"831 104 CURVE SMOOTH",
"831 70 OFFCURVE",
"804 48 OFFCURVE",
"764 48 CURVE SMOOTH",
"710 48 OFFCURVE",
"687 73 OFFCURVE",
"660 130 CURVE",
"613 108 LINE",
"635 48 OFFCURVE",
"680 -9 OFFCURVE",
"774 -9 CURVE SMOOTH",
"867 -9 OFFCURVE",
"913 40 OFFCURVE",
"913 101 CURVE SMOOTH",
"913 149 OFFCURVE",
"878 200 OFFCURVE",
"790 200 CURVE SMOOTH",
"754 200 OFFCURVE",
"736 195 OFFCURVE",
"703 184 CURVE",
"673 180 OFFCURVE",
"654 173 OFFCURVE",
"640 167 CURVE SMOOTH",
"460 88 OFFCURVE",
"343 50 OFFCURVE",
"230 50 CURVE SMOOTH",
"160 50 OFFCURVE",
"124 64 OFFCURVE",
"124 102 CURVE SMOOTH",
"124 138 OFFCURVE",
"150 154 OFFCURVE",
"192 154 CURVE SMOOTH",
"468 154 LINE SMOOTH",
"559 154 OFFCURVE",
"623 160 OFFCURVE",
"654 166 CURVE SMOOTH",
"700 175 OFFCURVE",
"746 185 OFFCURVE",
"785 196 CURVE",
"887 224 OFFCURVE",
"925 294 OFFCURVE",
"925 376 CURVE SMOOTH",
"925 478 OFFCURVE",
"843 560 OFFCURVE",
"722 560 CURVE SMOOTH",
"602 560 OFFCURVE",
"521 480 OFFCURVE",
"507 380 CURVE",
"565 398 LINE",
"510 524 OFFCURVE",
"408 560 OFFCURVE",
"300 560 CURVE SMOOTH",
"117 560 OFFCURVE",
"48 461 OFFCURVE",
"48 373 CURVE SMOOTH",
"48 284 OFFCURVE",
"110 226 OFFCURVE",
"211 226 CURVE SMOOTH",
"322 226 OFFCURVE",
"365 277 OFFCURVE",
"365 339 CURVE SMOOTH",
"365 391 OFFCURVE",
"325 453 OFFCURVE",
"233 453 CURVE SMOOTH",
"163 453 OFFCURVE",
"117 417 OFFCURVE",
"79 353 CURVE",
"98 312 LINE",
"123 364 OFFCURVE",
"157 397 OFFCURVE",
"211 397 CURVE SMOOTH",
"262 397 OFFCURVE",
"283 368 OFFCURVE",
"283 339 CURVE SMOOTH",
"283 304 OFFCURVE",
"261 280 OFFCURVE",
"201 280 CURVE SMOOTH",
"125 280 OFFCURVE",
"99 319 OFFCURVE",
"99 372 CURVE SMOOTH",
"99 432 OFFCURVE",
"138 502 OFFCURVE",
"279 502 CURVE SMOOTH",
"383 502 OFFCURVE",
"474 462 OFFCURVE",
"474 336 CURVE SMOOTH",
"474 244 LINE",
"569 244 LINE",
"569 347 LINE SMOOTH",
"569 466 OFFCURVE",
"635 500 OFFCURVE",
"700 500 CURVE SMOOTH",
"774 500 OFFCURVE",
"827 451 OFFCURVE",
"827 367 CURVE SMOOTH",
"827 303 OFFCURVE",
"810 261 OFFCURVE",
"764 234 CURVE SMOOTH",
"732 215 OFFCURVE",
"679 206 OFFCURVE",
"591 206 CURVE SMOOTH",
"192 206 LINE SMOOTH",
"98 206 OFFCURVE",
"42 173 OFFCURVE",
"42 105 CURVE SMOOTH",
"42 29 OFFCURVE",
"93 -6 OFFCURVE",
"214 -6 CURVE SMOOTH"
);
}
);
width = 967;
},
{
color = -1;
layerId = "D1B76089-C2CA-459D-9B35-7EF71253C59F";
paths = (
{
closed = 1;
nodes = (
"324 -6 OFFCURVE",
"388 29 OFFCURVE",
"569 128 CURVE",
"581 135 LINE",
"626 160 OFFCURVE",
"673 182 OFFCURVE",
"714 182 CURVE SMOOTH",
"764 182 OFFCURVE",
"798 149 OFFCURVE",
"798 97 CURVE SMOOTH",
"798 37 OFFCURVE",
"760 19 OFFCURVE",
"714 19 CURVE SMOOTH",
"656 19 OFFCURVE",
"617 52 OFFCURVE",
"581 148 CURVE",
"558 138 LINE",
"600 28 OFFCURVE",
"649 -6 OFFCURVE",
"715 -6 CURVE SMOOTH",
"786 -6 OFFCURVE",
"826 31 OFFCURVE",
"826 95 CURVE SMOOTH",
"826 150 OFFCURVE",
"793 202 OFFCURVE",
"718 202 CURVE SMOOTH",
"698 202 OFFCURVE",
"674 195 OFFCURVE",
"654 186 CURVE",
"622 177 OFFCURVE",
"589 163 OFFCURVE",
"561 149 CURVE SMOOTH",
"354 44 OFFCURVE",
"300 19 OFFCURVE",
"185 19 CURVE SMOOTH",
"113 19 OFFCURVE",
"76 48 OFFCURVE",
"76 97 CURVE SMOOTH",
"76 141 OFFCURVE",
"107 166 OFFCURVE",
"187 166 CURVE SMOOTH",
"522 166 LINE SMOOTH",
"575 166 OFFCURVE",
"610 170 OFFCURVE",
"641 175 CURVE SMOOTH",
"664 179 OFFCURVE",
"688 183 OFFCURVE",
"708 189 CURVE SMOOTH",
"787 213 OFFCURVE",
"834 266 OFFCURVE",
"834 370 CURVE SMOOTH",
"834 474 OFFCURVE",
"761 549 OFFCURVE",
"654 549 CURVE SMOOTH",
"563 549 OFFCURVE",
"498 494 OFFCURVE",
"483 388 CURVE",
"492 383 LINE",
"477 485 OFFCURVE",
"401 549 OFFCURVE",
"283 549 CURVE SMOOTH",
"110 549 OFFCURVE",
"54 445 OFFCURVE",
"54 366 CURVE SMOOTH",
"54 286 OFFCURVE",
"106 223 OFFCURVE",
"209 223 CURVE SMOOTH",
"297 223 OFFCURVE",
"352 258 OFFCURVE",
"352 331 CURVE SMOOTH",
"352 389 OFFCURVE",
"310 438 OFFCURVE",
"223 438 CURVE SMOOTH",
"156 438 OFFCURVE",
"101 401 OFFCURVE",
"67 340 CURVE",
"75 315 LINE",
"109 374 OFFCURVE",
"156 413 OFFCURVE",
"221 413 CURVE SMOOTH",
"282 413 OFFCURVE",
"324 385 OFFCURVE",
"324 331 CURVE SMOOTH",
"324 279 OFFCURVE",
"291 248 OFFCURVE",
"209 248 CURVE SMOOTH",
"115 248 OFFCURVE",
"80 303 OFFCURVE",
"80 366 CURVE SMOOTH",
"80 441 OFFCURVE",
"132 524 OFFCURVE",
"282 524 CURVE SMOOTH",
"403 524 OFFCURVE",
"475 454 OFFCURVE",
"475 332 CURVE SMOOTH",
"475 242 LINE",
"502 242 LINE",
"502 354 LINE SMOOTH",
"502 459 OFFCURVE",
"563 524 OFFCURVE",
"655 524 CURVE SMOOTH",
"745 524 OFFCURVE",
"806 465 OFFCURVE",
"806 370 CURVE SMOOTH",
"806 308 OFFCURVE",
"788 260 OFFCURVE",
"747 231 CURVE SMOOTH",
"710 205 OFFCURVE",
"663 191 OFFCURVE",
"553 191 CURVE SMOOTH",
"184 191 LINE SMOOTH",
"103 191 OFFCURVE",
"48 161 OFFCURVE",
"48 97 CURVE SMOOTH",
"48 22 OFFCURVE",
"114 -6 OFFCURVE",
"184 -6 CURVE SMOOTH"
);
}
);
width = 882;
},
{
layerId = "C0B026C4-A727-4B54-9AF4-B5E9F769E1F3";
paths = (
{
closed = 1;
nodes = (
"462 -10 OFFCURVE",
"608 57 OFFCURVE",
"731 119 CURVE",
"762 129 LINE",
"792 150 OFFCURVE",
"829 163 OFFCURVE",
"857 163 CURVE SMOOTH",
"895 163 OFFCURVE",
"915 145 OFFCURVE",
"915 115 CURVE SMOOTH",
"915 85 OFFCURVE",
"895 72 OFFCURVE",
"862 72 CURVE SMOOTH",
"823 72 OFFCURVE",
"794 97 OFFCURVE",
"770 144 CURVE",
"696 107 LINE",
"735 51 OFFCURVE",
"782 -8 OFFCURVE",
"905 -8 CURVE SMOOTH",
"1010 -8 OFFCURVE",
"1063 42 OFFCURVE",
"1063 108 CURVE SMOOTH",
"1063 158 OFFCURVE",
"1033 218 OFFCURVE",
"914 218 CURVE SMOOTH",
"873 218 OFFCURVE",
"837 205 OFFCURVE",
"801 192 CURVE",
"769 186 OFFCURVE",
"675 174 OFFCURVE",
"673 173 CURVE SMOOTH",
"556 115 OFFCURVE",
"420 68 OFFCURVE",
"285 68 CURVE SMOOTH",
"200 68 OFFCURVE",
"171 79 OFFCURVE",
"171 108 CURVE SMOOTH",
"171 128 OFFCURVE",
"188 140 OFFCURVE",
"234 140 CURVE SMOOTH",
"502 140 LINE SMOOTH",
"596 140 OFFCURVE",
"682 146 OFFCURVE",
"734 157 CURVE",
"784 160 OFFCURVE",
"895 181 OFFCURVE",
"936 192 CURVE",
"1039 229 OFFCURVE",
"1075 291 OFFCURVE",
"1075 380 CURVE SMOOTH",
"1075 495 OFFCURVE",
"996 575 OFFCURVE",
"845 575 CURVE SMOOTH",
"714 575 OFFCURVE",
"645 520 OFFCURVE",
"596 426 CURVE",
"682 426 LINE",
"625 519 OFFCURVE",
"528 575 OFFCURVE",
"343 575 CURVE SMOOTH",
"160 575 OFFCURVE",
"44 501 OFFCURVE",
"44 379 CURVE SMOOTH",
"44 273 OFFCURVE",
"118 222 OFFCURVE",
"241 222 CURVE SMOOTH",
"381 222 OFFCURVE",
"424 277 OFFCURVE",
"424 346 CURVE SMOOTH",
"424 406 OFFCURVE",
"374 458 OFFCURVE",
"271 458 CURVE SMOOTH",
"198 458 OFFCURVE",
"142 426 OFFCURVE",
"101 372 CURVE",
"119 322 LINE",
"152 363 OFFCURVE",
"188 388 OFFCURVE",
"231 388 CURVE SMOOTH",
"271 388 OFFCURVE",
"289 368 OFFCURVE",
"289 340 CURVE SMOOTH",
"289 305 OFFCURVE",
"263 290 OFFCURVE",
"216 290 CURVE SMOOTH",
"159 290 OFFCURVE",
"118 313 OFFCURVE",
"118 375 CURVE SMOOTH",
"118 453 OFFCURVE",
"185 500 OFFCURVE",
"303 500 CURVE SMOOTH",
"434 500 OFFCURVE",
"484 437 OFFCURVE",
"484 336 CURVE SMOOTH",
"484 244 LINE",
"694 244 LINE",
"694 380 LINE SMOOTH",
"694 447 OFFCURVE",
"724 495 OFFCURVE",
"775 495 CURVE SMOOTH",
"837 495 OFFCURVE",
"856 434 OFFCURVE",
"856 376 CURVE SMOOTH",
"856 318 OFFCURVE",
"843 276 OFFCURVE",
"811 249 CURVE SMOOTH",
"781 223 OFFCURVE",
"739 210 OFFCURVE",
"652 210 CURVE SMOOTH",
"197 210 LINE SMOOTH",
"89 210 OFFCURVE",
"38 170 OFFCURVE",
"38 105 CURVE SMOOTH",
"38 32 OFFCURVE",
"89 -10 OFFCURVE",
"268 -10 CURVE SMOOTH"
);
}
);
width = 1113;
}
);
unicode = 0D1C;
},
{
glyphname = jhamlym;
lastChange = "2019-06-05 08:30:18 +0000";
layers = (
{
layerId = UUID0;
paths = (
{
closed = 1;
nodes = (
"215 -6 OFFCURVE",
"230 0 OFFCURVE",
"238 11 CURVE",
"159 61 OFFCURVE",
"101 136 OFFCURVE",
"101 254 CURVE SMOOTH",
"101 397 OFFCURVE",
"193 500 OFFCURVE",
"323 500 CURVE SMOOTH",
"473 500 OFFCURVE",
"550 371 OFFCURVE",
"550 219 CURVE SMOOTH",
"550 101 OFFCURVE",
"497 54 OFFCURVE",
"435 54 CURVE SMOOTH",
"369 54 OFFCURVE",
"324 113 OFFCURVE",
"324 208 CURVE SMOOTH",
"324 406 OFFCURVE",
"458 500 OFFCURVE",
"581 500 CURVE SMOOTH",
"632 500 OFFCURVE",
"669 488 OFFCURVE",
"704 456 CURVE SMOOTH",
"736 426 OFFCURVE",
"758 377 OFFCURVE",
"758 278 CURVE SMOOTH",
"758 233 LINE SMOOTH",
"758 65 OFFCURVE",
"840 -6 OFFCURVE",
"948 -6 CURVE SMOOTH",
"1026 -6 OFFCURVE",
"1099 37 OFFCURVE",
"1135 141 CURVE",
"1093 146 LINE",
"1118 57 OFFCURVE",
"1185 -6 OFFCURVE",
"1290 -6 CURVE SMOOTH",
"1436 -6 OFFCURVE",
"1522 126 OFFCURVE",
"1522 275 CURVE SMOOTH",
"1522 449 OFFCURVE",
"1422 560 OFFCURVE",
"1362 560 CURVE SMOOTH",
"1348 560 OFFCURVE",
"1334 554 OFFCURVE",
"1325 543 CURVE",
"1405 483 OFFCURVE",
"1463 409 OFFCURVE",
"1463 271 CURVE SMOOTH",
"1463 160 OFFCURVE",
"1408 54 OFFCURVE",
"1299 54 CURVE SMOOTH",
"1224 54 OFFCURVE",
"1174 111 OFFCURVE",
"1174 200 CURVE SMOOTH",
"1174 554 LINE",
"1079 554 LINE",
"1079 199 LINE SMOOTH",
"1079 97 OFFCURVE",
"1017 54 OFFCURVE",
"963 54 CURVE SMOOTH",
"892 54 OFFCURVE",
"855 100 OFFCURVE",
"855 222 CURVE SMOOTH",
"855 287 LINE SMOOTH",
"855 405 OFFCURVE",
"820 470 OFFCURVE",
"761 513 CURVE SMOOTH",
"718 544 OFFCURVE",
"664 560 OFFCURVE",
"596 560 CURVE SMOOTH",
"440 560 OFFCURVE",
"265 441 OFFCURVE",
"265 214 CURVE SMOOTH",
"265 85 OFFCURVE",
"329 -6 OFFCURVE",
"445 -6 CURVE SMOOTH",
"573 -6 OFFCURVE",
"643 106 OFFCURVE",
"643 235 CURVE SMOOTH",
"643 407 OFFCURVE",
"513 560 OFFCURVE",
"329 560 CURVE SMOOTH",
"169 560 OFFCURVE",
"42 443 OFFCURVE",
"42 256 CURVE SMOOTH",
"42 92 OFFCURVE",
"137 -6 OFFCURVE",
"201 -6 CURVE SMOOTH"
);
}
);
width = 1564;
},
{
color = -1;
layerId = "D1B76089-C2CA-459D-9B35-7EF71253C59F";
paths = (
{
closed = 1;
nodes = (
"192 -6 OFFCURVE",
"197 -4 OFFCURVE",
"202 1 CURVE",
"114 57 OFFCURVE",
"76 159 OFFCURVE",
"76 256 CURVE SMOOTH",
"76 446 OFFCURVE",
"215 524 OFFCURVE",
"320 524 CURVE SMOOTH",
"460 524 OFFCURVE",
"574 408 OFFCURVE",
"574 226 CURVE SMOOTH",
"574 104 OFFCURVE",
"519 19 OFFCURVE",
"440 19 CURVE SMOOTH",
"354 19 OFFCURVE",
"306 107 OFFCURVE",
"306 211 CURVE SMOOTH",
"306 439 OFFCURVE",
"468 524 OFFCURVE",
"571 524 CURVE SMOOTH",
"629 524 OFFCURVE",
"671 509 OFFCURVE",
"703 479 CURVE SMOOTH",
"741 443 OFFCURVE",
"759 392 OFFCURVE",
"759 285 CURVE SMOOTH",
"759 199 LINE SMOOTH",
"759 48 OFFCURVE",
"831 -6 OFFCURVE",
"915 -6 CURVE SMOOTH",
"1011 -6 OFFCURVE",
"1059 55 OFFCURVE",
"1072 139 CURVE",
"1061 147 LINE",
"1072 67 OFFCURVE",
"1130 -6 OFFCURVE",
"1229 -6 CURVE SMOOTH",
"1353 -6 OFFCURVE",
"1438 82 OFFCURVE",
"1438 257 CURVE SMOOTH",
"1438 444 OFFCURVE",
"1333 549 OFFCURVE",
"1292 549 CURVE SMOOTH",
"1284 549 OFFCURVE",
"1278 546 OFFCURVE",
"1274 542 CURVE",
"1348 496 OFFCURVE",
"1410 398 OFFCURVE",
"1410 257 CURVE SMOOTH",
"1410 91 OFFCURVE",
"1329 19 OFFCURVE",
"1230 19 CURVE SMOOTH",
"1139 19 OFFCURVE",
"1080 92 OFFCURVE",
"1080 186 CURVE SMOOTH",
"1080 543 LINE",
"1053 543 LINE",
"1053 183 LINE SMOOTH",
"1053 76 OFFCURVE",
"1000 19 OFFCURVE",
"917 19 CURVE SMOOTH",
"834 19 OFFCURVE",
"787 75 OFFCURVE",
"787 208 CURVE SMOOTH",
"787 294 LINE SMOOTH",
"787 390 OFFCURVE",
"769 454 OFFCURVE",
"723 497 CURVE SMOOTH",
"689 529 OFFCURVE",
"642 549 OFFCURVE",
"571 549 CURVE SMOOTH",
"463 549 OFFCURVE",
"278 456 OFFCURVE",
"278 211 CURVE SMOOTH",
"278 77 OFFCURVE",
"342 -6 OFFCURVE",
"440 -6 CURVE SMOOTH",
"547 -6 OFFCURVE",
"602 99 OFFCURVE",
"602 226 CURVE SMOOTH",
"602 434 OFFCURVE",
"462 549 OFFCURVE",
"320 549 CURVE SMOOTH",
"202 549 OFFCURVE",
"48 459 OFFCURVE",
"48 256 CURVE SMOOTH",
"48 112 OFFCURVE",
"134 -6 OFFCURVE",
"183 -6 CURVE SMOOTH"
);
}
);
width = 1486;
},
{
layerId = "C0B026C4-A727-4B54-9AF4-B5E9F769E1F3";
paths = (
{
closed = 1;
nodes = (
"226 -9 OFFCURVE",
"239 0 OFFCURVE",
"250 15 CURVE",
"173 69 OFFCURVE",
"116 138 OFFCURVE",
"116 262 CURVE SMOOTH",
"116 405 OFFCURVE",
"200 498 OFFCURVE",
"313 498 CURVE SMOOTH",
"438 498 OFFCURVE",
"491 376 OFFCURVE",
"491 230 CURVE SMOOTH",
"491 130 OFFCURVE",
"465 74 OFFCURVE",
"413 74 CURVE SMOOTH",
"355 74 OFFCURVE",
"334 130 OFFCURVE",
"334 215 CURVE SMOOTH",
"334 390 OFFCURVE",
"476 492 OFFCURVE",
"613 492 CURVE SMOOTH",
"662 492 OFFCURVE",
"698 482 OFFCURVE",
"731 457 CURVE SMOOTH",
"768 429 OFFCURVE",
"789 378 OFFCURVE",
"789 295 CURVE SMOOTH",
"789 248 LINE SMOOTH",
"789 66 OFFCURVE",
"886 -8 OFFCURVE",
"1034 -8 CURVE SMOOTH",
"1156 -8 OFFCURVE",
"1214 47 OFFCURVE",
"1270 142 CURVE",
"1210 124 LINE",
"1244 38 OFFCURVE",
"1327 -8 OFFCURVE",
"1426 -8 CURVE SMOOTH",
"1587 -8 OFFCURVE",
"1679 109 OFFCURVE",
"1679 282 CURVE SMOOTH",
"1679 451 OFFCURVE",
"1585 575 OFFCURVE",
"1524 575 CURVE SMOOTH",
"1494 575 OFFCURVE",
"1485 563 OFFCURVE",
"1475 550 CURVE",
"1555 478 OFFCURVE",
"1601 408 OFFCURVE",
"1601 279 CURVE SMOOTH",
"1601 161 OFFCURVE",
"1547 74 OFFCURVE",
"1466 74 CURVE SMOOTH",
"1402 74 OFFCURVE",
"1379 112 OFFCURVE",
"1379 196 CURVE SMOOTH",
"1379 567 LINE",
"1166 567 LINE",
"1166 188 LINE SMOOTH",
"1166 116 OFFCURVE",
"1139 74 OFFCURVE",
"1081 74 CURVE SMOOTH",
"1038 74 OFFCURVE",
"1004 103 OFFCURVE",
"1004 197 CURVE SMOOTH",
"1004 274 LINE SMOOTH",
"1004 413 OFFCURVE",
"961 477 OFFCURVE",
"894 521 CURVE SMOOTH",
"834 561 OFFCURVE",
"763 575 OFFCURVE",
"676 575 CURVE SMOOTH",
"453 575 OFFCURVE",
"256 432 OFFCURVE",
"256 212 CURVE SMOOTH",
"256 63 OFFCURVE",
"331 -8 OFFCURVE",
"460 -8 CURVE SMOOTH",
"623 -8 OFFCURVE",
"702 77 OFFCURVE",
"702 238 CURVE SMOOTH",
"702 437 OFFCURVE",
"527 575 OFFCURVE",
"336 575 CURVE SMOOTH",
"170 575 OFFCURVE",
"38 460 OFFCURVE",
"38 258 CURVE SMOOTH",
"38 96 OFFCURVE",
"131 -9 OFFCURVE",
"201 -9 CURVE SMOOTH"
);
}
);
width = 1717;
}
);
leftMetricsKey = tamlym;
rightMetricsKey = namlym;
unicode = 0D1D;
},
{
glyphname = nyamlym;
lastChange = "2019-06-05 08:30:18 +0000";
layers = (
{
layerId = UUID0;
paths = (
{
closed = 1;
nodes = (
"359 -6 OFFCURVE",
"422 64 OFFCURVE",
"422 159 CURVE SMOOTH",
"422 252 OFFCURVE",
"356 322 OFFCURVE",
"259 322 CURVE SMOOTH",
"185 322 OFFCURVE",
"127 276 OFFCURVE",
"90 213 CURVE",
"99 152 LINE",
"128 209 OFFCURVE",
"175 261 OFFCURVE",
"235 261 CURVE SMOOTH",
"288 261 OFFCURVE",
"331 225 OFFCURVE",
"331 159 CURVE SMOOTH",
"331 100 OFFCURVE",
"298 54 OFFCURVE",
"234 54 CURVE SMOOTH",
"173 54 OFFCURVE",
"97 116 OFFCURVE",
"97 250 CURVE SMOOTH",
"97 417 OFFCURVE",
"213 500 OFFCURVE",
"329 500 CURVE SMOOTH",
"445 500 OFFCURVE",
"524 428 OFFCURVE",
"524 292 CURVE SMOOTH",
"524 0 LINE",
"609 0 LINE",
"609 361 LINE",
"593 423 LINE",
"539 522 OFFCURVE",
"438 560 OFFCURVE",
"341 560 CURVE SMOOTH",
"190 560 OFFCURVE",
"42 457 OFFCURVE",
"42 251 CURVE SMOOTH",
"42 123 OFFCURVE",
"111 -6 OFFCURVE",
"252 -6 CURVE SMOOTH"
);
},
{
closed = 1;
nodes = (
"696 560 OFFCURVE",
"609 491 OFFCURVE",
"573 401 CURVE",
"534 284 LINE",
"534 0 LINE",
"619 0 LINE",
"619 296 LINE SMOOTH",
"619 405 OFFCURVE",
"676 500 OFFCURVE",
"803 500 CURVE SMOOTH",
"943 500 OFFCURVE",
"1019 371 OFFCURVE",
"1019 219 CURVE SMOOTH",
"1019 101 OFFCURVE",
"966 54 OFFCURVE",
"904 54 CURVE SMOOTH",
"838 54 OFFCURVE",
"793 113 OFFCURVE",
"793 208 CURVE SMOOTH",
"793 406 OFFCURVE",
"924 500 OFFCURVE",
"1057 500 CURVE SMOOTH",
"1166 500 OFFCURVE",
"1275 419 OFFCURVE",
"1275 254 CURVE SMOOTH",
"1275 155 OFFCURVE",
"1232 53 OFFCURVE",
"1159 0 CURVE",
"1166 -4 OFFCURVE",
"1181 -8 OFFCURVE",
"1198 -8 CURVE SMOOTH",
"1273 -8 OFFCURVE",
"1374 84 OFFCURVE",
"1374 255 CURVE SMOOTH",
"1374 459 OFFCURVE",
"1231 560 OFFCURVE",
"1075 560 CURVE SMOOTH",
"905 560 OFFCURVE",
"734 441 OFFCURVE",
"734 214 CURVE SMOOTH",
"734 85 OFFCURVE",
"798 -6 OFFCURVE",
"914 -6 CURVE SMOOTH",
"1042 -6 OFFCURVE",
"1112 106 OFFCURVE",
"1112 235 CURVE SMOOTH",
"1112 407 OFFCURVE",
"983 560 OFFCURVE",
"811 560 CURVE SMOOTH"
);
}
);
width = 1416;
},
{
color = -1;
layerId = "D1B76089-C2CA-459D-9B35-7EF71253C59F";
paths = (
{
closed = 1;
nodes = (
"329 -6 OFFCURVE",
"388 60 OFFCURVE",
"388 143 CURVE SMOOTH",
"388 235 OFFCURVE",
"329 295 OFFCURVE",
"247 295 CURVE SMOOTH",
"161 295 OFFCURVE",
"105 237 OFFCURVE",
"72 182 CURVE",
"81 154 LINE",
"124 227 OFFCURVE",
"177 270 OFFCURVE",
"245 270 CURVE SMOOTH",
"308 270 OFFCURVE",
"360 227 OFFCURVE",
"360 143 CURVE SMOOTH",
"360 65 OFFCURVE",
"301 19 OFFCURVE",
"237 19 CURVE SMOOTH",
"128 19 OFFCURVE",
"75 129 OFFCURVE",
"75 261 CURVE SMOOTH",
"75 416 OFFCURVE",
"184 524 OFFCURVE",
"318 524 CURVE SMOOTH",
"447 524 OFFCURVE",
"522 448 OFFCURVE",
"522 320 CURVE SMOOTH",
"522 0 LINE",
"539 0 LINE",
"539 354 LINE",
"540 389 LINE",
"515 481 OFFCURVE",
"448 549 OFFCURVE",
"318 549 CURVE",
"169 549 OFFCURVE",
"48 431 OFFCURVE",
"48 261 CURVE SMOOTH",
"48 100 OFFCURVE",
"119 -6 OFFCURVE",
"237 -6 CURVE SMOOTH"
);
},
{
closed = 1;
nodes = (
"637 549 OFFCURVE",
"547 487 OFFCURVE",
"532 355 CURVE",
"532 295 LINE",
"532 0 LINE",
"549 0 LINE",
"549 300 LINE SMOOTH",
"549 434 OFFCURVE",
"624 524 OFFCURVE",
"759 524 CURVE SMOOTH",
"893 524 OFFCURVE",
"1005 410 OFFCURVE",
"1005 226 CURVE SMOOTH",
"1005 104 OFFCURVE",
"950 19 OFFCURVE",
"871 19 CURVE SMOOTH",
"785 19 OFFCURVE",
"737 107 OFFCURVE",
"737 211 CURVE SMOOTH",
"737 439 OFFCURVE",
"899 524 OFFCURVE",
"1005 524 CURVE SMOOTH",
"1126 524 OFFCURVE",
"1235 446 OFFCURVE",
"1235 256 CURVE SMOOTH",
"1235 137 OFFCURVE",
"1180 44 OFFCURVE",
"1109 1 CURVE",
"1112 -3 OFFCURVE",
"1120 -6 OFFCURVE",
"1130 -6 CURVE SMOOTH",
"1168 -6 OFFCURVE",
"1263 96 OFFCURVE",
"1263 256 CURVE SMOOTH",
"1263 459 OFFCURVE",
"1139 549 OFFCURVE",
"1005 549 CURVE SMOOTH",
"893 549 OFFCURVE",
"709 456 OFFCURVE",
"709 211 CURVE SMOOTH",
"709 76 OFFCURVE",
"773 -6 OFFCURVE",
"871 -6 CURVE SMOOTH",
"978 -6 OFFCURVE",
"1033 99 OFFCURVE",
"1033 226 CURVE SMOOTH",
"1033 434 OFFCURVE",
"897 549 OFFCURVE",
"759 549 CURVE SMOOTH"
);
}
);
width = 1311;
},
{
layerId = "C0B026C4-A727-4B54-9AF4-B5E9F769E1F3";
paths = (
{
closed = 1;
nodes = (
"394 -8 OFFCURVE",
"447 62 OFFCURVE",
"447 160 CURVE SMOOTH",
"447 250 OFFCURVE",
"395 330 OFFCURVE",
"270 330 CURVE SMOOTH",
"175 330 OFFCURVE",
"116 273 OFFCURVE",
"79 215 CURVE",
"94 148 LINE",
"123 205 OFFCURVE",
"165 253 OFFCURVE",
"220 253 CURVE SMOOTH",
"268 253 OFFCURVE",
"288 216 OFFCURVE",
"288 160 CURVE SMOOTH",
"288 97 OFFCURVE",
"266 69 OFFCURVE",
"218 69 CURVE SMOOTH",
"176 69 OFFCURVE",
"112 115 OFFCURVE",
"112 248 CURVE SMOOTH",
"112 410 OFFCURVE",
"228 494 OFFCURVE",
"349 494 CURVE SMOOTH",
"452 494 OFFCURVE",
"507 432 OFFCURVE",
"507 307 CURVE SMOOTH",
"507 0 LINE",
"710 0 LINE",
"710 373 LINE",
"677 434 LINE",
"605 535 OFFCURVE",
"518 575 OFFCURVE",
"382 575 CURVE SMOOTH",
"194 575 OFFCURVE",
"38 459 OFFCURVE",
"38 254 CURVE SMOOTH",
"38 104 OFFCURVE",
"112 -8 OFFCURVE",
"247 -8 CURVE SMOOTH"
);
},
{
closed = 1;
nodes = (
"778 575 OFFCURVE",
"685 507 OFFCURVE",
"627 409 CURVE",
"517 309 LINE",
"517 0 LINE",
"720 0 LINE",
"720 304 LINE SMOOTH",
"720 417 OFFCURVE",
"773 498 OFFCURVE",
"870 498 CURVE SMOOTH",
"987 498 OFFCURVE",
"1039 377 OFFCURVE",
"1039 230 CURVE SMOOTH",
"1039 130 OFFCURVE",
"1013 74 OFFCURVE",
"961 74 CURVE SMOOTH",
"903 74 OFFCURVE",
"882 130 OFFCURVE",
"882 215 CURVE SMOOTH",
"882 390 OFFCURVE",
"1024 492 OFFCURVE",
"1165 492 CURVE SMOOTH",
"1311 492 OFFCURVE",
"1368 380 OFFCURVE",
"1368 263 CURVE SMOOTH",
"1368 165 OFFCURVE",
"1342 77 OFFCURVE",
"1272 10 CURVE",
"1280 0 OFFCURVE",
"1301 -8 OFFCURVE",
"1339 -8 CURVE SMOOTH",
"1474 -8 OFFCURVE",
"1590 86 OFFCURVE",
"1590 279 CURVE SMOOTH",
"1590 473 OFFCURVE",
"1445 575 OFFCURVE",
"1233 575 CURVE SMOOTH",
"996 575 OFFCURVE",
"804 432 OFFCURVE",
"804 212 CURVE SMOOTH",
"804 63 OFFCURVE",
"879 -8 OFFCURVE",
"1008 -8 CURVE SMOOTH",
"1171 -8 OFFCURVE",
"1250 77 OFFCURVE",
"1250 238 CURVE SMOOTH",
"1250 437 OFFCURVE",
"1087 575 OFFCURVE",
"904 575 CURVE SMOOTH"
);
}
);
width = 1628;
}
);
leftMetricsKey = "=nnamlym";
rightMetricsKey = "=tamlym";
unicode = 0D1E;
},
{
glyphname = ttamlym;
lastChange = "2019-06-05 08:30:18 +0000";
layers = (
{
layerId = UUID0;
paths = (
{
closed = 1;
nodes = (
"427 -6 OFFCURVE",
"528 41 OFFCURVE",
"528 154 CURVE SMOOTH",
"528 263 OFFCURVE",
"443 315 OFFCURVE",
"290 323 CURVE SMOOTH",
"160 330 OFFCURVE",
"123 364 OFFCURVE",
"123 413 CURVE SMOOTH",
"123 465 OFFCURVE",
"163 503 OFFCURVE",
"281 503 CURVE SMOOTH",
"373 503 OFFCURVE",
"444 475 OFFCURVE",
"495 447 CURVE",
"500 455 OFFCURVE",
"504 464 OFFCURVE",
"504 475 CURVE SMOOTH",
"504 521 OFFCURVE",
"403 560 OFFCURVE",
"272 560 CURVE SMOOTH",
"153 560 OFFCURVE",
"41 513 OFFCURVE",
"41 399 CURVE SMOOTH",
"41 295 OFFCURVE",
"133 252 OFFCURVE",
"275 244 CURVE SMOOTH",
"402 237 OFFCURVE",
"444 201 OFFCURVE",
"444 144 CURVE SMOOTH",
"444 75 OFFCURVE",
"380 51 OFFCURVE",
"278 51 CURVE SMOOTH",
"170 51 OFFCURVE",
"77 95 OFFCURVE",
"43 118 CURVE",
"37 112 OFFCURVE",
"33 97 OFFCURVE",
"33 91 CURVE SMOOTH",
"33 42 OFFCURVE",
"142 -6 OFFCURVE",
"279 -6 CURVE SMOOTH"
);
}
);
width = 562;
},
{
color = -1;
layerId = "D1B76089-C2CA-459D-9B35-7EF71253C59F";
paths = (
{
closed = 1;
nodes = (
"393 -6 OFFCURVE",
"479 49 OFFCURVE",
"479 144 CURVE SMOOTH",
"479 259 OFFCURVE",
"382 282 OFFCURVE",
"263 291 CURVE SMOOTH",
"150 300 OFFCURVE",
"74 321 OFFCURVE",
"74 405 CURVE SMOOTH",
"74 481 OFFCURVE",
"143 524 OFFCURVE",
"256 524 CURVE SMOOTH",
"342 524 OFFCURVE",
"395 505 OFFCURVE",
"451 471 CURVE",
"454 475 OFFCURVE",
"455 480 OFFCURVE",
"455 485 CURVE SMOOTH",
"455 509 OFFCURVE",
"369 549 OFFCURVE",
"256 549 CURVE SMOOTH",
"139 549 OFFCURVE",
"46 503 OFFCURVE",
"46 405 CURVE SMOOTH",
"46 297 OFFCURVE",
"143 276 OFFCURVE",
"260 265 CURVE SMOOTH",
"362 255 OFFCURVE",
"451 246 OFFCURVE",
"451 144 CURVE SMOOTH",
"451 62 OFFCURVE",
"377 19 OFFCURVE",
"257 19 CURVE SMOOTH",
"156 19 OFFCURVE",
"92 40 OFFCURVE",
"41 77 CURVE",
"38 74 OFFCURVE",
"37 69 OFFCURVE",
"37 65 CURVE SMOOTH",
"37 33 OFFCURVE",
"126 -6 OFFCURVE",
"257 -6 CURVE SMOOTH"
);
}
);
width = 521;
},
{
layerId = "C0B026C4-A727-4B54-9AF4-B5E9F769E1F3";
paths = (
{
closed = 1;
nodes = (
"512 -8 OFFCURVE",
"597 72 OFFCURVE",
"597 180 CURVE SMOOTH",
"597 310 OFFCURVE",
"506 365 OFFCURVE",
"337 374 CURVE SMOOTH",
"250 379 OFFCURVE",
"220 398 OFFCURVE",
"220 438 CURVE SMOOTH",
"220 485 OFFCURVE",
"266 498 OFFCURVE",
"337 498 CURVE SMOOTH",
"422 498 OFFCURVE",
"491 476 OFFCURVE",
"564 439 CURVE",
"570 446 OFFCURVE",
"574 460 OFFCURVE",
"574 470 CURVE SMOOTH",
"574 531 OFFCURVE",
"472 574 OFFCURVE",
"327 574 CURVE SMOOTH",
"143 574 OFFCURVE",
"36 511 OFFCURVE",
"36 391 CURVE SMOOTH",
"36 282 OFFCURVE",
"107 212 OFFCURVE",
"300 201 CURVE SMOOTH",
"386 196 OFFCURVE",
"413 178 OFFCURVE",
"413 136 CURVE SMOOTH",
"413 91 OFFCURVE",
"376 68 OFFCURVE",
"290 68 CURVE SMOOTH",
"202 68 OFFCURVE",
"112 91 OFFCURVE",
"43 144 CURVE",
"32 133 OFFCURVE",
"29 120 OFFCURVE",
"29 106 CURVE SMOOTH",
"29 46 OFFCURVE",
"121 -8 OFFCURVE",
"303 -8 CURVE SMOOTH"
);
}
);
width = 627;
}
);
unicode = 0D1F;
},
{
glyphname = tthamlym;
lastChange = "2019-06-05 08:30:18 +0000";
layers = (
{
layerId = UUID0;
paths = (
{
closed = 1;
nodes = (
"476 -6 OFFCURVE",
"611 99 OFFCURVE",
"611 277 CURVE SMOOTH",
"611 455 OFFCURVE",
"472 560 OFFCURVE",
"323 560 CURVE SMOOTH",
"169 560 OFFCURVE",
"41 455 OFFCURVE",
"41 277 CURVE SMOOTH",
"41 99 OFFCURVE",
"166 -6 OFFCURVE",
"323 -6 CURVE SMOOTH"
);
},
{
closed = 1;
nodes = (
"200 54 OFFCURVE",
"100 130 OFFCURVE",
"100 277 CURVE SMOOTH",
"100 423 OFFCURVE",
"200 500 OFFCURVE",
"309 500 CURVE SMOOTH",
"416 500 OFFCURVE",
"512 428 OFFCURVE",
"512 277 CURVE SMOOTH",
"512 125 OFFCURVE",
"416 54 OFFCURVE",
"309 54 CURVE SMOOTH"
);
}
);
width = 652;
},
{
color = -1;
layerId = "D1B76089-C2CA-459D-9B35-7EF71253C59F";
paths = (
{
closed = 1;
nodes = (
"430 -6 OFFCURVE",
"571 72 OFFCURVE",
"571 271 CURVE SMOOTH",
"571 470 OFFCURVE",
"434 549 OFFCURVE",
"310 549 CURVE SMOOTH",
"189 549 OFFCURVE",
"48 471 OFFCURVE",
"48 271 CURVE SMOOTH",
"48 73 OFFCURVE",
"185 -6 OFFCURVE",
"309 -6 CURVE SMOOTH"
);
},
{
closed = 1;
nodes = (
"192 19 OFFCURVE",
"76 94 OFFCURVE",
"76 271 CURVE SMOOTH",
"76 449 OFFCURVE",
"196 524 OFFCURVE",
"310 524 CURVE SMOOTH",
"427 524 OFFCURVE",
"543 449 OFFCURVE",
"543 271 CURVE SMOOTH",
"543 94 OFFCURVE",
"423 19 OFFCURVE",
"310 19 CURVE SMOOTH"
);
}
);
width = 619;
},
{
layerId = "C0B026C4-A727-4B54-9AF4-B5E9F769E1F3";
paths = (
{
closed = 1;
nodes = (
"565 -8 OFFCURVE",
"680 106 OFFCURVE",
"680 282 CURVE SMOOTH",
"680 461 OFFCURVE",
"557 575 OFFCURVE",
"347 575 CURVE SMOOTH",
"126 575 OFFCURVE",
"36 428 OFFCURVE",
"36 282 CURVE SMOOTH",
"36 138 OFFCURVE",
"121 -8 OFFCURVE",
"343 -8 CURVE SMOOTH"
);
},
{
closed = 1;
nodes = (
"171 74 OFFCURVE",
"114 168 OFFCURVE",
"114 283 CURVE SMOOTH",
"114 399 OFFCURVE",
"171 493 OFFCURVE",
"291 493 CURVE SMOOTH",
"401 493 OFFCURVE",
"458 413 OFFCURVE",
"458 283 CURVE SMOOTH",
"458 154 OFFCURVE",
"401 74 OFFCURVE",
"291 74 CURVE SMOOTH"
);
}
);
width = 716;
}
);
unicode = 0D20;
},
{
glyphname = ddamlym;
lastChange = "2019-06-05 08:30:18 +0000";
layers = (
{
layerId = UUID0;
paths = (
{
closed = 1;
nodes = (
"216 -6 OFFCURVE",
"229 -1 OFFCURVE",
"239 11 CURVE",
"160 70 OFFCURVE",
"101 145 OFFCURVE",
"101 283 CURVE SMOOTH",
"101 416 OFFCURVE",
"148 499 OFFCURVE",
"248 499 CURVE SMOOTH",
"327 499 OFFCURVE",
"374 460 OFFCURVE",
"374 329 CURVE SMOOTH",
"374 233 LINE SMOOTH",
"374 65 OFFCURVE",
"458 -6 OFFCURVE",
"566 -6 CURVE SMOOTH",
"644 -6 OFFCURVE",
"717 37 OFFCURVE",
"753 141 CURVE",
"711 146 LINE",
"736 57 OFFCURVE",
"802 -6 OFFCURVE",
"911 -6 CURVE SMOOTH",
"1056 -6 OFFCURVE",
"1140 126 OFFCURVE",
"1140 275 CURVE SMOOTH",
"1140 449 OFFCURVE",
"1040 560 OFFCURVE",
"980 560 CURVE SMOOTH",
"966 560 OFFCURVE",
"952 555 OFFCURVE",
"943 543 CURVE",
"1023 483 OFFCURVE",
"1081 409 OFFCURVE",
"1081 271 CURVE SMOOTH",
"1081 160 OFFCURVE",
"1025 54 OFFCURVE",
"917 54 CURVE SMOOTH",
"842 54 OFFCURVE",
"792 111 OFFCURVE",
"792 200 CURVE SMOOTH",
"792 554 LINE",
"697 554 LINE",
"697 199 LINE SMOOTH",
"697 97 OFFCURVE",
"635 54 OFFCURVE",
"581 54 CURVE SMOOTH",
"510 54 OFFCURVE",
"473 100 OFFCURVE",
"473 222 CURVE SMOOTH",
"473 314 LINE SMOOTH",
"473 474 OFFCURVE",
"400 560 OFFCURVE",
"258 560 CURVE SMOOTH",
"126 560 OFFCURVE",
"42 459 OFFCURVE",
"42 279 CURVE SMOOTH",
"42 106 OFFCURVE",
"142 -6 OFFCURVE",
"202 -6 CURVE SMOOTH"
);
}
);
width = 1182;
},
{
color = -1;
layerId = "D1B76089-C2CA-459D-9B35-7EF71253C59F";
paths = (
{
closed = 1;
nodes = (
"202 -6 OFFCURVE",
"207 -4 OFFCURVE",
"212 1 CURVE",
"138 47 OFFCURVE",
"76 145 OFFCURVE",
"76 283 CURVE SMOOTH",
"76 454 OFFCURVE",
"153 524 OFFCURVE",
"246 524 CURVE SMOOTH",
"350 524 OFFCURVE",
"392 455 OFFCURVE",
"392 329 CURVE SMOOTH",
"392 199 LINE SMOOTH",
"392 48 OFFCURVE",
"464 -6 OFFCURVE",
"548 -6 CURVE SMOOTH",
"644 -6 OFFCURVE",
"692 55 OFFCURVE",
"705 139 CURVE",
"694 147 LINE",
"705 67 OFFCURVE",
"763 -6 OFFCURVE",
"862 -6 CURVE SMOOTH",
"986 -6 OFFCURVE",
"1071 82 OFFCURVE",
"1071 257 CURVE SMOOTH",
"1071 444 OFFCURVE",
"966 549 OFFCURVE",
"925 549 CURVE SMOOTH",
"917 549 OFFCURVE",
"911 546 OFFCURVE",
"907 542 CURVE",
"981 496 OFFCURVE",
"1043 398 OFFCURVE",
"1043 257 CURVE SMOOTH",
"1043 91 OFFCURVE",
"962 19 OFFCURVE",
"862 19 CURVE SMOOTH",
"772 19 OFFCURVE",
"713 92 OFFCURVE",
"713 186 CURVE SMOOTH",
"713 543 LINE",
"686 543 LINE",
"686 183 LINE SMOOTH",
"686 76 OFFCURVE",
"633 19 OFFCURVE",
"548 19 CURVE SMOOTH",
"467 19 OFFCURVE",
"420 75 OFFCURVE",
"420 208 CURVE SMOOTH",
"420 335 LINE SMOOTH",
"420 479 OFFCURVE",
"358 549 OFFCURVE",
"246 549 CURVE SMOOTH",
"137 549 OFFCURVE",
"48 471 OFFCURVE",
"48 283 CURVE SMOOTH",
"48 99 OFFCURVE",
"153 -6 OFFCURVE",
"194 -6 CURVE SMOOTH"
);
}
);
width = 1119;
},
{
layerId = "C0B026C4-A727-4B54-9AF4-B5E9F769E1F3";
paths = (
{
closed = 1;
nodes = (
"222 -8 OFFCURVE",
"232 4 OFFCURVE",
"242 17 CURVE",
"162 90 OFFCURVE",
"116 159 OFFCURVE",
"116 287 CURVE SMOOTH",
"116 422 OFFCURVE",
"169 493 OFFCURVE",
"237 493 CURVE SMOOTH",
"293 493 OFFCURVE",
"328 458 OFFCURVE",
"328 368 CURVE SMOOTH",
"328 248 LINE SMOOTH",
"328 66 OFFCURVE",
"427 -8 OFFCURVE",
"577 -8 CURVE SMOOTH",
"700 -8 OFFCURVE",
"758 47 OFFCURVE",
"814 142 CURVE",
"754 124 LINE",
"788 38 OFFCURVE",
"869 -8 OFFCURVE",
"968 -8 CURVE SMOOTH",
"1129 -8 OFFCURVE",
"1223 109 OFFCURVE",
"1223 282 CURVE SMOOTH",
"1223 451 OFFCURVE",
"1129 575 OFFCURVE",
"1068 575 CURVE SMOOTH",
"1038 575 OFFCURVE",
"1029 563 OFFCURVE",
"1019 550 CURVE",
"1099 478 OFFCURVE",
"1145 408 OFFCURVE",
"1145 279 CURVE SMOOTH",
"1145 161 OFFCURVE",
"1091 74 OFFCURVE",
"1010 74 CURVE SMOOTH",
"946 74 OFFCURVE",
"923 112 OFFCURVE",
"923 196 CURVE SMOOTH",
"923 567 LINE",
"710 567 LINE",
"710 188 LINE SMOOTH",
"710 116 OFFCURVE",
"683 74 OFFCURVE",
"624 74 CURVE SMOOTH",
"580 74 OFFCURVE",
"546 103 OFFCURVE",
"546 197 CURVE SMOOTH",
"546 324 LINE SMOOTH",
"546 497 OFFCURVE",
"442 575 OFFCURVE",
"289 575 CURVE SMOOTH",
"128 575 OFFCURVE",
"38 471 OFFCURVE",
"38 286 CURVE SMOOTH",
"38 118 OFFCURVE",
"132 -8 OFFCURVE",
"195 -8 CURVE SMOOTH"
);
}
);
width = 1261;
}
);
leftMetricsKey = namlym;
rightMetricsKey = namlym;
unicode = 0D21;
},
{
glyphname = ddhamlym;
lastChange = "2019-06-05 08:30:18 +0000";
layers = (
{
layerId = UUID0;
paths = (
{
closed = 1;
nodes = (
"216 -6 OFFCURVE",
"229 -1 OFFCURVE",
"239 11 CURVE",
"160 70 OFFCURVE",
"101 145 OFFCURVE",
"101 283 CURVE SMOOTH",
"101 416 OFFCURVE",
"148 499 OFFCURVE",
"248 499 CURVE SMOOTH",
"327 499 OFFCURVE",
"374 460 OFFCURVE",
"374 329 CURVE SMOOTH",
"374 233 LINE SMOOTH",
"374 65 OFFCURVE",
"458 -6 OFFCURVE",
"566 -6 CURVE SMOOTH",
"644 -6 OFFCURVE",
"717 37 OFFCURVE",
"753 141 CURVE",
"782 200 LINE",
"782 554 LINE",
"697 554 LINE",
"697 199 LINE SMOOTH",
"697 97 OFFCURVE",
"635 54 OFFCURVE",
"581 54 CURVE SMOOTH",
"510 54 OFFCURVE",
"473 100 OFFCURVE",
"473 222 CURVE SMOOTH",
"473 314 LINE SMOOTH",
"473 474 OFFCURVE",
"400 560 OFFCURVE",
"258 560 CURVE SMOOTH",
"126 560 OFFCURVE",
"42 459 OFFCURVE",
"42 279 CURVE SMOOTH",
"42 106 OFFCURVE",
"142 -6 OFFCURVE",
"202 -6 CURVE SMOOTH"
);
},
{
closed = 1;
nodes = (
"954 560 OFFCURVE",
"890 489 OFFCURVE",
"890 394 CURVE SMOOTH",
"890 302 OFFCURVE",
"952 232 OFFCURVE",
"1053 232 CURVE SMOOTH",
"1127 232 OFFCURVE",
"1186 275 OFFCURVE",
"1222 341 CURVE",
"1213 402 LINE",
"1182 342 OFFCURVE",
"1141 293 OFFCURVE",
"1077 293 CURVE SMOOTH",
"1024 293 OFFCURVE",
"981 329 OFFCURVE",
"981 395 CURVE SMOOTH",
"981 454 OFFCURVE",
"1014 500 OFFCURVE",
"1078 500 CURVE SMOOTH",
"1143 500 OFFCURVE",
"1219 438 OFFCURVE",
"1219 304 CURVE SMOOTH",
"1219 137 OFFCURVE",
"1112 54 OFFCURVE",
"981 54 CURVE SMOOTH",
"873 54 OFFCURVE",
"792 116 OFFCURVE",
"792 247 CURVE SMOOTH",
"792 554 LINE",
"707 554 LINE",
"707 193 LINE",
"721 128 LINE",
"777 24 OFFCURVE",
"877 -6 OFFCURVE",
"970 -6 CURVE SMOOTH",
"1135 -6 OFFCURVE",
"1274 97 OFFCURVE",
"1274 303 CURVE SMOOTH",
"1274 436 OFFCURVE",
"1205 560 OFFCURVE",
"1064 560 CURVE SMOOTH"
);
}
);
width = 1316;
},
{
color = -1;
layerId = "D1B76089-C2CA-459D-9B35-7EF71253C59F";
paths = (
{
closed = 1;
nodes = (
"202 -6 OFFCURVE",
"207 -4 OFFCURVE",
"212 1 CURVE",
"138 47 OFFCURVE",
"76 145 OFFCURVE",
"76 283 CURVE SMOOTH",
"76 454 OFFCURVE",
"153 524 OFFCURVE",
"246 524 CURVE SMOOTH",
"350 524 OFFCURVE",
"392 455 OFFCURVE",
"392 329 CURVE SMOOTH",
"392 199 LINE SMOOTH",
"392 48 OFFCURVE",
"464 -6 OFFCURVE",
"548 -6 CURVE SMOOTH",
"644 -6 OFFCURVE",
"692 55 OFFCURVE",
"705 139 CURVE",
"703 186 LINE",
"703 543 LINE",
"686 543 LINE",
"686 183 LINE SMOOTH",
"686 76 OFFCURVE",
"633 19 OFFCURVE",
"548 19 CURVE SMOOTH",
"467 19 OFFCURVE",
"420 75 OFFCURVE",
"420 208 CURVE SMOOTH",
"420 335 LINE SMOOTH",
"420 479 OFFCURVE",
"358 549 OFFCURVE",
"246 549 CURVE SMOOTH",
"137 549 OFFCURVE",
"48 471 OFFCURVE",
"48 283 CURVE SMOOTH",
"48 99 OFFCURVE",
"153 -6 OFFCURVE",
"194 -6 CURVE SMOOTH"
);
},
{
closed = 1;
nodes = (
"903 549 OFFCURVE",
"844 483 OFFCURVE",
"844 400 CURVE SMOOTH",
"844 308 OFFCURVE",
"903 248 OFFCURVE",
"985 248 CURVE SMOOTH",
"1074 248 OFFCURVE",
"1129 306 OFFCURVE",
"1160 361 CURVE",
"1151 389 LINE",
"1114 320 OFFCURVE",
"1060 273 OFFCURVE",
"987 273 CURVE SMOOTH",
"924 273 OFFCURVE",
"872 316 OFFCURVE",
"872 400 CURVE SMOOTH",
"872 478 OFFCURVE",
"931 524 OFFCURVE",
"995 524 CURVE SMOOTH",
"1107 524 OFFCURVE",
"1160 417 OFFCURVE",
"1160 278 CURVE SMOOTH",
"1160 127 OFFCURVE",
"1064 19 OFFCURVE",
"917 19 CURVE SMOOTH",
"788 19 OFFCURVE",
"713 87 OFFCURVE",
"713 210 CURVE SMOOTH",
"713 543 LINE",
"696 543 LINE",
"696 189 LINE",
"695 147 LINE",
"720 55 OFFCURVE",
"784 -6 OFFCURVE",
"917 -6 CURVE",
"1079 -6 OFFCURVE",
"1187 112 OFFCURVE",
"1187 278 CURVE SMOOTH",
"1187 445 OFFCURVE",
"1116 549 OFFCURVE",
"995 549 CURVE SMOOTH"
);
}
);
width = 1235;
},
{
layerId = "C0B026C4-A727-4B54-9AF4-B5E9F769E1F3";
paths = (
{
closed = 1;
nodes = (
"222 -8 OFFCURVE",
"232 4 OFFCURVE",
"242 17 CURVE",
"162 90 OFFCURVE",
"116 159 OFFCURVE",
"116 287 CURVE SMOOTH",
"116 422 OFFCURVE",
"169 493 OFFCURVE",
"237 493 CURVE SMOOTH",
"293 493 OFFCURVE",
"328 458 OFFCURVE",
"328 368 CURVE SMOOTH",
"328 248 LINE SMOOTH",
"328 66 OFFCURVE",
"427 -8 OFFCURVE",
"577 -8 CURVE SMOOTH",
"700 -8 OFFCURVE",
"758 47 OFFCURVE",
"814 142 CURVE",
"913 196 LINE",
"913 567 LINE",
"710 567 LINE",
"710 188 LINE SMOOTH",
"710 116 OFFCURVE",
"683 74 OFFCURVE",
"624 74 CURVE SMOOTH",
"580 74 OFFCURVE",
"546 103 OFFCURVE",
"546 197 CURVE SMOOTH",
"546 324 LINE SMOOTH",
"546 497 OFFCURVE",
"442 575 OFFCURVE",
"289 575 CURVE SMOOTH",
"128 575 OFFCURVE",
"38 471 OFFCURVE",
"38 286 CURVE SMOOTH",
"38 118 OFFCURVE",
"132 -8 OFFCURVE",
"195 -8 CURVE SMOOTH"
);
},
{
closed = 1;
nodes = (
"1037 575 OFFCURVE",
"979 494 OFFCURVE",
"979 404 CURVE SMOOTH",
"979 317 OFFCURVE",
"1026 237 OFFCURVE",
"1156 237 CURVE SMOOTH",
"1251 237 OFFCURVE",
"1310 294 OFFCURVE",
"1347 352 CURVE",
"1332 419 LINE",
"1303 362 OFFCURVE",
"1261 314 OFFCURVE",
"1206 314 CURVE SMOOTH",
"1158 314 OFFCURVE",
"1138 351 OFFCURVE",
"1138 403 CURVE SMOOTH",
"1138 467 OFFCURVE",
"1162 498 OFFCURVE",
"1210 498 CURVE SMOOTH",
"1256 498 OFFCURVE",
"1318 453 OFFCURVE",
"1318 319 CURVE SMOOTH",
"1318 157 OFFCURVE",
"1218 73 OFFCURVE",
"1077 73 CURVE SMOOTH",
"978 73 OFFCURVE",
"923 121 OFFCURVE",
"923 248 CURVE SMOOTH",
"923 567 LINE",
"730 567 LINE",
"730 194 LINE",
"748 133 LINE",
"820 27 OFFCURVE",
"910 -8 OFFCURVE",
"1054 -8 CURVE SMOOTH",
"1251 -8 OFFCURVE",
"1392 108 OFFCURVE",
"1392 313 CURVE SMOOTH",
"1392 469 OFFCURVE",
"1318 575 OFFCURVE",
"1175 575 CURVE SMOOTH"
);
}
);
width = 1430;
}
);
leftMetricsKey = namlym;
rightMetricsKey = "=|nnamlym";
unicode = 0D22;
},
{
glyphname = nnamlym;
lastChange = "2019-06-05 08:30:18 +0000";
layers = (
{
layerId = UUID0;
paths = (
{
closed = 1;
nodes = (
"359 -6 OFFCURVE",
"422 64 OFFCURVE",
"422 159 CURVE SMOOTH",
"422 252 OFFCURVE",
"356 322 OFFCURVE",
"259 322 CURVE SMOOTH",
"185 322 OFFCURVE",
"127 276 OFFCURVE",
"90 213 CURVE",
"99 152 LINE",
"128 209 OFFCURVE",
"175 261 OFFCURVE",
"235 261 CURVE SMOOTH",
"288 261 OFFCURVE",
"331 225 OFFCURVE",
"331 159 CURVE SMOOTH",
"331 100 OFFCURVE",
"298 54 OFFCURVE",
"234 54 CURVE SMOOTH",
"173 54 OFFCURVE",
"97 116 OFFCURVE",
"97 250 CURVE SMOOTH",
"97 417 OFFCURVE",
"213 500 OFFCURVE",
"329 500 CURVE SMOOTH",
"445 500 OFFCURVE",
"524 428 OFFCURVE",
"524 292 CURVE SMOOTH",
"524 0 LINE",
"619 0 LINE",
"619 361 LINE SMOOTH",
"619 451 OFFCURVE",
"662 500 OFFCURVE",
"739 500 CURVE SMOOTH",
"821 500 OFFCURVE",
"856 445 OFFCURVE",
"856 363 CURVE SMOOTH",
"856 0 LINE",
"951 0 LINE",
"951 355 LINE SMOOTH",
"951 436 OFFCURVE",
"1002 500 OFFCURVE",
"1083 500 CURVE SMOOTH",
"1164 500 OFFCURVE",
"1235 425 OFFCURVE",
"1235 263 CURVE SMOOTH",
"1235 162 OFFCURVE",
"1194 55 OFFCURVE",
"1118 0 CURVE",
"1126 -4 OFFCURVE",
"1140 -8 OFFCURVE",
"1158 -8 CURVE SMOOTH",
"1232 -8 OFFCURVE",
"1333 88 OFFCURVE",
"1333 265 CURVE SMOOTH",
"1333 461 OFFCURVE",
"1225 560 OFFCURVE",
"1095 560 CURVE SMOOTH",
"1021 560 OFFCURVE",
"952 527 OFFCURVE",
"913 448 CURVE",
"937 446 LINE",
"901 516 OFFCURVE",
"834 560 OFFCURVE",
"749 560 CURVE SMOOTH",
"664 560 OFFCURVE",
"602 519 OFFCURVE",
"568 444 CURVE",
"581 442 LINE",
"526 528 OFFCURVE",
"428 560 OFFCURVE",
"341 560 CURVE SMOOTH",
"190 560 OFFCURVE",
"42 457 OFFCURVE",
"42 251 CURVE SMOOTH",
"42 123 OFFCURVE",
"111 -6 OFFCURVE",
"252 -6 CURVE SMOOTH"
);
}
);
width = 1375;
},
{
color = -1;
layerId = "D1B76089-C2CA-459D-9B35-7EF71253C59F";
paths = (
{
closed = 1;
nodes = (
"329 -6 OFFCURVE",
"388 60 OFFCURVE",
"388 143 CURVE SMOOTH",
"388 235 OFFCURVE",
"329 295 OFFCURVE",
"247 295 CURVE SMOOTH",
"161 295 OFFCURVE",
"105 237 OFFCURVE",
"72 182 CURVE",
"81 154 LINE",
"124 227 OFFCURVE",
"177 270 OFFCURVE",
"245 270 CURVE SMOOTH",
"308 270 OFFCURVE",
"360 227 OFFCURVE",
"360 143 CURVE SMOOTH",
"360 65 OFFCURVE",
"301 19 OFFCURVE",
"237 19 CURVE SMOOTH",
"128 19 OFFCURVE",
"75 129 OFFCURVE",
"75 261 CURVE SMOOTH",
"75 416 OFFCURVE",
"184 524 OFFCURVE",
"318 524 CURVE SMOOTH",
"447 524 OFFCURVE",
"522 448 OFFCURVE",
"522 320 CURVE SMOOTH",
"522 0 LINE",
"549 0 LINE",
"549 354 LINE SMOOTH",
"549 450 OFFCURVE",
"596 524 OFFCURVE",
"687 524 CURVE SMOOTH",
"780 524 OFFCURVE",
"828 456 OFFCURVE",
"828 355 CURVE SMOOTH",
"828 0 LINE",
"855 0 LINE",
"855 357 LINE SMOOTH",
"855 456 OFFCURVE",
"917 524 OFFCURVE",
"1007 524 CURVE SMOOTH",
"1084 524 OFFCURVE",
"1185 475 OFFCURVE",
"1185 284 CURVE SMOOTH",
"1185 146 OFFCURVE",
"1121 44 OFFCURVE",
"1049 1 CURVE",
"1053 -3 OFFCURVE",
"1059 -6 OFFCURVE",
"1068 -6 CURVE SMOOTH",
"1111 -6 OFFCURVE",
"1213 106 OFFCURVE",
"1213 284 CURVE SMOOTH",
"1213 489 OFFCURVE",
"1101 549 OFFCURVE",
"1007 549 CURVE SMOOTH",
"922 549 OFFCURVE",
"854 498 OFFCURVE",
"838 403 CURVE",
"845 410 LINE",
"832 486 OFFCURVE",
"786 549 OFFCURVE",
"687 549 CURVE SMOOTH",
"600 549 OFFCURVE",
"545 494 OFFCURVE",
"531 402 CURVE",
"540 389 LINE",
"515 481 OFFCURVE",
"448 549 OFFCURVE",
"318 549 CURVE",
"169 549 OFFCURVE",
"48 431 OFFCURVE",
"48 261 CURVE SMOOTH",
"48 100 OFFCURVE",
"121 -6 OFFCURVE",
"237 -6 CURVE SMOOTH"
);
}
);
width = 1261;
},
{
layerId = "C0B026C4-A727-4B54-9AF4-B5E9F769E1F3";
paths = (
{
closed = 1;
nodes = (
"389 -8 OFFCURVE",
"447 62 OFFCURVE",
"447 163 CURVE SMOOTH",
"447 250 OFFCURVE",
"395 330 OFFCURVE",
"270 330 CURVE SMOOTH",
"175 330 OFFCURVE",
"116 273 OFFCURVE",
"79 215 CURVE",
"94 148 LINE",
"123 205 OFFCURVE",
"165 253 OFFCURVE",
"220 253 CURVE SMOOTH",
"268 253 OFFCURVE",
"288 216 OFFCURVE",
"288 160 CURVE SMOOTH",
"288 97 OFFCURVE",
"266 69 OFFCURVE",
"218 69 CURVE SMOOTH",
"176 69 OFFCURVE",
"112 115 OFFCURVE",
"112 248 CURVE SMOOTH",
"112 410 OFFCURVE",
"228 494 OFFCURVE",
"349 494 CURVE SMOOTH",
"452 494 OFFCURVE",
"507 432 OFFCURVE",
"507 307 CURVE SMOOTH",
"507 0 LINE",
"721 0 LINE",
"721 373 LINE SMOOTH",
"721 462 OFFCURVE",
"762 494 OFFCURVE",
"815 494 CURVE SMOOTH",
"876 494 OFFCURVE",
"899 454 OFFCURVE",
"899 371 CURVE SMOOTH",
"899 0 LINE",
"1112 0 LINE",
"1112 381 LINE SMOOTH",
"1112 440 OFFCURVE",
"1139 493 OFFCURVE",
"1206 493 CURVE SMOOTH",
"1282 493 OFFCURVE",
"1319 401 OFFCURVE",
"1319 272 CURVE SMOOTH",
"1319 212 OFFCURVE",
"1307 91 OFFCURVE",
"1221 10 CURVE",
"1237 -1 OFFCURVE",
"1259 -8 OFFCURVE",
"1293 -8 CURVE SMOOTH",
"1457 -8 OFFCURVE",
"1541 122 OFFCURVE",
"1541 280 CURVE SMOOTH",
"1541 434 OFFCURVE",
"1459 575 OFFCURVE",
"1253 575 CURVE SMOOTH",
"1126 575 OFFCURVE",
"1056 501 OFFCURVE",
"1009 417 CURVE",
"1063 443 LINE",
"1029 529 OFFCURVE",
"963 575 OFFCURVE",
"846 575 CURVE SMOOTH",
"726 575 OFFCURVE",
"667 515 OFFCURVE",
"626 447 CURVE",
"677 434 LINE",
"605 535 OFFCURVE",
"518 575 OFFCURVE",
"382 575 CURVE SMOOTH",
"194 575 OFFCURVE",
"38 459 OFFCURVE",
"38 254 CURVE SMOOTH",
"38 104 OFFCURVE",
"110 -8 OFFCURVE",
"250 -8 CURVE SMOOTH"
);
}
);
width = 1579;
}
);
rightMetricsKey = namlym;
unicode = 0D23;
},
{
glyphname = tamlym;
lastChange = "2019-06-05 08:30:18 +0000";
layers = (
{
layerId = UUID0;
paths = (
{
closed = 1;
nodes = (
"215 -6 OFFCURVE",
"230 0 OFFCURVE",
"238 11 CURVE",
"159 61 OFFCURVE",
"101 136 OFFCURVE",
"101 254 CURVE SMOOTH",
"101 397 OFFCURVE",
"193 500 OFFCURVE",
"325 500 CURVE SMOOTH",
"473 500 OFFCURVE",
"550 372 OFFCURVE",
"550 219 CURVE SMOOTH",
"550 101 OFFCURVE",
"497 54 OFFCURVE",
"435 54 CURVE SMOOTH",
"369 54 OFFCURVE",
"324 113 OFFCURVE",
"324 208 CURVE SMOOTH",
"324 406 OFFCURVE",
"455 500 OFFCURVE",
"588 500 CURVE SMOOTH",
"697 500 OFFCURVE",
"806 419 OFFCURVE",
"806 254 CURVE SMOOTH",
"806 155 OFFCURVE",
"763 53 OFFCURVE",
"690 0 CURVE",
"697 -4 OFFCURVE",
"712 -8 OFFCURVE",
"729 -8 CURVE SMOOTH",
"804 -8 OFFCURVE",
"905 84 OFFCURVE",
"905 255 CURVE SMOOTH",
"905 459 OFFCURVE",
"762 560 OFFCURVE",
"606 560 CURVE SMOOTH",
"436 560 OFFCURVE",
"265 441 OFFCURVE",
"265 214 CURVE SMOOTH",
"265 85 OFFCURVE",
"329 -6 OFFCURVE",
"445 -6 CURVE SMOOTH",
"573 -6 OFFCURVE",
"643 106 OFFCURVE",
"643 235 CURVE SMOOTH",
"643 407 OFFCURVE",
"513 560 OFFCURVE",
"329 560 CURVE SMOOTH",
"169 560 OFFCURVE",
"42 443 OFFCURVE",
"42 256 CURVE SMOOTH",
"42 92 OFFCURVE",
"137 -6 OFFCURVE",
"201 -6 CURVE SMOOTH"
);
}
);
width = 947;
},
{
color = -1;
layerId = "D1B76089-C2CA-459D-9B35-7EF71253C59F";
paths = (
{
closed = 1;
nodes = (
"192 -6 OFFCURVE",
"197 -4 OFFCURVE",
"202 1 CURVE",
"114 57 OFFCURVE",
"76 159 OFFCURVE",
"76 256 CURVE SMOOTH",
"76 446 OFFCURVE",
"215 524 OFFCURVE",
"320 524 CURVE SMOOTH",
"460 524 OFFCURVE",
"574 409 OFFCURVE",
"574 226 CURVE SMOOTH",
"574 104 OFFCURVE",
"519 19 OFFCURVE",
"440 19 CURVE SMOOTH",
"354 19 OFFCURVE",
"306 107 OFFCURVE",
"306 211 CURVE SMOOTH",
"306 439 OFFCURVE",
"468 524 OFFCURVE",
"574 524 CURVE SMOOTH",
"695 524 OFFCURVE",
"804 446 OFFCURVE",
"804 256 CURVE SMOOTH",
"804 137 OFFCURVE",
"749 44 OFFCURVE",
"678 1 CURVE",
"681 -3 OFFCURVE",
"689 -6 OFFCURVE",
"699 -6 CURVE SMOOTH",
"737 -6 OFFCURVE",
"832 96 OFFCURVE",
"832 256 CURVE SMOOTH",
"832 459 OFFCURVE",
"708 549 OFFCURVE",
"574 549 CURVE SMOOTH",
"462 549 OFFCURVE",
"278 456 OFFCURVE",
"278 211 CURVE SMOOTH",
"278 77 OFFCURVE",
"342 -6 OFFCURVE",
"440 -6 CURVE SMOOTH",
"547 -6 OFFCURVE",
"602 99 OFFCURVE",
"602 226 CURVE SMOOTH",
"602 434 OFFCURVE",
"463 549 OFFCURVE",
"320 549 CURVE SMOOTH",
"202 549 OFFCURVE",
"48 459 OFFCURVE",
"48 256 CURVE SMOOTH",
"48 112 OFFCURVE",
"134 -6 OFFCURVE",
"183 -6 CURVE SMOOTH"
);
}
);
width = 880;
},
{
layerId = "C0B026C4-A727-4B54-9AF4-B5E9F769E1F3";
paths = (
{
closed = 1;
nodes = (
"226 -9 OFFCURVE",
"239 0 OFFCURVE",
"250 15 CURVE",
"173 69 OFFCURVE",
"116 138 OFFCURVE",
"116 262 CURVE SMOOTH",
"116 405 OFFCURVE",
"200 498 OFFCURVE",
"313 498 CURVE SMOOTH",
"438 498 OFFCURVE",
"491 376 OFFCURVE",
"491 230 CURVE SMOOTH",
"491 130 OFFCURVE",
"465 74 OFFCURVE",
"413 74 CURVE SMOOTH",
"355 74 OFFCURVE",
"334 130 OFFCURVE",
"334 215 CURVE SMOOTH",
"334 390 OFFCURVE",
"476 492 OFFCURVE",
"617 492 CURVE SMOOTH",
"763 492 OFFCURVE",
"820 380 OFFCURVE",
"820 263 CURVE SMOOTH",
"820 165 OFFCURVE",
"794 77 OFFCURVE",
"724 10 CURVE",
"732 0 OFFCURVE",
"753 -8 OFFCURVE",
"791 -8 CURVE SMOOTH",
"926 -8 OFFCURVE",
"1042 86 OFFCURVE",
"1042 279 CURVE SMOOTH",
"1042 473 OFFCURVE",
"898 575 OFFCURVE",
"684 575 CURVE SMOOTH",
"448 575 OFFCURVE",
"256 432 OFFCURVE",
"256 212 CURVE SMOOTH",
"256 63 OFFCURVE",
"331 -8 OFFCURVE",
"460 -8 CURVE SMOOTH",
"623 -8 OFFCURVE",
"702 77 OFFCURVE",
"702 238 CURVE SMOOTH",
"702 437 OFFCURVE",
"527 575 OFFCURVE",
"336 575 CURVE SMOOTH",
"170 575 OFFCURVE",
"38 460 OFFCURVE",
"38 258 CURVE SMOOTH",
"38 96 OFFCURVE",
"131 -9 OFFCURVE",
"201 -9 CURVE SMOOTH"
);
}
);
width = 1080;
}
);
unicode = 0D24;
},
{
glyphname = thamlym;
lastChange = "2019-06-05 08:30:18 +0000";
layers = (
{
layerId = UUID0;
paths = (
{
closed = 1;
nodes = (
"832 0 LINE",
"832 294 LINE SMOOTH",
"832 449 OFFCURVE",
"755 560 OFFCURVE",
"595 560 CURVE SMOOTH",
"444 560 OFFCURVE",
"357 459 OFFCURVE",
"357 312 CURVE SMOOTH",
"357 54 LINE",
"167 54 LINE",
"167 554 LINE",
"72 554 LINE",
"72 0 LINE"
);
},
{
closed = 1;
nodes = (
"452 306 LINE SMOOTH",
"452 426 OFFCURVE",
"505 500 OFFCURVE",
"613 500 CURVE SMOOTH",
"727 500 OFFCURVE",
"773 413 OFFCURVE",
"773 286 CURVE SMOOTH",
"773 54 LINE",
"452 54 LINE"
);
}
);
width = 897;
},
{
color = -1;
layerId = "D1B76089-C2CA-459D-9B35-7EF71253C59F";
paths = (
{
closed = 1;
nodes = (
"735 0 LINE",
"735 303 LINE SMOOTH",
"735 434 OFFCURVE",
"674 549 OFFCURVE",
"524 549 CURVE SMOOTH",
"374 549 OFFCURVE",
"313 434 OFFCURVE",
"313 304 CURVE SMOOTH",
"313 25 LINE",
"105 25 LINE",
"105 543 LINE",
"78 543 LINE",
"78 0 LINE"
);
},
{
closed = 1;
nodes = (
"340 294 LINE SMOOTH",
"340 435 OFFCURVE",
"399 524 OFFCURVE",
"524 524 CURVE SMOOTH",
"649 524 OFFCURVE",
"708 435 OFFCURVE",
"708 294 CURVE SMOOTH",
"708 25 LINE",
"340 25 LINE"
);
}
);
width = 808;
},
{
layerId = "C0B026C4-A727-4B54-9AF4-B5E9F769E1F3";
paths = (
{
closed = 1;
nodes = (
"973 0 LINE",
"973 302 LINE SMOOTH",
"973 500 OFFCURVE",
"858 575 OFFCURVE",
"709 575 CURVE SMOOTH",
"558 575 OFFCURVE",
"425 500 OFFCURVE",
"425 318 CURVE SMOOTH",
"425 73 LINE",
"277 73 LINE",
"277 567 LINE",
"62 567 LINE",
"62 0 LINE"
);
},
{
closed = 1;
nodes = (
"637 329 LINE SMOOTH",
"637 430 OFFCURVE",
"677 493 OFFCURVE",
"763 493 CURVE SMOOTH",
"855 493 OFFCURVE",
"895 415 OFFCURVE",
"895 291 CURVE SMOOTH",
"895 73 LINE",
"637 73 LINE"
);
}
);
width = 1029;
}
);
leftMetricsKey = "=|pamlym";
unicode = 0D25;
},
{
glyphname = damlym;
lastChange = "2019-06-05 08:30:18 +0000";
layers = (
{
layerId = UUID0;
paths = (
{
closed = 1;
nodes = (
"150 -9 OFFCURVE",
"158 -7 OFFCURVE",
"164 -3 CURVE",
"127 68 OFFCURVE",
"105 127 OFFCURVE",
"105 233 CURVE SMOOTH",
"105 357 OFFCURVE",
"168 500 OFFCURVE",
"339 500 CURVE SMOOTH",
"414 500 OFFCURVE",
"473 464 OFFCURVE",
"473 397 CURVE SMOOTH",
"473 339 OFFCURVE",
"426 303 OFFCURVE",
"354 303 CURVE SMOOTH",
"296 303 LINE",
"296 253 LINE",
"359 253 LINE SMOOTH",
"437 253 OFFCURVE",
"483 214 OFFCURVE",
"483 151 CURVE SMOOTH",
"483 89 OFFCURVE",
"441 54 OFFCURVE",
"371 54 CURVE SMOOTH",
"322 54 OFFCURVE",
"287 67 OFFCURVE",
"256 80 CURVE",
"253 74 OFFCURVE",
"252 68 OFFCURVE",
"252 62 CURVE SMOOTH",
"252 29 OFFCURVE",
"293 -6 OFFCURVE",
"400 -6 CURVE SMOOTH",
"511 -6 OFFCURVE",
"579 46 OFFCURVE",
"579 134 CURVE SMOOTH",
"579 200 OFFCURVE",
"535 262 OFFCURVE",
"452 276 CURVE",
"452 280 LINE",
"533 297 OFFCURVE",
"568 350 OFFCURVE",
"568 402 CURVE SMOOTH",
"568 495 OFFCURVE",
"484 560 OFFCURVE",
"351 560 CURVE SMOOTH",
"139 560 OFFCURVE",
"46 397 OFFCURVE",
"46 233 CURVE SMOOTH",
"46 60 OFFCURVE",
"105 -9 OFFCURVE",
"143 -9 CURVE SMOOTH"
);
}
);
width = 617;
},
{
color = -1;
layerId = "D1B76089-C2CA-459D-9B35-7EF71253C59F";
paths = (
{
closed = 1;
nodes = (
"140 -6 OFFCURVE",
"145 -4 OFFCURVE",
"150 0 CURVE",
"117 41 OFFCURVE",
"80 114 OFFCURVE",
"80 227 CURVE SMOOTH",
"80 410 OFFCURVE",
"194 524 OFFCURVE",
"343 524 CURVE SMOOTH",
"441 524 OFFCURVE",
"502 481 OFFCURVE",
"502 403 CURVE SMOOTH",
"502 326 OFFCURVE",
"448 288 OFFCURVE",
"356 288 CURVE SMOOTH",
"297 288 LINE",
"297 263 LINE",
"356 263 LINE SMOOTH",
"451 263 OFFCURVE",
"513 219 OFFCURVE",
"513 136 CURVE SMOOTH",
"513 69 OFFCURVE",
"476 19 OFFCURVE",
"381 19 CURVE SMOOTH",
"321 19 OFFCURVE",
"279 32 OFFCURVE",
"250 55 CURVE",
"247 51 OFFCURVE",
"246 47 OFFCURVE",
"246 42 CURVE SMOOTH",
"246 25 OFFCURVE",
"288 -6 OFFCURVE",
"381 -6 CURVE SMOOTH",
"487 -6 OFFCURVE",
"541 50 OFFCURVE",
"541 136 CURVE SMOOTH",
"541 219 OFFCURVE",
"487 262 OFFCURVE",
"422 273 CURVE",
"422 275 LINE",
"499 293 OFFCURVE",
"530 337 OFFCURVE",
"530 406 CURVE SMOOTH",
"530 482 OFFCURVE",
"475 549 OFFCURVE",
"342 549 CURVE SMOOTH",
"176 549 OFFCURVE",
"52 419 OFFCURVE",
"52 227 CURVE SMOOTH",
"52 87 OFFCURVE",
"113 -6 OFFCURVE",
"133 -6 CURVE SMOOTH"
);
}
);
width = 585;
},
{
layerId = "C0B026C4-A727-4B54-9AF4-B5E9F769E1F3";
paths = (
{
closed = 1;
nodes = (
"163 -9 OFFCURVE",
"175 -6 OFFCURVE",
"183 0 CURVE",
"140 76 OFFCURVE",
"120 144 OFFCURVE",
"120 239 CURVE SMOOTH",
"120 368 OFFCURVE",
"184 493 OFFCURVE",
"318 493 CURVE SMOOTH",
"380 493 OFFCURVE",
"424 467 OFFCURVE",
"424 402 CURVE SMOOTH",
"424 346 OFFCURVE",
"386 319 OFFCURVE",
"321 319 CURVE SMOOTH",
"282 319 LINE",
"282 249 LINE",
"318 249 LINE SMOOTH",
"390 249 OFFCURVE",
"429 218 OFFCURVE",
"429 155 CURVE SMOOTH",
"429 102 OFFCURVE",
"394 76 OFFCURVE",
"339 76 CURVE SMOOTH",
"316 76 OFFCURVE",
"279 83 OFFCURVE",
"251 100 CURVE",
"248 95 OFFCURVE",
"245 87 OFFCURVE",
"245 74 CURVE SMOOTH",
"245 40 OFFCURVE",
"280 -8 OFFCURVE",
"424 -8 CURVE SMOOTH",
"581 -8 OFFCURVE",
"648 52 OFFCURVE",
"648 135 CURVE SMOOTH",
"648 206 OFFCURVE",
"613 257 OFFCURVE",
"501 282 CURVE",
"501 286 LINE",
"602 302 OFFCURVE",
"641 348 OFFCURVE",
"641 417 CURVE SMOOTH",
"641 510 OFFCURVE",
"552 575 OFFCURVE",
"382 575 CURVE SMOOTH",
"146 575 OFFCURVE",
"42 420 OFFCURVE",
"42 239 CURVE SMOOTH",
"42 111 OFFCURVE",
"79 -9 OFFCURVE",
"152 -9 CURVE SMOOTH"
);
}
);
width = 678;
}
);
rightMetricsKey = ngamlym;
unicode = 0D26;
},
{
glyphname = dhamlym;
lastChange = "2019-06-05 08:30:18 +0000";
layers = (
{
layerId = UUID0;
paths = (
{
closed = 1;
nodes = (
"354 -6 OFFCURVE",
"429 22 OFFCURVE",
"480 141 CURVE",
"438 146 LINE",
"462 57 OFFCURVE",
"529 -6 OFFCURVE",
"638 -6 CURVE SMOOTH",
"783 -6 OFFCURVE",
"867 125 OFFCURVE",
"867 275 CURVE SMOOTH",
"867 448 OFFCURVE",
"767 560 OFFCURVE",
"707 560 CURVE SMOOTH",
"693 560 OFFCURVE",
"679 555 OFFCURVE",
"670 543 CURVE",
"749 484 OFFCURVE",
"808 409 OFFCURVE",
"808 271 CURVE SMOOTH",
"808 160 OFFCURVE",
"752 54 OFFCURVE",
"643 54 CURVE SMOOTH",
"569 54 OFFCURVE",
"519 111 OFFCURVE",
"519 199 CURVE SMOOTH",
"519 554 LINE",
"424 554 LINE",
"424 198 LINE SMOOTH",
"424 118 OFFCURVE",
"373 54 OFFCURVE",
"292 54 CURVE SMOOTH",
"211 54 OFFCURVE",
"140 129 OFFCURVE",
"140 291 CURVE SMOOTH",
"140 392 OFFCURVE",
"181 499 OFFCURVE",
"257 554 CURVE",
"249 558 OFFCURVE",
"235 562 OFFCURVE",
"217 562 CURVE SMOOTH",
"143 562 OFFCURVE",
"42 466 OFFCURVE",
"42 289 CURVE SMOOTH",
"42 93 OFFCURVE",
"150 -6 OFFCURVE",
"281 -6 CURVE SMOOTH"
);
}
);
width = 909;
},
{
color = -1;
layerId = "D1B76089-C2CA-459D-9B35-7EF71253C59F";
paths = (
{
closed = 1;
nodes = (
"339 -6 OFFCURVE",
"407 45 OFFCURVE",
"423 140 CURVE",
"414 147 LINE",
"425 67 OFFCURVE",
"483 -6 OFFCURVE",
"582 -6 CURVE SMOOTH",
"706 -6 OFFCURVE",
"791 82 OFFCURVE",
"791 257 CURVE SMOOTH",
"791 444 OFFCURVE",
"686 549 OFFCURVE",
"645 549 CURVE SMOOTH",
"637 549 OFFCURVE",
"631 546 OFFCURVE",
"627 542 CURVE",
"701 496 OFFCURVE",
"763 398 OFFCURVE",
"763 257 CURVE SMOOTH",
"763 91 OFFCURVE",
"682 19 OFFCURVE",
"582 19 CURVE SMOOTH",
"492 19 OFFCURVE",
"433 92 OFFCURVE",
"433 186 CURVE SMOOTH",
"433 543 LINE",
"406 543 LINE",
"406 186 LINE SMOOTH",
"406 87 OFFCURVE",
"344 19 OFFCURVE",
"254 19 CURVE SMOOTH",
"177 19 OFFCURVE",
"76 68 OFFCURVE",
"76 259 CURVE SMOOTH",
"76 397 OFFCURVE",
"140 499 OFFCURVE",
"212 542 CURVE",
"208 546 OFFCURVE",
"202 549 OFFCURVE",
"193 549 CURVE SMOOTH",
"150 549 OFFCURVE",
"48 437 OFFCURVE",
"48 259 CURVE SMOOTH",
"48 54 OFFCURVE",
"160 -6 OFFCURVE",
"254 -6 CURVE SMOOTH"
);
}
);
width = 839;
},
{
layerId = "C0B026C4-A727-4B54-9AF4-B5E9F769E1F3";
paths = (
{
closed = 1;
nodes = (
"452 -8 OFFCURVE",
"523 68 OFFCURVE",
"570 150 CURVE",
"511 124 LINE",
"545 38 OFFCURVE",
"626 -8 OFFCURVE",
"725 -8 CURVE SMOOTH",
"883 -8 OFFCURVE",
"980 109 OFFCURVE",
"980 282 CURVE SMOOTH",
"980 451 OFFCURVE",
"886 575 OFFCURVE",
"825 575 CURVE SMOOTH",
"795 575 OFFCURVE",
"786 563 OFFCURVE",
"776 550 CURVE",
"856 478 OFFCURVE",
"902 408 OFFCURVE",
"902 279 CURVE SMOOTH",
"902 161 OFFCURVE",
"846 74 OFFCURVE",
"767 74 CURVE SMOOTH",
"703 74 OFFCURVE",
"680 112 OFFCURVE",
"680 196 CURVE SMOOTH",
"680 567 LINE",
"467 567 LINE",
"467 186 LINE SMOOTH",
"467 127 OFFCURVE",
"440 74 OFFCURVE",
"373 74 CURVE SMOOTH",
"297 74 OFFCURVE",
"260 166 OFFCURVE",
"260 295 CURVE SMOOTH",
"260 355 OFFCURVE",
"272 476 OFFCURVE",
"358 557 CURVE",
"342 568 OFFCURVE",
"325 575 OFFCURVE",
"291 575 CURVE SMOOTH",
"123 575 OFFCURVE",
"38 445 OFFCURVE",
"38 287 CURVE SMOOTH",
"38 133 OFFCURVE",
"121 -8 OFFCURVE",
"326 -8 CURVE SMOOTH"
);
}
);
width = 1018;
}
);
leftMetricsKey = "=|namlym";
rightMetricsKey = "=|namlym";
unicode = 0D27;
},
{
glyphname = namlym;
lastChange = "2019-06-05 08:30:18 +0000";
layers = (
{
layerId = UUID0;
paths = (
{
closed = 1;
nodes = (
"216 -6 OFFCURVE",
"230 0 OFFCURVE",
"239 11 CURVE",
"159 71 OFFCURVE",
"101 145 OFFCURVE",
"101 283 CURVE SMOOTH",
"101 394 OFFCURVE",
"156 500 OFFCURVE",
"265 500 CURVE SMOOTH",
"340 500 OFFCURVE",
"390 443 OFFCURVE",
"390 354 CURVE SMOOTH",
"390 0 LINE",
"485 0 LINE",
"485 355 LINE SMOOTH",
"485 436 OFFCURVE",
"536 500 OFFCURVE",
"617 500 CURVE SMOOTH",
"698 500 OFFCURVE",
"769 425 OFFCURVE",
"769 263 CURVE SMOOTH",
"769 162 OFFCURVE",
"728 55 OFFCURVE",
"652 0 CURVE",
"659 -4 OFFCURVE",
"674 -8 OFFCURVE",
"692 -8 CURVE SMOOTH",
"766 -8 OFFCURVE",
"867 88 OFFCURVE",
"867 265 CURVE SMOOTH",
"867 461 OFFCURVE",
"758 560 OFFCURVE",
"629 560 CURVE SMOOTH",
"555 560 OFFCURVE",
"480 532 OFFCURVE",
"429 413 CURVE",
"471 408 LINE",
"446 497 OFFCURVE",
"379 560 OFFCURVE",
"274 560 CURVE SMOOTH",
"128 560 OFFCURVE",
"42 428 OFFCURVE",
"42 279 CURVE SMOOTH",
"42 105 OFFCURVE",
"142 -6 OFFCURVE",
"202 -6 CURVE SMOOTH"
);
}
);
width = 909;
},
{
color = -1;
layerId = "D1B76089-C2CA-459D-9B35-7EF71253C59F";
paths = (
{
closed = 1;
nodes = (
"202 -6 OFFCURVE",
"208 -3 OFFCURVE",
"212 1 CURVE",
"138 47 OFFCURVE",
"76 145 OFFCURVE",
"76 286 CURVE SMOOTH",
"76 452 OFFCURVE",
"157 524 OFFCURVE",
"257 524 CURVE SMOOTH",
"347 524 OFFCURVE",
"406 451 OFFCURVE",
"406 357 CURVE SMOOTH",
"406 0 LINE",
"433 0 LINE",
"433 357 LINE SMOOTH",
"433 456 OFFCURVE",
"495 524 OFFCURVE",
"585 524 CURVE SMOOTH",
"662 524 OFFCURVE",
"763 475 OFFCURVE",
"763 284 CURVE SMOOTH",
"763 146 OFFCURVE",
"699 44 OFFCURVE",
"627 1 CURVE",
"631 -3 OFFCURVE",
"637 -6 OFFCURVE",
"646 -6 CURVE SMOOTH",
"689 -6 OFFCURVE",
"791 106 OFFCURVE",
"791 284 CURVE SMOOTH",
"791 489 OFFCURVE",
"679 549 OFFCURVE",
"585 549 CURVE SMOOTH",
"500 549 OFFCURVE",
"432 498 OFFCURVE",
"416 403 CURVE",
"425 396 LINE",
"414 476 OFFCURVE",
"356 549 OFFCURVE",
"257 549 CURVE SMOOTH",
"133 549 OFFCURVE",
"48 461 OFFCURVE",
"48 286 CURVE SMOOTH",
"48 99 OFFCURVE",
"153 -6 OFFCURVE",
"194 -6 CURVE SMOOTH"
);
}
);
width = 839;
},
{
guideLines = (
{
angle = 180;
position = "{445, 0}";
},
{
angle = 180;
position = "{445, 0}";
}
);
layerId = "C0B026C4-A727-4B54-9AF4-B5E9F769E1F3";
paths = (
{
closed = 1;
nodes = (
"223 -10 OFFCURVE",
"232 2 OFFCURVE",
"242 15 CURVE",
"162 88 OFFCURVE",
"116 159 OFFCURVE",
"116 288 CURVE SMOOTH",
"116 405 OFFCURVE",
"172 493 OFFCURVE",
"251 493 CURVE SMOOTH",
"315 493 OFFCURVE",
"338 455 OFFCURVE",
"338 373 CURVE SMOOTH",
"338 0 LINE",
"551 0 LINE",
"551 383 LINE SMOOTH",
"551 440 OFFCURVE",
"578 493 OFFCURVE",
"645 493 CURVE SMOOTH",
"721 493 OFFCURVE",
"758 401 OFFCURVE",
"758 272 CURVE SMOOTH",
"758 212 OFFCURVE",
"746 91 OFFCURVE",
"660 10 CURVE",
"676 -1 OFFCURVE",
"693 -8 OFFCURVE",
"727 -8 CURVE SMOOTH",
"895 -8 OFFCURVE",
"980 122 OFFCURVE",
"980 280 CURVE SMOOTH",
"980 435 OFFCURVE",
"897 575 OFFCURVE",
"699 575 CURVE SMOOTH",
"566 575 OFFCURVE",
"495 499 OFFCURVE",
"448 417 CURVE",
"507 443 LINE",
"473 529 OFFCURVE",
"392 575 OFFCURVE",
"293 575 CURVE SMOOTH",
"135 575 OFFCURVE",
"38 457 OFFCURVE",
"38 285 CURVE SMOOTH",
"38 116 OFFCURVE",
"132 -10 OFFCURVE",
"193 -10 CURVE SMOOTH"
);
}
);
width = 1018;
}
);
unicode = 0D28;
},
{
glyphname = nnnamlym;
lastChange = "2019-06-05 08:30:18 +0000";
layers = (
{
layerId = UUID0;
paths = (
{
closed = 1;
nodes = (
"359 -6 OFFCURVE",
"422 64 OFFCURVE",
"422 159 CURVE SMOOTH",
"422 252 OFFCURVE",
"356 322 OFFCURVE",
"259 322 CURVE SMOOTH",
"185 322 OFFCURVE",
"127 276 OFFCURVE",
"90 213 CURVE",
"99 152 LINE",
"128 209 OFFCURVE",
"175 261 OFFCURVE",
"235 261 CURVE SMOOTH",
"288 261 OFFCURVE",
"331 225 OFFCURVE",
"331 159 CURVE SMOOTH",
"331 100 OFFCURVE",
"298 54 OFFCURVE",
"234 54 CURVE SMOOTH",
"173 54 OFFCURVE",
"97 116 OFFCURVE",
"97 250 CURVE SMOOTH",
"97 417 OFFCURVE",
"213 500 OFFCURVE",
"329 500 CURVE SMOOTH",
"445 500 OFFCURVE",
"524 428 OFFCURVE",
"524 292 CURVE SMOOTH",
"524 0 LINE",
"609 0 LINE",
"609 361 LINE",
"593 423 LINE",
"538 523 OFFCURVE",
"437 560 OFFCURVE",
"341 560 CURVE SMOOTH",
"190 560 OFFCURVE",
"42 457 OFFCURVE",
"42 251 CURVE SMOOTH",
"42 123 OFFCURVE",
"111 -6 OFFCURVE",
"252 -6 CURVE SMOOTH"
);
},
{
closed = 1;
nodes = (
"689 560 OFFCURVE",
"614 532 OFFCURVE",
"563 413 CURVE",
"534 354 LINE",
"534 0 LINE",
"619 0 LINE",
"619 355 LINE SMOOTH",
"619 436 OFFCURVE",
"670 500 OFFCURVE",
"751 500 CURVE SMOOTH",
"832 500 OFFCURVE",
"903 425 OFFCURVE",
"903 263 CURVE SMOOTH",
"903 162 OFFCURVE",
"862 55 OFFCURVE",
"786 0 CURVE",
"793 -4 OFFCURVE",
"808 -8 OFFCURVE",
"826 -8 CURVE SMOOTH",
"900 -8 OFFCURVE",
"1001 88 OFFCURVE",
"1001 265 CURVE SMOOTH",
"1001 461 OFFCURVE",
"892 560 OFFCURVE",
"763 560 CURVE SMOOTH"
);
}
);
width = 1043;
},
{
color = -1;
layerId = "D1B76089-C2CA-459D-9B35-7EF71253C59F";
paths = (
{
closed = 1;
nodes = (
"329 -6 OFFCURVE",
"388 60 OFFCURVE",
"388 143 CURVE SMOOTH",
"388 235 OFFCURVE",
"329 295 OFFCURVE",
"247 295 CURVE SMOOTH",
"161 295 OFFCURVE",
"105 237 OFFCURVE",
"72 182 CURVE",
"81 154 LINE",
"124 227 OFFCURVE",
"177 270 OFFCURVE",
"245 270 CURVE SMOOTH",
"308 270 OFFCURVE",
"360 227 OFFCURVE",
"360 143 CURVE SMOOTH",
"360 65 OFFCURVE",
"301 19 OFFCURVE",
"237 19 CURVE SMOOTH",
"128 19 OFFCURVE",
"75 129 OFFCURVE",
"75 261 CURVE SMOOTH",
"75 416 OFFCURVE",
"184 524 OFFCURVE",
"318 524 CURVE SMOOTH",
"447 524 OFFCURVE",
"522 448 OFFCURVE",
"522 320 CURVE SMOOTH",
"522 0 LINE",
"539 0 LINE",
"539 354 LINE",
"540 389 LINE",
"515 481 OFFCURVE",
"448 549 OFFCURVE",
"318 549 CURVE",
"169 549 OFFCURVE",
"48 431 OFFCURVE",
"48 261 CURVE SMOOTH",
"48 100 OFFCURVE",
"119 -6 OFFCURVE",
"237 -6 CURVE SMOOTH"
);
},
{
closed = 1;
nodes = (
"616 549 OFFCURVE",
"548 498 OFFCURVE",
"532 403 CURVE",
"532 357 LINE",
"532 0 LINE",
"549 0 LINE",
"549 357 LINE SMOOTH",
"549 456 OFFCURVE",
"611 524 OFFCURVE",
"701 524 CURVE SMOOTH",
"778 524 OFFCURVE",
"879 475 OFFCURVE",
"879 284 CURVE SMOOTH",
"879 146 OFFCURVE",
"815 44 OFFCURVE",
"743 1 CURVE",
"747 -3 OFFCURVE",
"753 -6 OFFCURVE",
"762 -6 CURVE SMOOTH",
"803 -6 OFFCURVE",
"907 106 OFFCURVE",
"907 284 CURVE SMOOTH",
"907 489 OFFCURVE",
"795 549 OFFCURVE",
"701 549 CURVE SMOOTH"
);
}
);
width = 955;
},
{
layerId = "C0B026C4-A727-4B54-9AF4-B5E9F769E1F3";
paths = (
{
closed = 1;
nodes = (
"389 -8 OFFCURVE",
"447 62 OFFCURVE",
"447 163 CURVE SMOOTH",
"447 250 OFFCURVE",
"395 330 OFFCURVE",
"270 330 CURVE SMOOTH",
"175 330 OFFCURVE",
"116 273 OFFCURVE",
"79 215 CURVE",
"94 148 LINE",
"123 205 OFFCURVE",
"165 253 OFFCURVE",
"220 253 CURVE SMOOTH",
"268 253 OFFCURVE",
"288 216 OFFCURVE",
"288 160 CURVE SMOOTH",
"288 97 OFFCURVE",
"266 69 OFFCURVE",
"218 69 CURVE SMOOTH",
"176 69 OFFCURVE",
"112 115 OFFCURVE",
"112 248 CURVE SMOOTH",
"112 410 OFFCURVE",
"228 494 OFFCURVE",
"349 494 CURVE SMOOTH",
"452 494 OFFCURVE",
"507 432 OFFCURVE",
"507 307 CURVE SMOOTH",
"507 0 LINE",
"710 0 LINE",
"710 373 LINE",
"677 434 LINE",
"605 535 OFFCURVE",
"518 575 OFFCURVE",
"382 575 CURVE SMOOTH",
"194 575 OFFCURVE",
"38 459 OFFCURVE",
"38 254 CURVE SMOOTH",
"38 104 OFFCURVE",
"110 -8 OFFCURVE",
"250 -8 CURVE SMOOTH"
);
},
{
closed = 1;
nodes = (
"735 575 OFFCURVE",
"664 499 OFFCURVE",
"617 417 CURVE",
"517 373 LINE",
"517 0 LINE",
"720 0 LINE",
"720 383 LINE SMOOTH",
"720 440 OFFCURVE",
"747 493 OFFCURVE",
"814 493 CURVE SMOOTH",
"890 493 OFFCURVE",
"927 401 OFFCURVE",
"927 272 CURVE SMOOTH",
"927 212 OFFCURVE",
"915 91 OFFCURVE",
"829 10 CURVE",
"845 -1 OFFCURVE",
"862 -8 OFFCURVE",
"896 -8 CURVE SMOOTH",
"1064 -8 OFFCURVE",
"1149 122 OFFCURVE",
"1149 280 CURVE SMOOTH",
"1149 435 OFFCURVE",
"1066 575 OFFCURVE",
"868 575 CURVE SMOOTH"
);
}
);
width = 1187;
}
);
leftMetricsKey = nnamlym;
rightMetricsKey = namlym;
unicode = 0D29;
},
{
glyphname = pamlym;
lastChange = "2019-06-05 08:30:18 +0000";
layers = (
{
layerId = UUID0;
paths = (
{
closed = 1;
nodes = (
"165 -6 OFFCURVE",
"172 0 OFFCURVE",
"180 14 CURVE",
"137 42 OFFCURVE",
"91 91 OFFCURVE",
"91 167 CURVE SMOOTH",
"91 239 OFFCURVE",
"137 299 OFFCURVE",
"216 299 CURVE SMOOTH",
"287 299 OFFCURVE",
"333 245 OFFCURVE",
"333 177 CURVE SMOOTH",
"333 90 OFFCURVE",
"283 41 OFFCURVE",
"255 17 CURVE",
"265 0 LINE",
"751 0 LINE",
"751 54 LINE",
"367 54 LINE",
"406 88 OFFCURVE",
"424 137 OFFCURVE",
"424 182 CURVE SMOOTH",
"424 292 OFFCURVE",
"334 359 OFFCURVE",
"228 359 CURVE SMOOTH",
"118 359 OFFCURVE",
"34 283 OFFCURVE",
"34 167 CURVE SMOOTH",
"34 68 OFFCURVE",
"98 -6 OFFCURVE",
"148 -6 CURVE SMOOTH"
);
},
{
closed = 1;
nodes = (
"820 0 LINE",
"820 554 LINE",
"725 554 LINE",
"725 0 LINE"
);
}
);
width = 892;
},
{
color = -1;
layerId = "D1B76089-C2CA-459D-9B35-7EF71253C59F";
paths = (
{
closed = 1;
nodes = (
"159 -4 OFFCURVE",
"163 0 OFFCURVE",
"166 6 CURVE",
"116 34 OFFCURVE",
"68 76 OFFCURVE",
"68 164 CURVE SMOOTH",
"68 241 OFFCURVE",
"128 301 OFFCURVE",
"208 301 CURVE SMOOTH",
"289 301 OFFCURVE",
"339 241 OFFCURVE",
"339 167 CURVE SMOOTH",
"339 90 OFFCURVE",
"296 45 OFFCURVE",
"257 12 CURVE",
"264 0 LINE",
"747 0 LINE",
"747 25 LINE",
"304 25 LINE",
"339 56 OFFCURVE",
"367 104 OFFCURVE",
"367 167 CURVE SMOOTH",
"367 268 OFFCURVE",
"292 326 OFFCURVE",
"208 326 CURVE SMOOTH",
"125 326 OFFCURVE",
"40 268 OFFCURVE",
"40 164 CURVE SMOOTH",
"40 52 OFFCURVE",
"121 -4 OFFCURVE",
"148 -4 CURVE SMOOTH"
);
},
{
closed = 1;
nodes = (
"764 0 LINE",
"764 543 LINE",
"737 543 LINE",
"737 0 LINE"
);
}
);
width = 842;
},
{
layerId = "C0B026C4-A727-4B54-9AF4-B5E9F769E1F3";
paths = (
{
closed = 1;
nodes = (
"169 -8 OFFCURVE",
"175 -2 OFFCURVE",
"183 14 CURVE",
"140 42 OFFCURVE",
"105 90 OFFCURVE",
"105 167 CURVE SMOOTH",
"105 239 OFFCURVE",
"146 288 OFFCURVE",
"206 288 CURVE SMOOTH",
"264 288 OFFCURVE",
"298 247 OFFCURVE",
"298 173 CURVE SMOOTH",
"298 99 OFFCURVE",
"276 57 OFFCURVE",
"243 17 CURVE",
"253 0 LINE",
"890 0 LINE",
"890 73 LINE",
"452 73 LINE",
"480 101 OFFCURVE",
"492 143 OFFCURVE",
"492 185 CURVE SMOOTH",
"492 285 OFFCURVE",
"400 364 OFFCURVE",
"255 364 CURVE SMOOTH",
"106 364 OFFCURVE",
"28 280 OFFCURVE",
"28 167 CURVE SMOOTH",
"28 67 OFFCURVE",
"90 -8 OFFCURVE",
"144 -8 CURVE SMOOTH"
);
},
{
closed = 1;
nodes = (
"946 0 LINE",
"946 566 LINE",
"731 566 LINE",
"731 0 LINE"
);
}
);
width = 1008;
}
);
unicode = 0D2A;
},
{
glyphname = phamlym;
lastChange = "2019-06-05 08:30:18 +0000";
layers = (
{
layerId = UUID0;
paths = (
{
closed = 1;
nodes = (
"165 -6 OFFCURVE",
"172 0 OFFCURVE",
"180 14 CURVE",
"137 42 OFFCURVE",
"91 91 OFFCURVE",
"91 167 CURVE SMOOTH",
"91 239 OFFCURVE",
"137 299 OFFCURVE",
"216 299 CURVE SMOOTH",
"287 299 OFFCURVE",
"333 245 OFFCURVE",
"333 177 CURVE SMOOTH",
"333 90 OFFCURVE",
"283 41 OFFCURVE",
"255 17 CURVE",
"265 0 LINE",
"771 0 LINE",
"771 54 LINE",
"367 54 LINE",
"406 88 OFFCURVE",
"424 137 OFFCURVE",
"424 182 CURVE SMOOTH",
"424 292 OFFCURVE",
"334 359 OFFCURVE",
"228 359 CURVE SMOOTH",
"118 359 OFFCURVE",
"34 283 OFFCURVE",
"34 167 CURVE SMOOTH",
"34 68 OFFCURVE",
"98 -6 OFFCURVE",
"148 -6 CURVE SMOOTH"
);
},
{
closed = 1;
nodes = (
"1057 0 LINE",
"1057 294 LINE SMOOTH",
"1057 449 OFFCURVE",
"980 560 OFFCURVE",
"820 560 CURVE SMOOTH",
"669 560 OFFCURVE",
"582 459 OFFCURVE",
"582 312 CURVE SMOOTH",
"582 0 LINE"
);
},
{
closed = 1;
nodes = (
"677 306 LINE SMOOTH",
"677 426 OFFCURVE",
"730 500 OFFCURVE",
"838 500 CURVE SMOOTH",
"952 500 OFFCURVE",
"998 413 OFFCURVE",
"998 286 CURVE SMOOTH",
"998 54 LINE",
"677 54 LINE"
);
}
);
width = 1122;
},
{
color = -1;
layerId = "D1B76089-C2CA-459D-9B35-7EF71253C59F";
paths = (
{
closed = 1;
nodes = (
"159 -4 OFFCURVE",
"163 0 OFFCURVE",
"166 6 CURVE",
"116 34 OFFCURVE",
"68 76 OFFCURVE",
"68 164 CURVE SMOOTH",
"68 241 OFFCURVE",
"128 301 OFFCURVE",
"208 301 CURVE SMOOTH",
"289 301 OFFCURVE",
"339 241 OFFCURVE",
"339 167 CURVE SMOOTH",
"339 90 OFFCURVE",
"296 45 OFFCURVE",
"257 12 CURVE",
"264 0 LINE",
"627 0 LINE",
"627 25 LINE",
"304 25 LINE",
"339 56 OFFCURVE",
"367 104 OFFCURVE",
"367 167 CURVE SMOOTH",
"367 268 OFFCURVE",
"292 326 OFFCURVE",
"208 326 CURVE SMOOTH",
"125 326 OFFCURVE",
"40 268 OFFCURVE",
"40 164 CURVE SMOOTH",
"40 52 OFFCURVE",
"121 -4 OFFCURVE",
"148 -4 CURVE SMOOTH"
);
},
{
closed = 1;
nodes = (
"962 0 LINE",
"962 303 LINE SMOOTH",
"962 434 OFFCURVE",
"901 549 OFFCURVE",
"751 549 CURVE SMOOTH",
"601 549 OFFCURVE",
"540 434 OFFCURVE",
"540 304 CURVE SMOOTH",
"540 0 LINE"
);
},
{
closed = 1;
nodes = (
"567 294 LINE SMOOTH",
"567 435 OFFCURVE",
"626 524 OFFCURVE",
"751 524 CURVE SMOOTH",
"876 524 OFFCURVE",
"935 435 OFFCURVE",
"935 294 CURVE SMOOTH",
"935 25 LINE",
"567 25 LINE"
);
}
);
width = 1035;
},
{
layerId = "C0B026C4-A727-4B54-9AF4-B5E9F769E1F3";
paths = (
{
closed = 1;
nodes = (
"169 -8 OFFCURVE",
"175 -2 OFFCURVE",
"183 14 CURVE",
"140 42 OFFCURVE",
"105 90 OFFCURVE",
"105 167 CURVE SMOOTH",
"105 239 OFFCURVE",
"146 288 OFFCURVE",
"206 288 CURVE SMOOTH",
"264 288 OFFCURVE",
"298 247 OFFCURVE",
"298 173 CURVE SMOOTH",
"298 99 OFFCURVE",
"276 57 OFFCURVE",
"243 17 CURVE",
"253 0 LINE",
"712 0 LINE",
"712 73 LINE",
"452 73 LINE",
"480 101 OFFCURVE",
"492 143 OFFCURVE",
"492 185 CURVE SMOOTH",
"492 285 OFFCURVE",
"400 364 OFFCURVE",
"255 364 CURVE SMOOTH",
"106 364 OFFCURVE",
"28 280 OFFCURVE",
"28 167 CURVE SMOOTH",
"28 67 OFFCURVE",
"90 -8 OFFCURVE",
"144 -8 CURVE SMOOTH"
);
},
{
closed = 1;
nodes = (
"1160 0 LINE",
"1160 302 LINE SMOOTH",
"1160 500 OFFCURVE",
"1045 575 OFFCURVE",
"896 575 CURVE SMOOTH",
"745 575 OFFCURVE",
"612 500 OFFCURVE",
"612 318 CURVE SMOOTH",
"612 0 LINE"
);
},
{
closed = 1;
nodes = (
"824 329 LINE SMOOTH",
"824 430 OFFCURVE",
"864 493 OFFCURVE",
"950 493 CURVE SMOOTH",
"1042 493 OFFCURVE",
"1082 415 OFFCURVE",
"1082 291 CURVE SMOOTH",
"1082 73 LINE",
"824 73 LINE"
);
}
);
width = 1216;
}
);
leftMetricsKey = pamlym;
rightMetricsKey = thamlym;
unicode = 0D2B;
},
{
glyphname = bamlym;
lastChange = "2019-06-05 08:30:18 +0000";
layers = (
{
layerId = UUID0;
paths = (
{
closed = 1;
nodes = (
"359 -6 OFFCURVE",
"422 64 OFFCURVE",
"422 159 CURVE SMOOTH",
"422 252 OFFCURVE",
"356 322 OFFCURVE",
"259 322 CURVE SMOOTH",
"185 322 OFFCURVE",
"127 276 OFFCURVE",
"90 213 CURVE",
"99 152 LINE",
"128 209 OFFCURVE",
"175 261 OFFCURVE",
"235 261 CURVE SMOOTH",
"288 261 OFFCURVE",
"331 225 OFFCURVE",
"331 159 CURVE SMOOTH",
"331 100 OFFCURVE",
"298 54 OFFCURVE",
"234 54 CURVE SMOOTH",
"173 54 OFFCURVE",
"97 116 OFFCURVE",
"97 250 CURVE SMOOTH",
"97 417 OFFCURVE",
"213 500 OFFCURVE",
"329 500 CURVE SMOOTH",
"445 500 OFFCURVE",
"524 428 OFFCURVE",
"524 292 CURVE SMOOTH",
"524 0 LINE",
"609 0 LINE",
"609 361 LINE",
"593 423 LINE",
"538 523 OFFCURVE",
"437 560 OFFCURVE",
"341 560 CURVE SMOOTH",
"190 560 OFFCURVE",
"42 457 OFFCURVE",
"42 251 CURVE SMOOTH",
"42 123 OFFCURVE",
"111 -6 OFFCURVE",
"252 -6 CURVE SMOOTH"
);
},
{
closed = 1;
nodes = (
"689 560 OFFCURVE",
"614 532 OFFCURVE",
"563 413 CURVE",
"534 292 LINE",
"534 0 LINE",
"619 0 LINE",
"619 355 LINE SMOOTH",
"619 436 OFFCURVE",
"670 500 OFFCURVE",
"751 500 CURVE SMOOTH",
"832 500 OFFCURVE",
"903 425 OFFCURVE",
"903 265 CURVE SMOOTH",
"903 166 OFFCURVE",
"870 86 OFFCURVE",
"823 28 CURVE",
"836 0 LINE",
"1270 0 LINE",
"1270 554 LINE",
"1174 554 LINE",
"1174 54 LINE",
"902 54 LINE",
"921 45 LINE",
"968 100 OFFCURVE",
"1001 179 OFFCURVE",
"1001 269 CURVE SMOOTH",
"1001 461 OFFCURVE",
"892 560 OFFCURVE",
"763 560 CURVE SMOOTH"
);
}
);
width = 1342;
},
{
color = -1;
layerId = "D1B76089-C2CA-459D-9B35-7EF71253C59F";
paths = (
{
closed = 1;
nodes = (
"329 -6 OFFCURVE",
"388 60 OFFCURVE",
"388 143 CURVE SMOOTH",
"388 235 OFFCURVE",
"329 295 OFFCURVE",
"247 295 CURVE SMOOTH",
"161 295 OFFCURVE",
"105 237 OFFCURVE",
"72 182 CURVE",
"81 154 LINE",
"124 227 OFFCURVE",
"177 270 OFFCURVE",
"245 270 CURVE SMOOTH",
"308 270 OFFCURVE",
"360 227 OFFCURVE",
"360 143 CURVE SMOOTH",
"360 65 OFFCURVE",
"301 19 OFFCURVE",
"237 19 CURVE SMOOTH",
"128 19 OFFCURVE",
"75 129 OFFCURVE",
"75 261 CURVE SMOOTH",
"75 416 OFFCURVE",
"184 524 OFFCURVE",
"318 524 CURVE SMOOTH",
"447 524 OFFCURVE",
"522 448 OFFCURVE",
"522 320 CURVE SMOOTH",
"522 0 LINE",
"539 0 LINE",
"539 354 LINE",
"540 389 LINE",
"515 481 OFFCURVE",
"448 549 OFFCURVE",
"318 549 CURVE",
"169 549 OFFCURVE",
"48 431 OFFCURVE",
"48 261 CURVE SMOOTH",
"48 100 OFFCURVE",
"121 -6 OFFCURVE",
"237 -6 CURVE SMOOTH"
);
},
{
closed = 1;
nodes = (
"616 549 OFFCURVE",
"548 498 OFFCURVE",
"532 403 CURVE",
"532 358 LINE",
"532 0 LINE",
"549 0 LINE",
"549 357 LINE SMOOTH",
"549 456 OFFCURVE",
"611 524 OFFCURVE",
"701 524 CURVE SMOOTH",
"778 524 OFFCURVE",
"879 475 OFFCURVE",
"879 284 CURVE SMOOTH",
"879 158 OFFCURVE",
"827 71 OFFCURVE",
"774 18 CURVE",
"783 0 LINE",
"1126 0 LINE",
"1126 543 LINE",
"1099 543 LINE",
"1099 25 LINE",
"801 25 LINE",
"811 22 LINE",
"852 67 OFFCURVE",
"907 155 OFFCURVE",
"907 284 CURVE SMOOTH",
"907 489 OFFCURVE",
"795 549 OFFCURVE",
"701 549 CURVE SMOOTH"
);
}
);
width = 1204;
},
{
layerId = "C0B026C4-A727-4B54-9AF4-B5E9F769E1F3";
paths = (
{
closed = 1;
nodes = (
"389 -8 OFFCURVE",
"447 62 OFFCURVE",
"447 163 CURVE SMOOTH",
"447 250 OFFCURVE",
"395 330 OFFCURVE",
"270 330 CURVE SMOOTH",
"175 330 OFFCURVE",
"116 273 OFFCURVE",
"79 215 CURVE",
"94 148 LINE",
"123 205 OFFCURVE",
"165 253 OFFCURVE",
"220 253 CURVE SMOOTH",
"268 253 OFFCURVE",
"288 216 OFFCURVE",
"288 160 CURVE SMOOTH",
"288 97 OFFCURVE",
"266 69 OFFCURVE",
"218 69 CURVE SMOOTH",
"176 69 OFFCURVE",
"112 115 OFFCURVE",
"112 248 CURVE SMOOTH",
"112 410 OFFCURVE",
"228 494 OFFCURVE",
"349 494 CURVE SMOOTH",
"452 494 OFFCURVE",
"507 432 OFFCURVE",
"507 307 CURVE SMOOTH",
"507 0 LINE",
"710 0 LINE",
"710 373 LINE",
"677 434 LINE",
"605 535 OFFCURVE",
"518 575 OFFCURVE",
"382 575 CURVE SMOOTH",
"194 575 OFFCURVE",
"38 459 OFFCURVE",
"38 254 CURVE SMOOTH",
"38 104 OFFCURVE",
"110 -8 OFFCURVE",
"250 -8 CURVE SMOOTH"
);
},
{
closed = 1;
nodes = (
"735 575 OFFCURVE",
"664 499 OFFCURVE",
"617 417 CURVE",
"516 307 LINE",
"516 0 LINE",
"720 0 LINE",
"720 383 LINE SMOOTH",
"720 440 OFFCURVE",
"747 493 OFFCURVE",
"814 493 CURVE SMOOTH",
"890 493 OFFCURVE",
"927 402 OFFCURVE",
"927 280 CURVE SMOOTH",
"927 196 OFFCURVE",
"909 97 OFFCURVE",
"848 25 CURVE",
"860 0 LINE",
"1488 0 LINE",
"1488 567 LINE",
"1273 567 LINE",
"1273 73 LINE",
"1050 73 LINE",
"1065 58 LINE",
"1115 109 OFFCURVE",
"1146 182 OFFCURVE",
"1146 287 CURVE SMOOTH",
"1146 434 OFFCURVE",
"1067 575 OFFCURVE",
"868 575 CURVE SMOOTH"
);
}
);
width = 1550;
}
);
leftMetricsKey = "=nnamlym";
rightMetricsKey = pamlym;
unicode = 0D2C;
},
{
glyphname = bhamlym;
lastChange = "2019-06-05 08:30:18 +0000";
layers = (
{
layerId = UUID0;
paths = (
{
closed = 1;
nodes = (
"150 -9 OFFCURVE",
"158 -6 OFFCURVE",
"164 -2 CURVE",
"127 68 OFFCURVE",
"105 127 OFFCURVE",
"105 233 CURVE SMOOTH",
"105 376 OFFCURVE",
"178 500 OFFCURVE",
"358 500 CURVE SMOOTH",
"448 500 OFFCURVE",
"501 468 OFFCURVE",
"501 413 CURVE SMOOTH",
"501 380 OFFCURVE",
"486 361 OFFCURVE",
"442 361 CURVE SMOOTH",
"417 361 OFFCURVE",
"400 363 OFFCURVE",
"377 363 CURVE SMOOTH",
"293 363 OFFCURVE",
"246 330 OFFCURVE",
"246 266 CURVE SMOOTH",
"246 198 OFFCURVE",
"304 166 OFFCURVE",
"394 166 CURVE SMOOTH",
"406 166 LINE SMOOTH",
"462 166 OFFCURVE",
"495 150 OFFCURVE",
"495 111 CURVE SMOOTH",
"495 70 OFFCURVE",
"468 50 OFFCURVE",
"394 50 CURVE SMOOTH",
"334 50 OFFCURVE",
"287 69 OFFCURVE",
"251 89 CURVE",
"248 83 OFFCURVE",
"246 77 OFFCURVE",
"246 69 CURVE SMOOTH",
"246 36 OFFCURVE",
"290 -6 OFFCURVE",
"402 -6 CURVE SMOOTH",
"520 -6 OFFCURVE",
"586 40 OFFCURVE",
"586 113 CURVE SMOOTH",
"586 181 OFFCURVE",
"534 217 OFFCURVE",
"443 217 CURVE SMOOTH",
"424 217 LINE SMOOTH",
"372 217 OFFCURVE",
"337 231 OFFCURVE",
"337 270 CURVE SMOOTH",
"337 303 OFFCURVE",
"363 316 OFFCURVE",
"407 316 CURVE SMOOTH",
"431 316 OFFCURVE",
"458 314 OFFCURVE",
"483 314 CURVE SMOOTH",
"564 314 OFFCURVE",
"594 358 OFFCURVE",
"594 414 CURVE SMOOTH",
"594 496 OFFCURVE",
"512 560 OFFCURVE",
"367 560 CURVE SMOOTH",
"143 560 OFFCURVE",
"46 407 OFFCURVE",
"46 233 CURVE SMOOTH",
"46 60 OFFCURVE",
"105 -9 OFFCURVE",
"143 -9 CURVE SMOOTH"
);
}
);
width = 629;
},
{
color = -1;
layerId = "D1B76089-C2CA-459D-9B35-7EF71253C59F";
paths = (
{
closed = 1;
nodes = (
"140 -6 OFFCURVE",
"145 -4 OFFCURVE",
"150 0 CURVE",
"117 41 OFFCURVE",
"80 114 OFFCURVE",
"80 227 CURVE SMOOTH",
"80 410 OFFCURVE",
"192 524 OFFCURVE",
"361 524 CURVE SMOOTH",
"458 524 OFFCURVE",
"525 483 OFFCURVE",
"525 415 CURVE SMOOTH",
"525 371 OFFCURVE",
"505 347 OFFCURVE",
"439 347 CURVE SMOOTH",
"421 347 OFFCURVE",
"397 349 OFFCURVE",
"377 349 CURVE SMOOTH",
"315 349 OFFCURVE",
"259 325 OFFCURVE",
"259 263 CURVE SMOOTH",
"259 198 OFFCURVE",
"314 175 OFFCURVE",
"392 175 CURVE SMOOTH",
"416 175 LINE SMOOTH",
"481 175 OFFCURVE",
"517 154 OFFCURVE",
"517 102 CURVE SMOOTH",
"517 53 OFFCURVE",
"482 19 OFFCURVE",
"394 19 CURVE SMOOTH",
"337 19 OFFCURVE",
"299 33 OFFCURVE",
"264 54 CURVE",
"261 49 OFFCURVE",
"260 46 OFFCURVE",
"260 41 CURVE SMOOTH",
"260 20 OFFCURVE",
"319 -6 OFFCURVE",
"394 -6 CURVE SMOOTH",
"488 -6 OFFCURVE",
"545 30 OFFCURVE",
"545 103 CURVE SMOOTH",
"545 177 OFFCURVE",
"487 200 OFFCURVE",
"416 200 CURVE SMOOTH",
"392 200 LINE SMOOTH",
"324 200 OFFCURVE",
"287 215 OFFCURVE",
"287 263 CURVE SMOOTH",
"287 309 OFFCURVE",
"325 324 OFFCURVE",
"379 324 CURVE SMOOTH",
"403 324 OFFCURVE",
"428 322 OFFCURVE",
"442 322 CURVE SMOOTH",
"513 322 OFFCURVE",
"553 354 OFFCURVE",
"553 415 CURVE SMOOTH",
"553 501 OFFCURVE",
"470 549 OFFCURVE",
"360 549 CURVE SMOOTH",
"174 549 OFFCURVE",
"52 419 OFFCURVE",
"52 227 CURVE SMOOTH",
"52 87 OFFCURVE",
"113 -6 OFFCURVE",
"133 -6 CURVE SMOOTH"
);
}
);
width = 594;
},
{
layerId = "C0B026C4-A727-4B54-9AF4-B5E9F769E1F3";
paths = (
{
closed = 1;
nodes = (
"163 -9 OFFCURVE",
"175 -6 OFFCURVE",
"183 0 CURVE",
"140 76 OFFCURVE",
"120 144 OFFCURVE",
"120 239 CURVE SMOOTH",
"120 383 OFFCURVE",
"193 493 OFFCURVE",
"347 493 CURVE SMOOTH",
"420 493 OFFCURVE",
"459 464 OFFCURVE",
"459 421 CURVE SMOOTH",
"459 391 OFFCURVE",
"444 373 OFFCURVE",
"403 373 CURVE SMOOTH",
"394 373 OFFCURVE",
"382 374 OFFCURVE",
"376 374 CURVE SMOOTH",
"279 374 OFFCURVE",
"223 341 OFFCURVE",
"223 266 CURVE SMOOTH",
"223 197 OFFCURVE",
"274 149 OFFCURVE",
"389 149 CURVE SMOOTH",
"399 149 LINE SMOOTH",
"439 149 OFFCURVE",
"462 139 OFFCURVE",
"462 111 CURVE SMOOTH",
"462 84 OFFCURVE",
"443 67 OFFCURVE",
"385 67 CURVE SMOOTH",
"322 67 OFFCURVE",
"271 85 OFFCURVE",
"228 109 CURVE",
"225 103 OFFCURVE",
"223 94 OFFCURVE",
"223 84 CURVE SMOOTH",
"223 38 OFFCURVE",
"269 -8 OFFCURVE",
"444 -8 CURVE SMOOTH",
"595 -8 OFFCURVE",
"672 41 OFFCURVE",
"672 125 CURVE SMOOTH",
"672 193 OFFCURVE",
"627 240 OFFCURVE",
"511 240 CURVE SMOOTH",
"499 240 LINE SMOOTH",
"450 240 OFFCURVE",
"433 250 OFFCURVE",
"433 279 CURVE SMOOTH",
"433 302 OFFCURVE",
"452 315 OFFCURVE",
"488 315 CURVE SMOOTH",
"507 315 OFFCURVE",
"522 314 OFFCURVE",
"542 314 CURVE SMOOTH",
"646 314 OFFCURVE",
"678 362 OFFCURVE",
"678 422 CURVE SMOOTH",
"678 513 OFFCURVE",
"582 575 OFFCURVE",
"399 575 CURVE SMOOTH",
"162 575 OFFCURVE",
"42 435 OFFCURVE",
"42 239 CURVE SMOOTH",
"42 111 OFFCURVE",
"79 -9 OFFCURVE",
"152 -9 CURVE SMOOTH"
);
}
);
width = 709;
}
);
unicode = 0D2D;
},
{
glyphname = mamlym;
lastChange = "2019-06-05 08:30:18 +0000";
layers = (
{
layerId = UUID0;
paths = (
{
closed = 1;
nodes = (
"622 0 LINE",
"622 303 LINE SMOOTH",
"622 469 OFFCURVE",
"502 560 OFFCURVE",
"347 560 CURVE SMOOTH",
"196 560 OFFCURVE",
"64 480 OFFCURVE",
"64 296 CURVE SMOOTH",
"64 0 LINE"
);
},
{
closed = 1;
nodes = (
"361 110 OFFCURVE",
"443 224 OFFCURVE",
"443 331 CURVE SMOOTH",
"443 429 OFFCURVE",
"375 494 OFFCURVE",
"266 494 CURVE SMOOTH",
"229 494 OFFCURVE",
"193 482 OFFCURVE",
"162 466 CURVE",
"173 461 LINE",
"203 486 OFFCURVE",
"252 505 OFFCURVE",
"329 505 CURVE SMOOTH",
"457 505 OFFCURVE",
"536 443 OFFCURVE",
"536 298 CURVE SMOOTH",
"536 54 LINE",
"123 54 LINE",
"123 291 LINE SMOOTH",
"123 418 OFFCURVE",
"176 457 OFFCURVE",
"240 457 CURVE SMOOTH",
"315 457 OFFCURVE",
"344 403 OFFCURVE",
"344 340 CURVE SMOOTH",
"344 229 OFFCURVE",
"249 127 OFFCURVE",
"123 54 CURVE",
"156 25 LINE"
);
}
);
width = 686;
},
{
color = -1;
layerId = "D1B76089-C2CA-459D-9B35-7EF71253C59F";
paths = (
{
closed = 1;
nodes = (
"563 0 LINE",
"563 281 LINE SMOOTH",
"563 470 OFFCURVE",
"464 548 OFFCURVE",
"326 548 CURVE SMOOTH",
"192 548 OFFCURVE",
"70 465 OFFCURVE",
"70 276 CURVE SMOOTH",
"70 0 LINE"
);
},
{
closed = 1;
nodes = (
"330 102 OFFCURVE",
"409 219 OFFCURVE",
"409 325 CURVE SMOOTH",
"409 438 OFFCURVE",
"335 487 OFFCURVE",
"253 487 CURVE SMOOTH",
"208 487 OFFCURVE",
"168 472 OFFCURVE",
"135 442 CURVE",
"136 441 LINE",
"168 484 OFFCURVE",
"236 523 OFFCURVE",
"326 523 CURVE SMOOTH",
"431 523 OFFCURVE",
"536 470 OFFCURVE",
"536 281 CURVE SMOOTH",
"536 25 LINE",
"97 25 LINE",
"97 276 LINE SMOOTH",
"97 416 OFFCURVE",
"158 462 OFFCURVE",
"247 462 CURVE SMOOTH",
"319 462 OFFCURVE",
"381 427 OFFCURVE",
"381 325 CURVE SMOOTH",
"381 228 OFFCURVE",
"314 122 OFFCURVE",
"97 25 CURVE",
"113 9 LINE"
);
}
);
width = 633;
},
{
layerId = "C0B026C4-A727-4B54-9AF4-B5E9F769E1F3";
paths = (
{
closed = 1;
nodes = (
"699 0 LINE",
"699 287 LINE SMOOTH",
"699 483 OFFCURVE",
"547 575 OFFCURVE",
"383 575 CURVE SMOOTH",
"205 575 OFFCURVE",
"56 483 OFFCURVE",
"56 289 CURVE SMOOTH",
"56 0 LINE"
);
},
{
closed = 1;
nodes = (
"456 116 OFFCURVE",
"525 227 OFFCURVE",
"525 330 CURVE SMOOTH",
"525 441 OFFCURVE",
"435 507 OFFCURVE",
"325 507 CURVE SMOOTH",
"251 507 OFFCURVE",
"216 495 OFFCURVE",
"185 479 CURVE",
"196 461 LINE",
"226 486 OFFCURVE",
"275 508 OFFCURVE",
"364 508 CURVE SMOOTH",
"485 508 OFFCURVE",
"588 456 OFFCURVE",
"588 280 CURVE SMOOTH",
"588 72 LINE",
"130 72 LINE",
"130 287 LINE SMOOTH",
"130 398 OFFCURVE",
"174 451 OFFCURVE",
"232 451 CURVE SMOOTH",
"281 451 OFFCURVE",
"312 421 OFFCURVE",
"312 359 CURVE SMOOTH",
"312 241 OFFCURVE",
"218 138 OFFCURVE",
"114 63 CURVE",
"252 38 LINE"
);
}
);
width = 755;
}
);
unicode = 0D2E;
},
{
glyphname = yamlym;
lastChange = "2019-06-05 08:30:18 +0000";
layers = (
{
layerId = UUID0;
paths = (
{
closed = 1;
nodes = (
"544 -6 OFFCURVE",
"673 147 OFFCURVE",
"673 322 CURVE SMOOTH",
"673 491 OFFCURVE",
"567 560 OFFCURVE",
"472 560 CURVE SMOOTH",
"368 560 OFFCURVE",
"278 486 OFFCURVE",
"278 344 CURVE SMOOTH",
"278 122 OFFCURVE",
"439 -6 OFFCURVE",
"633 -6 CURVE SMOOTH",
"803 -6 OFFCURVE",
"935 105 OFFCURVE",
"935 300 CURVE SMOOTH",
"935 456 OFFCURVE",
"848 560 OFFCURVE",
"763 560 CURVE SMOOTH",
"752 560 OFFCURVE",
"737 557 OFFCURVE",
"727 551 CURVE",
"792 496 OFFCURVE",
"836 414 OFFCURVE",
"836 302 CURVE SMOOTH",
"836 133 OFFCURVE",
"731 54 OFFCURVE",
"613 54 CURVE SMOOTH",
"448 54 OFFCURVE",
"337 172 OFFCURVE",
"337 344 CURVE SMOOTH",
"337 450 OFFCURVE",
"395 500 OFFCURVE",
"457 500 CURVE SMOOTH",
"521 500 OFFCURVE",
"580 451 OFFCURVE",
"580 330 CURVE SMOOTH",
"580 206 OFFCURVE",
"513 54 OFFCURVE",
"340 54 CURVE SMOOTH",
"185 54 OFFCURVE",
"101 172 OFFCURVE",
"101 315 CURVE SMOOTH",
"101 417 OFFCURVE",
"148 500 OFFCURVE",
"252 500 CURVE SMOOTH",
"292 500 OFFCURVE",
"326 487 OFFCURVE",
"354 456 CURVE",
"390 514 LINE",
"351 544 OFFCURVE",
"313 560 OFFCURVE",
"255 560 CURVE SMOOTH",
"123 560 OFFCURVE",
"42 460 OFFCURVE",
"42 314 CURVE SMOOTH",
"42 133 OFFCURVE",
"155 -6 OFFCURVE",
"337 -6 CURVE SMOOTH"
);
}
);
width = 977;
},
{
color = -1;
layerId = "D1B76089-C2CA-459D-9B35-7EF71253C59F";
paths = (
{
closed = 1;
nodes = (
"485 -6 OFFCURVE",
"623 111 OFFCURVE",
"623 326 CURVE SMOOTH",
"623 440 OFFCURVE",
"568 549 OFFCURVE",
"456 549 CURVE SMOOTH",
"353 549 OFFCURVE",
"289 457 OFFCURVE",
"289 339 CURVE SMOOTH",
"289 87 OFFCURVE",
"463 -6 OFFCURVE",
"596 -6 CURVE SMOOTH",
"734 -6 OFFCURVE",
"853 84 OFFCURVE",
"853 287 CURVE SMOOTH",
"853 447 OFFCURVE",
"758 549 OFFCURVE",
"720 549 CURVE SMOOTH",
"710 549 OFFCURVE",
"702 546 OFFCURVE",
"699 542 CURVE",
"770 499 OFFCURVE",
"825 406 OFFCURVE",
"825 287 CURVE SMOOTH",
"825 97 OFFCURVE",
"716 19 OFFCURVE",
"596 19 CURVE SMOOTH",
"474 19 OFFCURVE",
"317 104 OFFCURVE",
"317 339 CURVE SMOOTH",
"317 436 OFFCURVE",
"365 524 OFFCURVE",
"456 524 CURVE SMOOTH",
"540 524 OFFCURVE",
"595 439 OFFCURVE",
"595 326 CURVE SMOOTH",
"595 135 OFFCURVE",
"479 19 OFFCURVE",
"331 19 CURVE SMOOTH",
"177 19 OFFCURVE",
"76 140 OFFCURVE",
"76 312 CURVE SMOOTH",
"76 437 OFFCURVE",
"144 524 OFFCURVE",
"244 524 CURVE SMOOTH",
"294 524 OFFCURVE",
"327 502 OFFCURVE",
"352 477 CURVE",
"366 500 LINE",
"333 528 OFFCURVE",
"298 549 OFFCURVE",
"244 549 CURVE SMOOTH",
"144 549 OFFCURVE",
"48 470 OFFCURVE",
"48 312 CURVE SMOOTH",
"48 122 OFFCURVE",
"166 -6 OFFCURVE",
"330 -6 CURVE"
);
}
);
width = 901;
},
{
layerId = "C0B026C4-A727-4B54-9AF4-B5E9F769E1F3";
paths = (
{
closed = 1;
nodes = (
"560 -8 OFFCURVE",
"714 145 OFFCURVE",
"714 327 CURVE SMOOTH",
"714 494 OFFCURVE",
"615 575 OFFCURVE",
"480 575 CURVE SMOOTH",
"347 575 OFFCURVE",
"261 490 OFFCURVE",
"261 352 CURVE SMOOTH",
"261 127 OFFCURVE",
"454 -8 OFFCURVE",
"675 -8 CURVE SMOOTH",
"890 -8 OFFCURVE",
"1055 75 OFFCURVE",
"1055 285 CURVE SMOOTH",
"1055 480 OFFCURVE",
"937 575 OFFCURVE",
"804 575 CURVE SMOOTH",
"766 575 OFFCURVE",
"745 566 OFFCURVE",
"737 556 CURVE",
"807 489 OFFCURVE",
"833 401 OFFCURVE",
"833 300 CURVE SMOOTH",
"833 164 OFFCURVE",
"763 75 OFFCURVE",
"633 75 CURVE SMOOTH",
"477 75 OFFCURVE",
"339 171 OFFCURVE",
"339 349 CURVE SMOOTH",
"339 447 OFFCURVE",
"377 493 OFFCURVE",
"422 493 CURVE SMOOTH",
"471 493 OFFCURVE",
"504 444 OFFCURVE",
"504 337 CURVE SMOOTH",
"504 205 OFFCURVE",
"458 70 OFFCURVE",
"318 70 CURVE SMOOTH",
"208 70 OFFCURVE",
"116 153 OFFCURVE",
"116 328 CURVE SMOOTH",
"116 415 OFFCURVE",
"155 493 OFFCURVE",
"257 493 CURVE SMOOTH",
"302 493 OFFCURVE",
"328 475 OFFCURVE",
"346 455 CURVE",
"403 525 LINE",
"363 558 OFFCURVE",
"323 575 OFFCURVE",
"262 575 CURVE SMOOTH",
"118 575 OFFCURVE",
"38 470 OFFCURVE",
"38 329 CURVE SMOOTH",
"38 120 OFFCURVE",
"149 -8 OFFCURVE",
"348 -8 CURVE SMOOTH"
);
}
);
width = 1093;
}
);
leftMetricsKey = tamlym;
rightMetricsKey = tamlym;
unicode = 0D2F;
},
{
glyphname = ramlym;
lastChange = "2019-06-05 08:30:18 +0000";
layers = (
{
layerId = UUID0;
paths = (
{
closed = 1;
nodes = (
"215 -6 OFFCURVE",
"230 0 OFFCURVE",
"238 11 CURVE",
"159 61 OFFCURVE",
"101 145 OFFCURVE",
"101 254 CURVE SMOOTH",
"101 402 OFFCURVE",
"194 498 OFFCURVE",
"328 498 CURVE SMOOTH",
"475 498 OFFCURVE",
"546 364 OFFCURVE",
"546 232 CURVE SMOOTH",
"546 95 OFFCURVE",
"496 54 OFFCURVE",
"434 54 CURVE SMOOTH",
"368 54 OFFCURVE",
"323 105 OFFCURVE",
"323 199 CURVE SMOOTH",
"323 307 OFFCURVE",
"373 412 OFFCURVE",
"461 484 CURVE",
"428 523 LINE",
"328 439 OFFCURVE",
"265 334 OFFCURVE",
"265 204 CURVE SMOOTH",
"265 80 OFFCURVE",
"328 -6 OFFCURVE",
"444 -6 CURVE SMOOTH",
"572 -6 OFFCURVE",
"643 106 OFFCURVE",
"643 234 CURVE SMOOTH",
"643 420 OFFCURVE",
"526 560 OFFCURVE",
"336 560 CURVE SMOOTH",
"181 560 OFFCURVE",
"42 450 OFFCURVE",
"42 256 CURVE SMOOTH",
"42 104 OFFCURVE",
"137 -6 OFFCURVE",
"201 -6 CURVE SMOOTH"
);
}
);
width = 685;
},
{
color = -1;
layerId = "D1B76089-C2CA-459D-9B35-7EF71253C59F";
paths = (
{
closed = 1;
nodes = (
"191 -6 OFFCURVE",
"196 -4 OFFCURVE",
"202 1 CURVE",
"119 52 OFFCURVE",
"76 154 OFFCURVE",
"76 256 CURVE SMOOTH",
"76 398 OFFCURVE",
"169 524 OFFCURVE",
"325 524 CURVE SMOOTH",
"469 524 OFFCURVE",
"570 406 OFFCURVE",
"570 237 CURVE SMOOTH",
"570 106 OFFCURVE",
"522 19 OFFCURVE",
"428 19 CURVE SMOOTH",
"352 19 OFFCURVE",
"297 92 OFFCURVE",
"297 206 CURVE SMOOTH",
"297 340 OFFCURVE",
"365 441 OFFCURVE",
"447 498 CURVE",
"429 516 LINE",
"337 453 OFFCURVE",
"269 343 OFFCURVE",
"269 206 CURVE SMOOTH",
"269 88 OFFCURVE",
"328 -6 OFFCURVE",
"428 -6 CURVE SMOOTH",
"539 -6 OFFCURVE",
"598 90 OFFCURVE",
"598 237 CURVE SMOOTH",
"598 421 OFFCURVE",
"484 549 OFFCURVE",
"325 549 CURVE SMOOTH",
"170 549 OFFCURVE",
"48 433 OFFCURVE",
"48 256 CURVE SMOOTH",
"48 110 OFFCURVE",
"138 -6 OFFCURVE",
"182 -6 CURVE SMOOTH"
);
}
);
width = 646;
},
{
layerId = "C0B026C4-A727-4B54-9AF4-B5E9F769E1F3";
paths = (
{
closed = 1;
nodes = (
"231 -9 OFFCURVE",
"241 3 OFFCURVE",
"251 16 CURVE",
"166 68 OFFCURVE",
"116 150 OFFCURVE",
"116 264 CURVE SMOOTH",
"116 409 OFFCURVE",
"203 495 OFFCURVE",
"315 495 CURVE SMOOTH",
"437 495 OFFCURVE",
"491 370 OFFCURVE",
"491 237 CURVE SMOOTH",
"491 130 OFFCURVE",
"468 74 OFFCURVE",
"413 74 CURVE SMOOTH",
"357 74 OFFCURVE",
"334 129 OFFCURVE",
"334 212 CURVE SMOOTH",
"334 332 OFFCURVE",
"395 430 OFFCURVE",
"475 489 CURVE",
"415 532 LINE",
"337 463 OFFCURVE",
"256 368 OFFCURVE",
"256 213 CURVE SMOOTH",
"256 79 OFFCURVE",
"315 -8 OFFCURVE",
"463 -8 CURVE SMOOTH",
"612 -8 OFFCURVE",
"713 82 OFFCURVE",
"713 246 CURVE SMOOTH",
"713 438 OFFCURVE",
"568 575 OFFCURVE",
"358 575 CURVE SMOOTH",
"172 575 OFFCURVE",
"38 455 OFFCURVE",
"38 263 CURVE SMOOTH",
"38 96 OFFCURVE",
"129 -9 OFFCURVE",
"203 -9 CURVE SMOOTH"
);
}
);
width = 750;
}
);
unicode = 0D30;
},
{
glyphname = rramlym;
lastChange = "2019-06-05 08:30:18 +0000";
layers = (
{
layerId = UUID0;
paths = (
{
closed = 1;
nodes = (
"213 -6 OFFCURVE",
"228 0 OFFCURVE",
"235 11 CURVE",
"158 63 OFFCURVE",
"101 146 OFFCURVE",
"101 263 CURVE SMOOTH",
"101 421 OFFCURVE",
"200 496 OFFCURVE",
"310 496 CURVE SMOOTH",
"425 496 OFFCURVE",
"513 405 OFFCURVE",
"513 259 CURVE SMOOTH",
"513 152 OFFCURVE",
"468 56 OFFCURVE",
"391 2 CURVE",
"399 -2 OFFCURVE",
"413 -6 OFFCURVE",
"431 -6 CURVE SMOOTH",
"507 -6 OFFCURVE",
"611 86 OFFCURVE",
"611 255 CURVE SMOOTH",
"611 432 OFFCURVE",
"493 560 OFFCURVE",
"321 560 CURVE SMOOTH",
"175 560 OFFCURVE",
"42 454 OFFCURVE",
"42 263 CURVE SMOOTH",
"42 107 OFFCURVE",
"136 -6 OFFCURVE",
"199 -6 CURVE SMOOTH"
);
}
);
width = 653;
},
{
color = -1;
layerId = "D1B76089-C2CA-459D-9B35-7EF71253C59F";
paths = (
{
closed = 1;
nodes = (
"192 -6 OFFCURVE",
"197 -4 OFFCURVE",
"203 0 CURVE",
"134 48 OFFCURVE",
"76 142 OFFCURVE",
"76 264 CURVE SMOOTH",
"76 427 OFFCURVE",
"187 524 OFFCURVE",
"313 524 CURVE SMOOTH",
"439 524 OFFCURVE",
"544 427 OFFCURVE",
"544 264 CURVE SMOOTH",
"544 150 OFFCURVE",
"500 61 OFFCURVE",
"425 0 CURVE",
"430 -5 OFFCURVE",
"436 -6 OFFCURVE",
"444 -6 CURVE SMOOTH",
"470 -6 OFFCURVE",
"572 84 OFFCURVE",
"572 265 CURVE SMOOTH",
"572 443 OFFCURVE",
"456 549 OFFCURVE",
"313 549 CURVE SMOOTH",
"175 549 OFFCURVE",
"48 443 OFFCURVE",
"48 264 CURVE SMOOTH",
"48 111 OFFCURVE",
"146 -6 OFFCURVE",
"182 -6 CURVE SMOOTH"
);
}
);
width = 620;
},
{
layerId = "C0B026C4-A727-4B54-9AF4-B5E9F769E1F3";
paths = (
{
closed = 1;
nodes = (
"231 -8 OFFCURVE",
"242 3 OFFCURVE",
"252 16 CURVE",
"169 67 OFFCURVE",
"116 157 OFFCURVE",
"116 265 CURVE SMOOTH",
"116 426 OFFCURVE",
"211 492 OFFCURVE",
"293 492 CURVE SMOOTH",
"417 492 OFFCURVE",
"458 381 OFFCURVE",
"458 265 CURVE SMOOTH",
"458 171 OFFCURVE",
"433 77 OFFCURVE",
"363 10 CURVE",
"371 0 OFFCURVE",
"397 -8 OFFCURVE",
"429 -8 CURVE SMOOTH",
"568 -8 OFFCURVE",
"680 86 OFFCURVE",
"680 260 CURVE SMOOTH",
"680 427 OFFCURVE",
"572 575 OFFCURVE",
"344 575 CURVE SMOOTH",
"169 575 OFFCURVE",
"38 458 OFFCURVE",
"38 265 CURVE SMOOTH",
"38 109 OFFCURVE",
"129 -8 OFFCURVE",
"203 -8 CURVE SMOOTH"
);
}
);
width = 718;
}
);
leftMetricsKey = ramlym;
unicode = 0D31;
},
{
glyphname = lamlym;
lastChange = "2019-06-05 08:30:18 +0000";
layers = (
{
layerId = UUID0;
paths = (
{
closed = 1;
nodes = (
"755 0 LINE",
"755 554 LINE",
"660 554 LINE",
"660 54 LINE",
"160 54 LINE",
"160 340 LINE SMOOTH",
"160 456 OFFCURVE",
"219 500 OFFCURVE",
"301 500 CURVE SMOOTH",
"395 500 OFFCURVE",
"434 438 OFFCURVE",
"434 338 CURVE SMOOTH",
"434 274 LINE",
"123 274 LINE",
"123 221 LINE",
"493 221 LINE",
"493 328 LINE SMOOTH",
"493 487 OFFCURVE",
"414 560 OFFCURVE",
"285 560 CURVE SMOOTH",
"172 560 OFFCURVE",
"66 493 OFFCURVE",
"66 328 CURVE SMOOTH",
"66 0 LINE"
);
}
);
width = 827;
},
{
color = -1;
layerId = "D1B76089-C2CA-459D-9B35-7EF71253C59F";
paths = (
{
closed = 1;
nodes = (
"685 0 LINE",
"685 543 LINE",
"658 543 LINE",
"658 25 LINE",
"103 25 LINE",
"103 323 LINE SMOOTH",
"103 453 OFFCURVE",
"165 524 OFFCURVE",
"277 524 CURVE SMOOTH",
"386 524 OFFCURVE",
"445 453 OFFCURVE",
"445 324 CURVE SMOOTH",
"445 261 LINE",
"87 261 LINE",
"87 236 LINE",
"472 236 LINE",
"472 324 LINE SMOOTH",
"472 475 OFFCURVE",
"396 549 OFFCURVE",
"277 549 CURVE SMOOTH",
"154 549 OFFCURVE",
"76 474 OFFCURVE",
"76 324 CURVE SMOOTH",
"76 0 LINE"
);
}
);
width = 763;
},
{
layerId = "C0B026C4-A727-4B54-9AF4-B5E9F769E1F3";
paths = (
{
closed = 1;
nodes = (
"882 0 LINE",
"882 567 LINE",
"667 567 LINE",
"667 73 LINE",
"269 73 LINE",
"269 343 LINE SMOOTH",
"269 464 OFFCURVE",
"308 496 OFFCURVE",
"367 496 CURVE SMOOTH",
"445 496 OFFCURVE",
"482 438 OFFCURVE",
"482 340 CURVE SMOOTH",
"482 290 LINE",
"180 290 LINE",
"180 218 LINE",
"560 218 LINE",
"560 347 LINE SMOOTH",
"560 483 OFFCURVE",
"484 575 OFFCURVE",
"322 575 CURVE SMOOTH",
"189 575 OFFCURVE",
"58 502 OFFCURVE",
"58 333 CURVE SMOOTH",
"58 0 LINE"
);
}
);
width = 944;
}
);
rightMetricsKey = pamlym;
unicode = 0D32;
},
{
glyphname = llamlym;
lastChange = "2019-06-05 08:30:18 +0000";
layers = (
{
layerId = UUID0;
paths = (
{
closed = 1;
nodes = (
"645 -197 LINE",
"645 -121 LINE",
"222 -121 LINE SMOOTH",
"148 -121 OFFCURVE",
"125 -95 OFFCURVE",
"125 -61 CURVE SMOOTH",
"125 -24 OFFCURVE",
"146 0 OFFCURVE",
"220 0 CURVE SMOOTH",
"446 0 LINE SMOOTH",
"579 0 OFFCURVE",
"657 38 OFFCURVE",
"657 141 CURVE SMOOTH",
"657 204 OFFCURVE",
"609 263 OFFCURVE",
"529 276 CURVE",
"528 280 LINE",
"609 297 OFFCURVE",
"646 348 OFFCURVE",
"646 399 CURVE SMOOTH",
"646 510 OFFCURVE",
"542 560 OFFCURVE",
"384 560 CURVE SMOOTH",
"176 560 OFFCURVE",
"44 456 OFFCURVE",
"44 299 CURVE SMOOTH",
"44 169 OFFCURVE",
"129 108 OFFCURVE",
"213 108 CURVE SMOOTH",
"316 108 OFFCURVE",
"380 161 OFFCURVE",
"380 255 CURVE SMOOTH",
"380 333 OFFCURVE",
"330 401 OFFCURVE",
"229 401 CURVE SMOOTH",
"169 401 OFFCURVE",
"115 361 OFFCURVE",
"82 307 CURVE",
"91 243 LINE",
"122 312 OFFCURVE",
"163 343 OFFCURVE",
"210 343 CURVE SMOOTH",
"259 343 OFFCURVE",
"291 304 OFFCURVE",
"291 254 CURVE SMOOTH",
"291 205 OFFCURVE",
"261 166 OFFCURVE",
"207 166 CURVE SMOOTH",
"159 166 OFFCURVE",
"96 205 OFFCURVE",
"96 299 CURVE SMOOTH",
"96 418 OFFCURVE",
"194 500 OFFCURVE",
"365 500 CURVE SMOOTH",
"467 500 OFFCURVE",
"552 478 OFFCURVE",
"552 393 CURVE SMOOTH",
"552 337 OFFCURVE",
"502 305 OFFCURVE",
"434 303 CURVE",
"434 253 LINE",
"515 252 OFFCURVE",
"562 220 OFFCURVE",
"562 153 CURVE SMOOTH",
"562 92 OFFCURVE",
"533 54 OFFCURVE",
"427 54 CURVE SMOOTH",
"213 54 LINE SMOOTH",
"116 54 OFFCURVE",
"52 14 OFFCURVE",
"52 -70 CURVE SMOOTH",
"52 -148 OFFCURVE",
"109 -197 OFFCURVE",
"230 -197 CURVE SMOOTH"
);
}
);
width = 695;
},
{
color = -1;
layerId = "D1B76089-C2CA-459D-9B35-7EF71253C59F";
paths = (
{
closed = 1;
nodes = (
"585 -170 LINE",
"585 -145 LINE",
"195 -145 LINE SMOOTH",
"100 -145 OFFCURVE",
"81 -110 OFFCURVE",
"81 -72 CURVE SMOOTH",
"81 -29 OFFCURVE",
"108 0 OFFCURVE",
"194 0 CURVE SMOOTH",
"425 0 LINE SMOOTH",
"552 0 OFFCURVE",
"596 55 OFFCURVE",
"596 140 CURVE SMOOTH",
"596 220 OFFCURVE",
"542 262 OFFCURVE",
"477 273 CURVE",
"477 275 LINE",
"554 293 OFFCURVE",
"585 337 OFFCURVE",
"585 400 CURVE SMOOTH",
"585 482 OFFCURVE",
"530 549 OFFCURVE",
"363 549 CURVE SMOOTH",
"161 549 OFFCURVE",
"50 433 OFFCURVE",
"50 304 CURVE SMOOTH",
"50 164 OFFCURVE",
"128 102 OFFCURVE",
"216 102 CURVE SMOOTH",
"303 102 OFFCURVE",
"359 164 OFFCURVE",
"359 246 CURVE SMOOTH",
"359 334 OFFCURVE",
"292 381 OFFCURVE",
"226 381 CURVE SMOOTH",
"148 381 OFFCURVE",
"98 329 OFFCURVE",
"64 274 CURVE",
"69 242 LINE",
"108 305 OFFCURVE",
"150 356 OFFCURVE",
"224 356 CURVE SMOOTH",
"285 356 OFFCURVE",
"331 311 OFFCURVE",
"331 240 CURVE SMOOTH",
"331 181 OFFCURVE",
"289 127 OFFCURVE",
"216 127 CURVE SMOOTH",
"132 127 OFFCURVE",
"77 189 OFFCURVE",
"77 300 CURVE SMOOTH",
"77 431 OFFCURVE",
"186 524 OFFCURVE",
"363 524 CURVE SMOOTH",
"499 524 OFFCURVE",
"557 479 OFFCURVE",
"557 400 CURVE SMOOTH",
"557 326 OFFCURVE",
"503 290 OFFCURVE",
"420 288 CURVE",
"420 263 LINE",
"496 261 OFFCURVE",
"568 226 OFFCURVE",
"568 140 CURVE SMOOTH",
"568 73 OFFCURVE",
"539 25 OFFCURVE",
"420 25 CURVE SMOOTH",
"193 25 LINE SMOOTH",
"101 25 OFFCURVE",
"53 -8 OFFCURVE",
"53 -71 CURVE SMOOTH",
"53 -131 OFFCURVE",
"92 -170 OFFCURVE",
"193 -170 CURVE SMOOTH"
);
}
);
width = 640;
},
{
layerId = "C0B026C4-A727-4B54-9AF4-B5E9F769E1F3";
paths = (
{
closed = 1;
nodes = (
"737 -201 LINE",
"737 -93 LINE",
"232 -93 LINE SMOOTH",
"177 -93 OFFCURVE",
"150 -79 OFFCURVE",
"150 -47 CURVE SMOOTH",
"150 -8 OFFCURVE",
"185 0 OFFCURVE",
"228 0 CURVE SMOOTH",
"521 0 LINE SMOOTH",
"693 0 OFFCURVE",
"748 64 OFFCURVE",
"748 144 CURVE SMOOTH",
"748 206 OFFCURVE",
"711 259 OFFCURVE",
"601 282 CURVE",
"601 286 LINE",
"702 302 OFFCURVE",
"741 346 OFFCURVE",
"741 415 CURVE SMOOTH",
"741 533 OFFCURVE",
"589 575 OFFCURVE",
"420 575 CURVE SMOOTH",
"186 575 OFFCURVE",
"40 481 OFFCURVE",
"40 307 CURVE SMOOTH",
"40 181 OFFCURVE",
"119 103 OFFCURVE",
"239 103 CURVE SMOOTH",
"369 103 OFFCURVE",
"424 169 OFFCURVE",
"424 261 CURVE SMOOTH",
"424 347 OFFCURVE",
"364 413 OFFCURVE",
"265 413 CURVE SMOOTH",
"196 413 OFFCURVE",
"143 381 OFFCURVE",
"106 334 CURVE",
"106 263 LINE",
"137 309 OFFCURVE",
"169 339 OFFCURVE",
"212 339 CURVE SMOOTH",
"261 339 OFFCURVE",
"273 293 OFFCURVE",
"273 256 CURVE SMOOTH",
"273 202 OFFCURVE",
"253 179 OFFCURVE",
"209 179 CURVE SMOOTH",
"154 179 OFFCURVE",
"113 226 OFFCURVE",
"113 303 CURVE SMOOTH",
"113 431 OFFCURVE",
"211 493 OFFCURVE",
"359 493 CURVE SMOOTH",
"465 493 OFFCURVE",
"524 464 OFFCURVE",
"524 398 CURVE SMOOTH",
"524 346 OFFCURVE",
"493 323 OFFCURVE",
"450 319 CURVE",
"450 249 LINE",
"489 244 OFFCURVE",
"529 225 OFFCURVE",
"529 163 CURVE SMOOTH",
"529 106 OFFCURVE",
"500 73 OFFCURVE",
"399 73 CURVE SMOOTH",
"225 73 LINE SMOOTH",
"118 73 OFFCURVE",
"49 28 OFFCURVE",
"49 -63 CURVE SMOOTH",
"49 -165 OFFCURVE",
"124 -201 OFFCURVE",
"247 -201 CURVE SMOOTH"
);
}
);
width = 778;
}
);
leftMetricsKey = imlym;
rightMetricsKey = ngamlym;
unicode = 0D33;
},
{
glyphname = lllamlym;
lastChange = "2019-06-05 08:30:18 +0000";
layers = (
{
layerId = UUID0;
paths = (
{
closed = 1;
nodes = (
"379 -6 OFFCURVE",
"448 45 OFFCURVE",
"448 134 CURVE SMOOTH",
"448 184 OFFCURVE",
"424 224 OFFCURVE",
"399 266 CURVE SMOOTH",
"374 308 OFFCURVE",
"349 352 OFFCURVE",
"349 406 CURVE SMOOTH",
"349 470 OFFCURVE",
"390 502 OFFCURVE",
"446 502 CURVE SMOOTH",
"499 502 OFFCURVE",
"543 468 OFFCURVE",
"543 403 CURVE SMOOTH",
"543 297 OFFCURVE",
"445 245 OFFCURVE",
"340 245 CURVE SMOOTH",
"189 245 OFFCURVE",
"132 315 OFFCURVE",
"132 417 CURVE SMOOTH",
"132 463 OFFCURVE",
"147 517 OFFCURVE",
"185 554 CURVE",
"179 556 OFFCURVE",
"170 557 OFFCURVE",
"161 557 CURVE SMOOTH",
"98 557 OFFCURVE",
"37 495 OFFCURVE",
"37 404 CURVE SMOOTH",
"37 278 OFFCURVE",
"123 194 OFFCURVE",
"322 194 CURVE SMOOTH",
"469 194 OFFCURVE",
"600 266 OFFCURVE",
"600 401 CURVE SMOOTH",
"600 498 OFFCURVE",
"529 560 OFFCURVE",
"430 560 CURVE SMOOTH",
"343 560 OFFCURVE",
"259 506 OFFCURVE",
"259 405 CURVE SMOOTH",
"259 343 OFFCURVE",
"286 293 OFFCURVE",
"313 252 CURVE SMOOTH",
"344 205 OFFCURVE",
"358 172 OFFCURVE",
"358 137 CURVE SMOOTH",
"358 90 OFFCURVE",
"332 61 OFFCURVE",
"260 61 CURVE SMOOTH",
"231 61 OFFCURVE",
"201 68 OFFCURVE",
"171 81 CURVE",
"169 74 OFFCURVE",
"169 70 OFFCURVE",
"169 66 CURVE SMOOTH",
"169 36 OFFCURVE",
"189 -6 OFFCURVE",
"288 -6 CURVE SMOOTH"
);
}
);
width = 634;
},
{
color = -1;
layerId = "D1B76089-C2CA-459D-9B35-7EF71253C59F";
paths = (
{
closed = 1;
nodes = (
"334 -6 OFFCURVE",
"377 49 OFFCURVE",
"377 116 CURVE SMOOTH",
"377 164 OFFCURVE",
"361 207 OFFCURVE",
"330 261 CURVE SMOOTH",
"301 312 OFFCURVE",
"280 357 OFFCURVE",
"280 403 CURVE SMOOTH",
"280 480 OFFCURVE",
"331 524 OFFCURVE",
"394 524 CURVE SMOOTH",
"459 524 OFFCURVE",
"511 480 OFFCURVE",
"511 403 CURVE SMOOTH",
"511 290 OFFCURVE",
"421 228 OFFCURVE",
"290 228 CURVE SMOOTH",
"140 228 OFFCURVE",
"71 304 OFFCURVE",
"71 409 CURVE SMOOTH",
"71 463 OFFCURVE",
"90 511 OFFCURVE",
"132 543 CURVE",
"130 546 OFFCURVE",
"126 549 OFFCURVE",
"119 549 CURVE SMOOTH",
"86 549 OFFCURVE",
"43 488 OFFCURVE",
"43 409 CURVE SMOOTH",
"43 290 OFFCURVE",
"127 203 OFFCURVE",
"291 203 CURVE SMOOTH",
"432 203 OFFCURVE",
"539 276 OFFCURVE",
"539 403 CURVE SMOOTH",
"539 485 OFFCURVE",
"482 549 OFFCURVE",
"394 549 CURVE SMOOTH",
"321 549 OFFCURVE",
"252 500 OFFCURVE",
"252 403 CURVE SMOOTH",
"252 353 OFFCURVE",
"274 306 OFFCURVE",
"306 249 CURVE SMOOTH",
"341 187 OFFCURVE",
"349 159 OFFCURVE",
"349 116 CURVE SMOOTH",
"349 59 OFFCURVE",
"311 19 OFFCURVE",
"246 19 CURVE SMOOTH",
"201 19 OFFCURVE",
"175 31 OFFCURVE",
"150 46 CURVE",
"147 40 OFFCURVE",
"146 37 OFFCURVE",
"146 31 CURVE SMOOTH",
"146 14 OFFCURVE",
"188 -6 OFFCURVE",
"247 -6 CURVE SMOOTH"
);
}
);
width = 579;
},
{
layerId = "C0B026C4-A727-4B54-9AF4-B5E9F769E1F3";
paths = (
{
closed = 1;
nodes = (
"543 -8 OFFCURVE",
"613 64 OFFCURVE",
"613 154 CURVE SMOOTH",
"613 212 OFFCURVE",
"594 256 OFFCURVE",
"568 311 CURVE SMOOTH",
"543 365 OFFCURVE",
"532 392 OFFCURVE",
"532 429 CURVE SMOOTH",
"532 461 OFFCURVE",
"548 496 OFFCURVE",
"597 496 CURVE SMOOTH",
"641 496 OFFCURVE",
"662 466 OFFCURVE",
"662 418 CURVE SMOOTH",
"662 326 OFFCURVE",
"589 262 OFFCURVE",
"432 262 CURVE SMOOTH",
"279 262 OFFCURVE",
"226 328 OFFCURVE",
"226 421 CURVE SMOOTH",
"226 486 OFFCURVE",
"247 532 OFFCURVE",
"278 567 CURVE",
"266 572 OFFCURVE",
"253 575 OFFCURVE",
"234 575 CURVE SMOOTH",
"120 575 OFFCURVE",
"32 507 OFFCURVE",
"32 406 CURVE SMOOTH",
"32 281 OFFCURVE",
"138 193 OFFCURVE",
"398 193 CURVE SMOOTH",
"612 193 OFFCURVE",
"740 281 OFFCURVE",
"740 417 CURVE SMOOTH",
"740 521 OFFCURVE",
"656 575 OFFCURVE",
"529 575 CURVE SMOOTH",
"396 575 OFFCURVE",
"318 510 OFFCURVE",
"318 408 CURVE SMOOTH",
"318 354 OFFCURVE",
"336 313 OFFCURVE",
"364 261 CURVE",
"388 217 OFFCURVE",
"399 187 OFFCURVE",
"399 144 CURVE SMOOTH",
"399 111 OFFCURVE",
"381 85 OFFCURVE",
"317 85 CURVE SMOOTH",
"279 85 OFFCURVE",
"238 95 OFFCURVE",
"214 111 CURVE",
"210 104 OFFCURVE",
"209 95 OFFCURVE",
"209 88 CURVE SMOOTH",
"209 52 OFFCURVE",
"233 -8 OFFCURVE",
"401 -8 CURVE SMOOTH"
);
}
);
width = 770;
}
);
unicode = 0D34;
},
{
glyphname = vamlym;
lastChange = "2019-06-05 08:30:18 +0000";
layers = (
{
layerId = UUID0;
paths = (
{
closed = 1;
nodes = (
"213 -6 OFFCURVE",
"228 0 OFFCURVE",
"235 11 CURVE",
"159 62 OFFCURVE",
"101 146 OFFCURVE",
"101 263 CURVE SMOOTH",
"101 421 OFFCURVE",
"200 496 OFFCURVE",
"304 496 CURVE SMOOTH",
"438 496 OFFCURVE",
"501 398 OFFCURVE",
"501 269 CURVE SMOOTH",
"501 169 OFFCURVE",
"464 84 OFFCURVE",
"387 26 CURVE",
"400 0 LINE",
"866 0 LINE",
"866 554 LINE",
"771 554 LINE",
"771 54 LINE",
"443 54 LINE",
"475 23 LINE",
"567 90 OFFCURVE",
"599 181 OFFCURVE",
"599 286 CURVE SMOOTH",
"599 428 OFFCURVE",
"497 560 OFFCURVE",
"318 560 CURVE SMOOTH",
"175 560 OFFCURVE",
"42 454 OFFCURVE",
"42 261 CURVE SMOOTH",
"42 106 OFFCURVE",
"136 -6 OFFCURVE",
"199 -6 CURVE SMOOTH"
);
}
);
width = 938;
},
{
color = -1;
layerId = "D1B76089-C2CA-459D-9B35-7EF71253C59F";
paths = (
{
closed = 1;
nodes = (
"192 -6 OFFCURVE",
"197 -4 OFFCURVE",
"203 0 CURVE",
"134 48 OFFCURVE",
"76 142 OFFCURVE",
"76 264 CURVE SMOOTH",
"76 427 OFFCURVE",
"185 524 OFFCURVE",
"308 524 CURVE SMOOTH",
"431 524 OFFCURVE",
"534 427 OFFCURVE",
"534 265 CURVE SMOOTH",
"534 173 OFFCURVE",
"498 97 OFFCURVE",
"419 18 CURVE",
"428 0 LINE",
"781 0 LINE",
"781 543 LINE",
"754 543 LINE",
"754 25 LINE",
"450 25 LINE",
"453 20 LINE",
"516 80 OFFCURVE",
"562 169 OFFCURVE",
"562 265 CURVE SMOOTH",
"562 443 OFFCURVE",
"448 549 OFFCURVE",
"308 549 CURVE SMOOTH",
"173 549 OFFCURVE",
"48 443 OFFCURVE",
"48 264 CURVE SMOOTH",
"48 111 OFFCURVE",
"146 -6 OFFCURVE",
"182 -6 CURVE SMOOTH"
);
}
);
width = 859;
},
{
layerId = "C0B026C4-A727-4B54-9AF4-B5E9F769E1F3";
paths = (
{
closed = 1;
nodes = (
"231 -9 OFFCURVE",
"242 2 OFFCURVE",
"252 15 CURVE",
"171 62 OFFCURVE",
"116 157 OFFCURVE",
"116 265 CURVE SMOOTH",
"116 426 OFFCURVE",
"209 492 OFFCURVE",
"288 492 CURVE SMOOTH",
"410 492 OFFCURVE",
"448 382 OFFCURVE",
"448 265 CURVE SMOOTH",
"448 182 OFFCURVE",
"425 100 OFFCURVE",
"361 25 CURVE",
"373 0 LINE",
"1008 0 LINE",
"1008 567 LINE",
"793 567 LINE",
"793 73 LINE",
"509 73 LINE",
"565 52 LINE",
"619 93 OFFCURVE",
"667 166 OFFCURVE",
"667 289 CURVE SMOOTH",
"667 444 OFFCURVE",
"549 575 OFFCURVE",
"342 575 CURVE SMOOTH",
"165 575 OFFCURVE",
"38 456 OFFCURVE",
"38 265 CURVE SMOOTH",
"38 109 OFFCURVE",
"129 -9 OFFCURVE",
"203 -9 CURVE SMOOTH"
);
}
);
width = 1070;
}
);
leftMetricsKey = ramlym;
rightMetricsKey = pamlym;
unicode = 0D35;
},
{
glyphname = shamlym;
lastChange = "2019-06-05 08:30:18 +0000";
layers = (
{
layerId = UUID0;
paths = (
{
closed = 1;
nodes = (
"400 -6 OFFCURVE",
"473 80 OFFCURVE",
"473 240 CURVE SMOOTH",
"473 288 LINE SMOOTH",
"473 445 OFFCURVE",
"547 507 OFFCURVE",
"649 507 CURVE SMOOTH",
"799 507 OFFCURVE",
"866 365 OFFCURVE",
"866 232 CURVE SMOOTH",
"866 95 OFFCURVE",
"816 54 OFFCURVE",
"754 54 CURVE SMOOTH",
"688 54 OFFCURVE",
"643 105 OFFCURVE",
"643 199 CURVE SMOOTH",
"643 307 OFFCURVE",
"693 412 OFFCURVE",
"781 484 CURVE",
"748 523 LINE",
"648 439 OFFCURVE",
"585 334 OFFCURVE",
"585 204 CURVE SMOOTH",
"585 78 OFFCURVE",
"648 -6 OFFCURVE",
"764 -6 CURVE SMOOTH",
"892 -6 OFFCURVE",
"963 106 OFFCURVE",
"963 234 CURVE SMOOTH",
"963 424 OFFCURVE",
"842 560 OFFCURVE",
"650 560 CURVE SMOOTH",
"496 560 OFFCURVE",
"374 473 OFFCURVE",
"374 292 CURVE SMOOTH",
"374 225 LINE SMOOTH",
"374 94 OFFCURVE",
"327 55 OFFCURVE",
"248 55 CURVE SMOOTH",
"148 55 OFFCURVE",
"101 138 OFFCURVE",
"101 271 CURVE SMOOTH",
"101 409 OFFCURVE",
"160 484 OFFCURVE",
"239 543 CURVE",
"229 555 OFFCURVE",
"216 560 OFFCURVE",
"202 560 CURVE SMOOTH",
"142 560 OFFCURVE",
"42 448 OFFCURVE",
"42 275 CURVE SMOOTH",
"42 95 OFFCURVE",
"124 -6 OFFCURVE",
"255 -6 CURVE SMOOTH"
);
}
);
width = 1005;
},
{
color = -1;
layerId = "D1B76089-C2CA-459D-9B35-7EF71253C59F";
paths = (
{
closed = 1;
nodes = (
"357 -6 OFFCURVE",
"420 64 OFFCURVE",
"420 208 CURVE SMOOTH",
"420 291 LINE SMOOTH",
"420 453 OFFCURVE",
"506 524 OFFCURVE",
"626 524 CURVE SMOOTH",
"776 524 OFFCURVE",
"877 406 OFFCURVE",
"877 237 CURVE SMOOTH",
"877 106 OFFCURVE",
"829 19 OFFCURVE",
"735 19 CURVE SMOOTH",
"659 19 OFFCURVE",
"604 92 OFFCURVE",
"604 206 CURVE SMOOTH",
"604 340 OFFCURVE",
"672 441 OFFCURVE",
"754 498 CURVE",
"736 516 LINE",
"644 453 OFFCURVE",
"576 343 OFFCURVE",
"576 206 CURVE SMOOTH",
"576 88 OFFCURVE",
"635 -6 OFFCURVE",
"735 -6 CURVE SMOOTH",
"846 -6 OFFCURVE",
"905 90 OFFCURVE",
"905 237 CURVE SMOOTH",
"905 421 OFFCURVE",
"791 549 OFFCURVE",
"626 549 CURVE SMOOTH",
"494 549 OFFCURVE",
"392 471 OFFCURVE",
"392 296 CURVE SMOOTH",
"392 214 LINE SMOOTH",
"392 88 OFFCURVE",
"350 19 OFFCURVE",
"246 19 CURVE SMOOTH",
"150 19 OFFCURVE",
"76 89 OFFCURVE",
"76 260 CURVE SMOOTH",
"76 398 OFFCURVE",
"138 496 OFFCURVE",
"212 542 CURVE",
"207 547 OFFCURVE",
"202 549 OFFCURVE",
"194 549 CURVE SMOOTH",
"153 549 OFFCURVE",
"48 444 OFFCURVE",
"48 260 CURVE SMOOTH",
"48 72 OFFCURVE",
"133 -6 OFFCURVE",
"245 -6 CURVE SMOOTH"
);
}
);
width = 953;
},
{
layerId = "C0B026C4-A727-4B54-9AF4-B5E9F769E1F3";
paths = (
{
closed = 1;
nodes = (
"439 -8 OFFCURVE",
"546 70 OFFCURVE",
"546 251 CURVE SMOOTH",
"546 325 LINE SMOOTH",
"546 438 OFFCURVE",
"588 505 OFFCURVE",
"686 505 CURVE SMOOTH",
"812 505 OFFCURVE",
"864 386 OFFCURVE",
"864 237 CURVE SMOOTH",
"864 130 OFFCURVE",
"841 74 OFFCURVE",
"786 74 CURVE SMOOTH",
"730 74 OFFCURVE",
"707 129 OFFCURVE",
"707 212 CURVE SMOOTH",
"707 332 OFFCURVE",
"768 430 OFFCURVE",
"848 489 CURVE",
"788 532 LINE",
"710 463 OFFCURVE",
"629 368 OFFCURVE",
"629 213 CURVE SMOOTH",
"629 79 OFFCURVE",
"690 -8 OFFCURVE",
"839 -8 CURVE SMOOTH",
"987 -8 OFFCURVE",
"1086 82 OFFCURVE",
"1086 246 CURVE SMOOTH",
"1086 417 OFFCURVE",
"967 575 OFFCURVE",
"685 575 CURVE SMOOTH",
"465 575 OFFCURVE",
"326 480 OFFCURVE",
"326 277 CURVE SMOOTH",
"326 199 LINE SMOOTH",
"326 109 OFFCURVE",
"290 74 OFFCURVE",
"236 74 CURVE SMOOTH",
"167 74 OFFCURVE",
"116 145 OFFCURVE",
"116 279 CURVE SMOOTH",
"116 408 OFFCURVE",
"162 477 OFFCURVE",
"242 550 CURVE",
"232 563 OFFCURVE",
"222 575 OFFCURVE",
"193 575 CURVE SMOOTH",
"132 575 OFFCURVE",
"38 449 OFFCURVE",
"38 281 CURVE SMOOTH",
"38 92 OFFCURVE",
"127 -8 OFFCURVE",
"288 -8 CURVE SMOOTH"
);
}
);
width = 1123;
}
);
leftMetricsKey = namlym;
rightMetricsKey = ramlym;
unicode = 0D36;
},
{
glyphname = ssamlym;
lastChange = "2019-06-05 08:30:18 +0000";
layers = (
{
layerId = UUID0;
paths = (
{
closed = 1;
nodes = (
"165 -6 OFFCURVE",
"172 0 OFFCURVE",
"180 14 CURVE",
"137 42 OFFCURVE",
"91 91 OFFCURVE",
"91 167 CURVE SMOOTH",
"91 239 OFFCURVE",
"137 299 OFFCURVE",
"216 299 CURVE SMOOTH",
"287 299 OFFCURVE",
"333 245 OFFCURVE",
"333 177 CURVE SMOOTH",
"333 90 OFFCURVE",
"283 41 OFFCURVE",
"255 17 CURVE",
"265 0 LINE",
"771 0 LINE",
"771 54 LINE",
"367 54 LINE",
"406 88 OFFCURVE",
"424 137 OFFCURVE",
"424 182 CURVE SMOOTH",
"424 292 OFFCURVE",
"334 359 OFFCURVE",
"228 359 CURVE SMOOTH",
"118 359 OFFCURVE",
"34 283 OFFCURVE",
"34 167 CURVE SMOOTH",
"34 68 OFFCURVE",
"98 -6 OFFCURVE",
"148 -6 CURVE SMOOTH"
);
},
{
closed = 1;
nodes = (
"1050 0 LINE",
"1050 551 LINE",
"1008 554 LINE",
"962 374 OFFCURVE",
"842 280 OFFCURVE",
"701 280 CURVE SMOOTH",
"587 280 OFFCURVE",
"513 327 OFFCURVE",
"513 418 CURVE SMOOTH",
"513 466 OFFCURVE",
"540 500 OFFCURVE",
"587 500 CURVE SMOOTH",
"633 500 OFFCURVE",
"654 465 OFFCURVE",
"654 398 CURVE SMOOTH",
"654 0 LINE"
);
},
{
closed = 1;
nodes = (
"747 399 LINE SMOOTH",
"747 517 OFFCURVE",
"675 560 OFFCURVE",
"603 560 CURVE SMOOTH",
"527 560 OFFCURVE",
"457 511 OFFCURVE",
"457 416 CURVE SMOOTH",
"457 292 OFFCURVE",
"560 227 OFFCURVE",
"698 227 CURVE SMOOTH",
"845 227 OFFCURVE",
"964 308 OFFCURVE",
"1018 437 CURVE",
"963 378 LINE",
"958 336 OFFCURVE",
"957 268 OFFCURVE",
"957 223 CURVE SMOOTH",
"957 54 LINE",
"747 54 LINE"
);
}
);
width = 1122;
},
{
color = -1;
layerId = "D1B76089-C2CA-459D-9B35-7EF71253C59F";
paths = (
{
closed = 1;
nodes = (
"159 -4 OFFCURVE",
"163 0 OFFCURVE",
"166 6 CURVE",
"116 34 OFFCURVE",
"68 76 OFFCURVE",
"68 164 CURVE SMOOTH",
"68 241 OFFCURVE",
"128 301 OFFCURVE",
"208 301 CURVE SMOOTH",
"289 301 OFFCURVE",
"339 241 OFFCURVE",
"339 167 CURVE SMOOTH",
"339 90 OFFCURVE",
"296 45 OFFCURVE",
"257 12 CURVE",
"264 0 LINE",
"760 0 LINE",
"760 25 LINE",
"304 25 LINE",
"339 56 OFFCURVE",
"367 104 OFFCURVE",
"367 167 CURVE SMOOTH",
"367 268 OFFCURVE",
"292 326 OFFCURVE",
"208 326 CURVE SMOOTH",
"125 326 OFFCURVE",
"40 268 OFFCURVE",
"40 164 CURVE SMOOTH",
"40 52 OFFCURVE",
"121 -4 OFFCURVE",
"148 -4 CURVE SMOOTH"
);
},
{
closed = 1;
nodes = (
"935 0 LINE",
"935 543 LINE",
"909 544 LINE",
"871 341 OFFCURVE",
"751 262 OFFCURVE",
"623 262 CURVE SMOOTH",
"525 262 OFFCURVE",
"442 305 OFFCURVE",
"442 418 CURVE SMOOTH",
"442 483 OFFCURVE",
"481 524 OFFCURVE",
"535 524 CURVE SMOOTH",
"594 524 OFFCURVE",
"624 480 OFFCURVE",
"624 400 CURVE SMOOTH",
"624 0 LINE"
);
},
{
closed = 1;
nodes = (
"651 406 LINE SMOOTH",
"651 504 OFFCURVE",
"606 549 OFFCURVE",
"535 549 CURVE SMOOTH",
"472 549 OFFCURVE",
"414 504 OFFCURVE",
"414 418 CURVE SMOOTH",
"414 294 OFFCURVE",
"505 237 OFFCURVE",
"623 237 CURVE SMOOTH",
"771 237 OFFCURVE",
"879 321 OFFCURVE",
"918 488 CURVE",
"912 485 LINE",
"909 416 OFFCURVE",
"908 340 OFFCURVE",
"908 290 CURVE SMOOTH",
"908 25 LINE",
"651 25 LINE"
);
}
);
width = 1013;
},
{
layerId = "C0B026C4-A727-4B54-9AF4-B5E9F769E1F3";
paths = (
{
closed = 1;
nodes = (
"169 -8 OFFCURVE",
"175 -2 OFFCURVE",
"183 14 CURVE",
"140 42 OFFCURVE",
"105 90 OFFCURVE",
"105 167 CURVE SMOOTH",
"105 239 OFFCURVE",
"146 288 OFFCURVE",
"206 288 CURVE SMOOTH",
"264 288 OFFCURVE",
"298 247 OFFCURVE",
"298 173 CURVE SMOOTH",
"298 99 OFFCURVE",
"276 57 OFFCURVE",
"243 17 CURVE",
"253 0 LINE",
"787 0 LINE",
"787 73 LINE",
"452 73 LINE",
"477 101 OFFCURVE",
"492 143 OFFCURVE",
"492 185 CURVE SMOOTH",
"492 285 OFFCURVE",
"400 364 OFFCURVE",
"255 364 CURVE SMOOTH",
"106 364 OFFCURVE",
"28 280 OFFCURVE",
"28 167 CURVE SMOOTH",
"28 67 OFFCURVE",
"90 -8 OFFCURVE",
"144 -8 CURVE SMOOTH"
);
},
{
closed = 1;
nodes = (
"1261 0 LINE",
"1261 561 LINE",
"1133 572 LINE",
"1057 430 OFFCURVE",
"965 300 OFFCURVE",
"771 300 CURVE SMOOTH",
"625 300 OFFCURVE",
"570 346 OFFCURVE",
"570 424 CURVE SMOOTH",
"570 463 OFFCURVE",
"589 493 OFFCURVE",
"625 493 CURVE SMOOTH",
"652 493 OFFCURVE",
"671 473 OFFCURVE",
"671 420 CURVE SMOOTH",
"671 0 LINE"
);
},
{
closed = 1;
nodes = (
"883 380 LINE SMOOTH",
"883 532 OFFCURVE",
"787 575 OFFCURVE",
"679 575 CURVE SMOOTH",
"554 575 OFFCURVE",
"493 503 OFFCURVE",
"493 418 CURVE SMOOTH",
"493 302 OFFCURVE",
"594 228 OFFCURVE",
"760 228 CURVE SMOOTH",
"981 228 OFFCURVE",
"1076 330 OFFCURVE",
"1130 455 CURVE",
"1056 395 LINE",
"1051 353 OFFCURVE",
"1050 285 OFFCURVE",
"1050 240 CURVE SMOOTH",
"1050 73 LINE",
"883 73 LINE"
);
}
);
width = 1323;
}
);
leftMetricsKey = pamlym;
rightMetricsKey = pamlym;
unicode = 0D37;
},
